<?xml version="1.0" standalone="no"?>
<!DOCTYPE svg PUBLIC "-//W3C//DTD SVG 1.1//EN" "http://www.w3.org/Graphics/SVG/1.1/DTD/svg11.dtd" >
<svg xmlns="http://www.w3.org/2000/svg" xmlns:xlink="http://www.w3.org/1999/xlink" version="1.1">
<metadata>
Created by FontForge 20170731 at Sat Jul 25 04:40:10 2015
 By Aleksey,,,
Copyright (c) 2011 by Jos Buivenga. All rights reserved.
</metadata>
<defs>
<font id="MuseoSansRounded-700" horiz-adv-x="1267" >
  <font-face 
    font-family="Museo Sans Rounded"
    font-weight="700"
    font-stretch="normal"
    units-per-em="2048"
    panose-1="2 0 0 0 0 0 0 0 0 0"
    ascent="1583"
    descent="-465"
    x-height="1044"
    cap-height="1454"
    bbox="-125 -440 1976 1847"
    underline-thickness="102"
    underline-position="-816"
    unicode-range="U+0020-FB04"
  />
<missing-glyph horiz-adv-x="748" 
d="M68 0v1365h544v-1365h-544zM136 68h408v1229h-408v-1229z" />
    <glyph glyph-name="uniFB01" unicode="fi" horiz-adv-x="1208" 
d="M49 924v34q0 86 84 86h51v35q0 89 31 163.5t78 115.5q69 57 147 80.5t144 23.5h30q84 0 84 -86v-53q0 -78 -88 -84q-59 -3 -106 -29q-60 -35 -60 -141v-25h551q86 0 86 -86v-872q0 -86 -86 -86h-90q-84 0 -84 86v752h-377v-752q0 -86 -86 -86h-90q-84 0 -84 86v752h-51
q-84 0 -84 86zM821 1307v61q0 86 84 86h90q86 0 86 -86v-61q0 -84 -86 -84h-90q-84 0 -84 84z" />
    <glyph glyph-name="uniFB02" unicode="fl" horiz-adv-x="1265" 
d="M49 909v35q0 86 84 86h51v49q0 89 31 163.5t78 115.5q69 57 147 80.5t144 23.5h30q84 0 84 -86v-53q0 -78 -88 -84q-59 -3 -106 -29q-60 -35 -60 -141v-39h140q84 0 84 -86v-35q0 -86 -84 -86h-140v-737q0 -86 -86 -86h-90q-84 0 -84 86v737h-51q-84 0 -84 86zM819 326
v1042q0 86 84 86h90q84 0 84 -86v-1022q0 -116 82 -125q64 -6 64 -74v-69q0 -88 -86 -88q-121 0 -209 53q-52 33 -80.5 106t-28.5 177z" />
    <glyph glyph-name="uniFB03" unicode="ffi" horiz-adv-x="1902" 
d="M49 924v34q0 86 84 86h45l6 35q0 89 31 163.5t78 115.5q69 57 147 80.5t144 23.5h30q84 0 84 -86v-53q0 -78 -88 -84q-59 -3 -106 -29q-60 -35 -60 -141v-25h433v35q0 94 32 166.5t77.5 112t104 64.5t103 32.5t84.5 7.5h29q84 0 84 -86v-53q0 -78 -88 -84
q-61 -3 -107 -29q-59 -35 -59 -141v-25h551q86 0 86 -86v-872q0 -86 -86 -86h-89q-86 0 -86 86v752h-376v-752q0 -86 -86 -86h-88q-86 0 -86 86v752h-433v-752q0 -86 -86 -86h-90q-84 0 -84 86l-6 752h-45q-84 0 -84 86zM1513 1307v61q0 86 86 86h89q86 0 86 -86v-61
q0 -84 -86 -84h-89q-86 0 -86 84z" />
    <glyph glyph-name="uniFB04" unicode="ffl" horiz-adv-x="1957" 
d="M49 924v34q0 86 86 86h43l6 35q0 94 32 166.5t77.5 112t104.5 64.5t103.5 32.5t84.5 7.5h28q86 0 86 -86v-53q0 -78 -88 -84q-61 -3 -108 -29q-60 -35 -60 -141v-25h433v35q0 94 32 166.5t77.5 112t104 64.5t103 32.5t84.5 7.5h29q86 0 86 -86v-53q0 -78 -88 -84
q-63 -3 -107 -29q-61 -36 -61 -141v-25h139q86 0 86 -86v-34q0 -86 -74 -86h-151v-752q0 -86 -84 -86h-90q-86 0 -86 86v752h-433v-752q0 -86 -86 -86h-88q-86 0 -86 86l-6 752h-43q-86 0 -86 86zM1513 326v1042q0 86 84 86h91q84 0 84 -86v-1022q0 -116 81 -125
q64 -6 64 -74v-69q0 -88 -88 -88q-64 0 -110.5 11.5t-96.5 41.5q-52 33 -80.5 106t-28.5 177z" />
    <glyph glyph-name=".notdef" horiz-adv-x="748" 
d="M68 0v1365h544v-1365h-544zM136 68h408v1229h-408v-1229z" />
    <glyph glyph-name="glyph1" horiz-adv-x="0" 
 />
    <glyph glyph-name="glyph2" horiz-adv-x="682" 
 />
    <glyph glyph-name="space" unicode=" " horiz-adv-x="512" 
 />
    <glyph glyph-name="exclam" unicode="!" horiz-adv-x="552" 
d="M143 1366q0 88 84 88h97q87 0 84 -88l-17 -862q0 -84 -86 -84h-59q-83 0 -86 84zM152 86v72q0 86 84 86h81q86 0 86 -86v-72q0 -86 -86 -86h-81q-84 0 -84 86z" />
    <glyph glyph-name="quotedbl" unicode="&#x22;" horiz-adv-x="724" 
d="M102 1108v287q0 86 84 86h23q86 0 86 -86v-287q0 -84 -86 -84h-23q-84 0 -84 84zM430 1108v287q0 86 86 86h23q84 0 84 -86v-287q0 -84 -84 -84h-23q-86 0 -86 84z" />
    <glyph glyph-name="numbersign" unicode="#" horiz-adv-x="1425" 
d="M94 473l4 21q9 75 90 75h166l52 287h-150q-43 0 -63.5 24.5t-14.5 65.5l4 21q12 77 90 77h164l58 332q15 78 94 78h35q44 0 64.5 -24.5t12.5 -67.5l-55 -318h279l59 332q12 78 92 78h37q90 0 78 -92l-57 -318h153q44 0 65 -24.5t13 -67.5l-2 -18q-12 -78 -92 -78h-168
l-51 -287h151q90 0 78 -90l-4 -20q-12 -76 -92 -76h-164l-53 -305q-12 -78 -93 -78h-36q-44 0 -65 24.5t-13 67.5l51 291h-281l-51 -305q-15 -78 -94 -78h-37q-90 0 -78 92l52 291h-150q-93 0 -78 90zM563 569h279l51 287h-281z" />
    <glyph glyph-name="dollar" unicode="$" horiz-adv-x="1124" 
d="M121 1057q0 158 106 270q108 114 279 141v109q0 84 82 84h14q80 0 80 -72v-116q164 -12 297 -103q64 -40 25 -115l-35 -69q-41 -70 -117 -27q-122 76 -246 76q-94 0 -157.5 -49.5t-63.5 -124.5q0 -25 9 -47.5t30 -42t41.5 -34.5t57 -33t63 -30t72.5 -31.5t73 -31.5
q94 -46 166 -90q81 -46 130.5 -130.5t49.5 -189.5q0 -163 -106 -278q-108 -117 -289 -141v-103q0 -86 -80 -86h-14q-82 0 -82 72v117q-198 22 -348 139q-67 49 -15 119l45 63q48 66 119 19q145 -103 293 -103q94 0 153.5 47t59.5 129q0 114 -246 213q-113 48 -202 94
q-108 55 -176 147t-68 208z" />
    <glyph glyph-name="percent" unicode="%" horiz-adv-x="1622" 
d="M80 1155q0 131 96 227q102 97 238 97q133 0 235 -97q99 -94 99 -227q0 -135 -99 -229q-95 -95 -235 -95q-138 0 -238 95q-96 96 -96 229zM194 30.5q-14 30.5 19 73.5l995 1299q39 51 105 51h41q56 0 71 -30.5t-20 -73.5l-995 -1299q-39 -51 -105 -51h-43q-54 0 -68 30.5z
M279 1155q0 -57 39 -96t96 -39t97 39t40 96q0 56 -40 95.5t-97 39.5t-96 -39.5t-39 -95.5zM874 297q0 130 97 227q102 97 237 97q134 0 236 -97q98 -94 98 -227t-98 -227q-95 -95 -236 -95q-137 0 -237 95q-97 97 -97 227zM1073 299q0 -57 39 -96t96 -39t97.5 39t40.5 96
q0 56 -40.5 95.5t-97.5 39.5t-96 -39.5t-39 -95.5z" />
    <glyph glyph-name="ampersand" unicode="&#x26;" horiz-adv-x="1335" 
d="M80 412q0 120 67 221q66 100 181 141v4q-17 3 -66 41q-119 106 -119 277q0 183 129 282q128 101 330 101h86q86 0 86 -86v-52q0 -84 -86 -84h-67q-95 0 -153 -55.5t-58 -138.5q0 -85 54.5 -139t166.5 -54h231v105q0 84 86 84h88q86 0 86 -70v-119h103q86 0 86 -86v-57
q0 -86 -86 -86h-103v-172q0 -224 -139 -360q-140 -134 -385 -134q-231 0 -375 123q-143 125 -143 314zM350 428q0 -91 69.5 -151t178.5 -60q128 0 196 68t68 198v158h-246q-126 0 -196 -55t-70 -158z" />
    <glyph glyph-name="quotesingle" unicode="'" horiz-adv-x="397" 
d="M100 1139v256q0 86 86 86h27q84 0 84 -86v-256q0 -86 -84 -86h-27q-86 0 -86 86z" />
    <glyph glyph-name="parenleft" unicode="(" horiz-adv-x="583" 
d="M88 702q0 398 207 758q34 58 102 58h39q50 0 66.5 -28.5t-6.5 -72.5q-177 -357 -177 -717q0 -407 183 -794q21 -44 4 -72.5t-66 -28.5h-43q-69 0 -96 52q-213 387 -213 845z" />
    <glyph glyph-name="parenright" unicode=")" horiz-adv-x="583" 
d="M93.5 1489.5q15.5 28.5 64.5 28.5h43q68 0 102 -58q209 -361 209 -758q0 -456 -211 -839q-30 -58 -100 -58h-41q-49 0 -66 30.5t4 74.5q181 383 181 790q0 368 -177 717q-24 44 -8.5 72.5z" />
    <glyph glyph-name="asterisk" unicode="*" horiz-adv-x="960" 
d="M113 1149l16 51q27 87 107 51l167 -65l-10 178q-4 43 17.5 66.5t64.5 23.5h57q89 0 80 -88l-10 -180l166 65q87 35 111 -49l16 -51q27 -84 -57 -102l-176 -48v-4l112 -135q59 -65 -12 -121l-43 -30q-70 -55 -117 22l-96 150h-4l-94 -148q-47 -78 -119 -24l-43 30
q-72 54 -15 117l113 139v4l-170 46q-85 18 -61 102z" />
    <glyph glyph-name="plus" unicode="+" 
d="M86 569v31q0 86 86 86h356v399q0 86 86 86h41q84 0 84 -86v-399h359q84 0 84 -86v-31q0 -86 -84 -86h-359v-397q0 -86 -84 -86h-41q-86 0 -86 86v397h-356q-86 0 -86 86z" />
    <glyph glyph-name="comma" unicode="," horiz-adv-x="499" 
d="M55 -147l101 340q21 71 96 71h78q47 0 65.5 -28t-0.5 -72l-141 -342q-28 -66 -98 -66h-27q-47 0 -66.5 26t-7.5 71z" />
    <glyph glyph-name="hyphen" unicode="-" horiz-adv-x="854" 
d="M119 557v57q0 84 86 84h444q86 0 86 -84v-57q0 -86 -86 -86h-444q-86 0 -86 86z" />
    <glyph glyph-name="period" unicode="." horiz-adv-x="487" 
d="M113 86v92q0 84 86 84h90q86 0 86 -84v-92q0 -86 -86 -86h-90q-86 0 -86 86z" />
    <glyph glyph-name="slash" unicode="/" horiz-adv-x="831" 
d="M88 10l469 1448q24 70 98 70h45q47 0 66.5 -26t5.5 -70l-469 -1448q-21 -70 -96 -70h-47q-47 0 -66.5 26t-5.5 70z" />
    <glyph glyph-name="zero" unicode="0" horiz-adv-x="1277" 
d="M113 729q0 750 526 750q109 0 196 -33t147 -95t98.5 -143t58.5 -184q28 -137 28 -295q0 -331 -114 -532q-57 -105 -166 -164q-104 -58 -248 -58q-143 0 -250 58q-147 86 -210 262.5t-66 433.5zM383 729q0 -512 256 -512t256 512q0 506 -256 506t-256 -506z" />
    <glyph glyph-name="one" unicode="1" horiz-adv-x="1007" 
d="M111 86v57q0 84 84 84h231v807l2 99h-4q-18 -40 -55 -74l-64 -62q-63 -58 -119 4l-39 41q-59 59 3 121l258 248q49 43 106 43h86q84 0 84 -86v-1141h229q86 0 86 -84v-57q0 -86 -86 -86h-718q-84 0 -84 86z" />
    <glyph glyph-name="two" unicode="2" horiz-adv-x="1161" 
d="M88 86v43q0 106 37.5 198t97.5 158.5t132.5 124.5t145 107.5t132.5 96t97.5 100.5t37.5 112q0 91 -63 147t-158 56q-126 0 -215 -109q-65 -65 -121 -18l-55 43q-68 53 -23 115q168 219 436 219q198 0 336 -117q137 -113 137 -313q0 -94 -36 -176.5t-94 -142.5t-128 -113
t-140 -98.5t-129 -89.5t-96.5 -95.5t-39.5 -106.5h600q86 0 86 -84v-57q0 -86 -86 -86h-799q-42 0 -67 22.5t-25 63.5z" />
    <glyph glyph-name="three" unicode="3" horiz-adv-x="1146" 
d="M143 236l41 63q44 65 117 18q133 -92 262 -92q113 0 187.5 61.5t74.5 155.5q0 107 -86 166.5t-225 59.5h-31q-67 0 -94 59l-8 16q-28 60 18 111l224 264q37 46 90 99l14 12v4q-47 -6 -129 -6h-350q-84 0 -84 84v57q0 86 84 86h717q86 0 86 -84v-22q0 -66 -39 -105
l-318 -366q166 -21 281 -136q117 -111 117 -288q0 -195 -140 -338q-140 -140 -372 -140q-228 0 -420 142q-65 50 -17 119z" />
    <glyph glyph-name="four" unicode="4" horiz-adv-x="1243" 
d="M41 459v20q0 57 31 105l561 815q34 55 102 55h160q86 0 86 -86v-774h102q86 0 86 -84v-51q0 -84 -69 -84h-119v-289q0 -86 -86 -86h-90q-84 0 -84 86v289h-596q-84 0 -84 84zM319 594h402v450l10 152h-4q-41 -90 -72 -133l-336 -465v-4z" />
    <glyph glyph-name="five" unicode="5" horiz-adv-x="1146" 
d="M168 238l41 61q44 68 117 16q116 -90 241 -90q111 0 191 68q82 70 82 180q0 112 -81.5 182t-209.5 70q-81 0 -168 -37q-66 -22 -115 -4l-18 6q-70 27 -64 103l54 579q6 82 88 82h598q86 0 86 -86v-57q0 -84 -86 -84h-451l-22 -240l-11 -67h4q63 32 156 32q236 0 373 -137
q139 -139 139 -340q0 -215 -149 -358q-151 -142 -375 -142q-230 0 -408 146q-64 47 -12 117z" />
    <glyph glyph-name="six" unicode="6" horiz-adv-x="1226" 
d="M100 657q0 152 43 296.5t123 263.5q81 121 213.5 191.5t290.5 70.5q129 0 219 -33q79 -24 51 -109l-24 -67q-21 -72 -101 -56q-70 21 -131 21q-162 0 -262 -115q-99 -114 -129 -286h4q39 51 117.5 82.5t175.5 31.5q203 0 326 -135q125 -134 125 -332q0 -211 -135 -358
q-133 -148 -344 -148q-236 0 -400 185q-162 186 -162 497zM375 561q0 -115 84 -231q85 -113 203 -113q98 0 158.5 69.5t60.5 178.5q0 119 -73.5 192.5t-205.5 73.5q-99 0 -163 -47.5t-64 -122.5z" />
    <glyph glyph-name="seven" unicode="7" horiz-adv-x="1079" 
d="M51 1311v57q0 86 84 86h830q86 0 86 -84v-45q0 -56 -25 -104l-582 -1160q-34 -61 -102 -61h-92q-50 0 -67.5 28t5.5 72l496 994q40 81 72 118l10 15v4q-28 -4 -94 -4h-537q-84 0 -84 84z" />
    <glyph glyph-name="eight" unicode="8" horiz-adv-x="1239" 
d="M98 412q0 73 26.5 142t70.5 118q71 82 127 121q-166 117 -166 290q0 162 120 279t345 117q209 0 342 -109q135 -108 135 -285q0 -86 -37 -170q-23 -54 -47 -94t-39.5 -57.5t-40.5 -42.5q201 -121 201 -315q0 -174 -142 -304q-142 -127 -375 -127q-231 0 -376 127
q-144 126 -144 310zM362 440q0 -103 74.5 -169t184.5 -66q101 0 172 59t71 146q0 73 -76 135q-31 28 -122 67l-80 37l-86 37l-58 -53q-21 -21 -49 -76q-31 -60 -31 -117zM414 1079q0 -82 82 -145q38 -27 88 -51l49 -23l55 -24l57 -23l13 16q25 39 37 59t29.5 70t17.5 97
q0 91 -59 142.5t-160 51.5q-98 0 -153.5 -47.5t-55.5 -122.5z" />
    <glyph glyph-name="nine" unicode="9" horiz-adv-x="1226" 
d="M86 981q0 207 133 352q134 146 344 146q237 0 400 -187q163 -184 163 -495q0 -204 -71 -387t-228 -310q-155 -125 -370 -125q-129 0 -219 33q-79 24 -52 107l25 69q12 40 34.5 51t65.5 5q90 -23 131 -23q163 0 263 115q99 114 129 289h-5q-39 -51 -121.5 -84t-175.5 -33
q-194 0 -321 139q-125 137 -125 338zM348 987q0 -119 72.5 -192.5t204.5 -73.5q98 0 162.5 48.5t64.5 123.5q0 117 -86 229q-82 113 -201 113q-98 0 -157.5 -68.5t-59.5 -179.5z" />
    <glyph glyph-name="colon" unicode=":" horiz-adv-x="501" 
d="M123 86v88q0 86 84 86h88q86 0 86 -86v-88q0 -86 -86 -86h-88q-84 0 -84 86zM123 868v90q0 86 84 86h88q86 0 86 -86v-90q0 -84 -86 -84h-88q-84 0 -84 84z" />
    <glyph glyph-name="semicolon" unicode=";" horiz-adv-x="565" 
d="M86 -150l86 340q18 74 94 74h78q49 0 68 -27t0 -71l-125 -342q-21 -68 -99 -68h-28q-44 0 -64.5 25.5t-9.5 68.5zM193 866v92q0 86 83 86h84q86 0 86 -86v-92q0 -86 -86 -86h-84q-83 0 -83 86z" />
    <glyph glyph-name="less" unicode="&#x3c;" 
d="M115 573v25q0 74 63 100l821 365q44 20 72.5 1.5t28.5 -65.5v-47q0 -71 -68 -98l-643 -266v-4l643 -267q68 -27 68 -98v-47q0 -49 -28.5 -67t-72.5 1l-821 367q-63 26 -63 100z" />
    <glyph glyph-name="equal" unicode="=" 
d="M135 358v31q0 86 84 86h830q86 0 86 -86v-31q0 -84 -86 -84h-830q-84 0 -84 84zM135 780v31q0 84 84 84h830q86 0 86 -84v-31q0 -86 -86 -86h-830q-84 0 -84 86z" />
    <glyph glyph-name="greater" unicode="&#x3e;" 
d="M170 172v47q0 70 66 98l643 267v4l-643 266q-66 28 -66 98v47q0 48 27 66t71 -2l822 -365q65 -30 65 -100v-25q0 -73 -65 -100l-822 -364q-44 -20 -71 -2.5t-27 65.5z" />
    <glyph glyph-name="question" unicode="?" horiz-adv-x="960" 
d="M145 1274q-52 70 15 115q140 94 317 94q185 0 316 -107q133 -106 133 -278q0 -65 -18.5 -121.5t-48.5 -98.5t-66.5 -79t-73.5 -70t-69 -65t-54 -70.5t-27 -79.5l-4 -35q-15 -59 -82 -59h-82q-86 0 -86 84v33q0 60 25 115t62.5 93.5t81.5 79.5t81.5 75.5t62.5 79.5t25 93
q0 72 -56.5 121t-141.5 49q-68 0 -152 -41q-83 -44 -123 21zM315 86v72q0 86 86 86h82q84 0 84 -86v-72q0 -86 -84 -86h-82q-86 0 -86 86z" />
    <glyph glyph-name="at" unicode="@" horiz-adv-x="1658" 
d="M94 492q0 321 223 540q223 223 549 223q294 0 428 -125q136 -127 136 -321v-512h63q84 0 84 -84v-16q0 -86 -84 -86h-481q-202 0 -320 112q-121 115 -121 269t119 264t322 110h172q-1 79 -88.5 130t-221.5 51q-220 0 -370 -166q-152 -169 -152 -389q0 -212 129 -365
t344 -180q82 -12 82 -88v-33q0 -43 -23 -64.5t-65 -17.5q-325 27 -524 238q-201 213 -201 510zM829 498q0 -87 56 -144t143 -57h156v401h-152q-90 0 -146.5 -57t-56.5 -143z" />
    <glyph glyph-name="A" unicode="A" horiz-adv-x="1298" 
d="M49 98l455 1286q24 70 96 70h131q75 0 96 -70l455 -1286q8 -20 8 -37q0 -19 -10 -34q-20 -27 -68 -27h-94q-75 0 -96 70l-102 303h-510l-101 -301q-21 -72 -96 -72h-94q-47 0 -67 27q-10 14 -11 34q0 17 8 37zM475 588h379l-129 389l-57 225h-4q-35 -145 -58 -225z" />
    <glyph glyph-name="B" unicode="B" horiz-adv-x="1277" 
d="M168 86v1282q0 86 84 86h434q202 0 326 -100q125 -98 125 -275q0 -102 -47 -184t-129 -127v-4q109 -31 171 -126t62 -216q0 -209 -143 -316q-138 -106 -359 -106h-440q-84 0 -84 86zM430 227h283q97 0 154 58t57 153q0 93 -57 151t-154 58h-283v-420zM430 860h258
q83 0 130.5 51.5t47.5 135.5q0 83 -47.5 131.5t-136.5 48.5h-252v-367z" />
    <glyph glyph-name="C" unicode="C" horiz-adv-x="1441" 
d="M82 733q0 322 211 533q213 213 538 213q268 0 476 -146q36 -27 36 -63q0 -26 -20 -56l-37 -59q-24 -39 -60 -39q-25 0 -57 19q-156 102 -327 102q-229 0 -359 -145q-129 -144 -129 -355q0 -216 131 -368q134 -152 359 -152q179 0 356 127q32 24 59 24q34 0 60 -38l41 -56
q22 -29 22 -56q0 -33 -34 -62q-224 -181 -514 -181q-339 0 -545 215q-207 216 -207 543z" />
    <glyph glyph-name="D" unicode="D" horiz-adv-x="1490" 
d="M168 86v1282q0 86 84 86h412q342 0 540 -192q201 -195 201 -533q0 -339 -201 -534t-540 -195h-412q-84 0 -84 86zM430 227h219q227 0 355.5 131t128.5 371q0 236 -129.5 367t-354.5 131h-219v-1000z" />
    <glyph glyph-name="E" unicode="E" horiz-adv-x="1140" 
d="M168 86v1282q0 86 84 86h700q86 0 86 -86v-57q0 -84 -86 -84h-522v-381h406q86 0 86 -84v-57q0 -87 -86 -87h-406v-391h555q86 0 86 -84v-57q0 -86 -86 -86h-733q-84 0 -84 86z" />
    <glyph glyph-name="F" unicode="F" horiz-adv-x="1048" 
d="M168 86v1282q0 86 84 86h666q86 0 86 -86v-57q0 -84 -86 -84h-488v-412h397q86 0 86 -84v-57q0 -86 -86 -86h-397v-502q0 -86 -84 -86h-94q-84 0 -84 86z" />
    <glyph glyph-name="G" unicode="G" horiz-adv-x="1544" 
d="M82 721q0 325 213 541q211 217 539 217q146 0 271.5 -39.5t203.5 -93.5q37 -29 37 -64q0 -26 -19 -55l-37 -58q-26 -39 -64 -39q-25 0 -55 17q-159 90 -323 90q-230 0 -363 -145q-131 -143 -131 -359q0 -225 140 -371q142 -145 346 -145q88 0 168.5 28.5t121 57.5
t64.5 57l14 17v162h-139q-86 0 -86 86v55q0 86 86 86h291q84 0 84 -86v-594q0 -86 -84 -86h-51q-84 0 -84 70v34l2 35h-4q-25 -25 -70 -57q-57 -44 -148.5 -74t-207.5 -33q-297 0 -506 209q-209 212 -209 537z" />
    <glyph glyph-name="H" unicode="H" horiz-adv-x="1525" 
d="M168 86v1282q0 86 84 86h94q84 0 84 -86v-530h666v530q0 86 86 86h92q84 0 84 -86v-1282q0 -86 -84 -86h-92q-86 0 -86 86v524h-666v-524q0 -86 -84 -86h-94q-84 0 -84 86z" />
    <glyph glyph-name="I" unicode="I" horiz-adv-x="598" 
d="M168 86v1282q0 86 84 86h94q84 0 84 -86v-1282q0 -86 -84 -86h-94q-84 0 -84 86z" />
    <glyph glyph-name="J" unicode="J" horiz-adv-x="1095" 
d="M39 430q0 84 84 84h96q41 0 59 -18.5t23 -63.5q6 -100 54.5 -157.5t136.5 -57.5q85 0 136.5 55t51.5 162v793h-289q-86 0 -86 84v57q0 86 86 86h467q86 0 86 -86v-938q0 -223 -135 -340q-133 -115 -317 -115q-185 0 -320 117q-133 121 -133 338z" />
    <glyph glyph-name="K" unicode="K" horiz-adv-x="1286" 
d="M168 86v1282q0 86 84 86h94q84 0 84 -86v-506h191l307 533q35 59 100 59h100q51 0 68 -30q7 -12 7 -26q0 -21 -15 -46l-352 -590v-4l378 -656q16 -27 16 -48q0 -14 -7 -25q-17 -29 -68 -29h-113q-65 0 -100 59l-321 576h-191v-549q0 -86 -84 -86h-94q-84 0 -84 86z" />
    <glyph glyph-name="L" unicode="L" horiz-adv-x="1067" 
d="M168 86v1282q0 86 84 86h94q84 0 84 -86v-1141h543q86 0 86 -84v-57q0 -86 -86 -86h-721q-84 0 -84 86z" />
    <glyph glyph-name="M" unicode="M" horiz-adv-x="1746" 
d="M127 88l104 1284q9 82 88 82h130q72 0 96 -70l260 -649l74 -213h4q59 182 71 213l260 649q24 70 99 70h127q82 0 88 -82l104 -1284v-11q0 -77 -82 -77h-92q-82 0 -88 82l-55 731l-2 225h-4q-60 -182 -78 -225l-211 -496q-24 -67 -96 -67h-86q-75 0 -99 67l-209 496
l-79 227h-5q1 -54 1 -99q0 -76 -3 -128l-55 -731q-6 -82 -88 -82h-92q-82 0 -82 77v11z" />
    <glyph glyph-name="N" unicode="N" horiz-adv-x="1521" 
d="M168 86v1282q0 86 84 86h110q74 0 103 -57l516 -783q29 -44 102 -188l19 -37h4q-14 129 -14 225v754q0 86 86 86h92q86 0 86 -86v-1282q0 -86 -86 -86h-111q-71 0 -100 57l-518 781q-33 52 -103 188l-18 37h-4q14 -129 14 -225v-752q0 -86 -84 -86h-94q-84 0 -84 86z" />
    <glyph glyph-name="O" unicode="O" horiz-adv-x="1667" 
d="M82 737q0 318 211 529q213 213 541 213q325 0 538 -213t213 -529q0 -323 -213 -542q-214 -220 -538 -220q-327 0 -541 220q-211 217 -211 542zM354 737q0 -222 135 -372q139 -148 345 -148t342 148q137 149 137 372q0 214 -137 357q-134 143 -342 143t-345 -143
q-135 -144 -135 -357z" />
    <glyph glyph-name="P" unicode="P" horiz-adv-x="1236" 
d="M168 86v1282q0 86 84 86h475q206 0 334 -131q129 -132 129 -342q0 -211 -129 -346q-130 -133 -334 -133h-297v-416q0 -86 -84 -86h-94q-84 0 -84 86zM430 731h248q115 0 179.5 67t64.5 183q0 113 -64 179.5t-176 66.5h-252v-496z" />
    <glyph glyph-name="Q" unicode="Q" horiz-adv-x="1667" 
d="M82 735q0 316 213 529q212 215 539 215q325 0 538 -213t213 -531q0 -254 -160 -461l99 -92q35 -30 35 -63q0 -28 -27 -58l-37 -38q-32 -34 -62 -34q-26 0 -51 25l-104 105q-190 -144 -444 -144q-325 0 -539 220q-213 219 -213 540zM354 735q0 -220 138 -370
q139 -148 342 -148q143 0 253 78l-100 96q-34 29 -34 60q0 29 28 59l37 39q31 35 62 35q25 0 50 -25l103 -104q80 127 80 280q0 216 -137 359t-342 143t-342 -143q-138 -144 -138 -359z" />
    <glyph glyph-name="R" unicode="R" horiz-adv-x="1282" 
d="M168 86v1282q0 86 84 86h393q192 0 277 -39q114 -48 178.5 -152t64.5 -245q0 -132 -66 -242.5t-175 -154.5v-5q21 -25 47 -75l239 -439q16 -27 16 -48q0 -14 -7 -25q-17 -29 -68 -29h-111q-65 0 -100 59l-256 484h-254v-457q0 -86 -84 -86h-94q-84 0 -84 86zM430 772h238
q105 0 167 63t62 169q0 151 -115 198q-55 25 -157 25h-195v-455z" />
    <glyph glyph-name="S" unicode="S" horiz-adv-x="1124" 
d="M150 1057q0 187 139 305q138 117 350 117q109 0 210.5 -32.5t164.5 -78.5q41 -30 41 -68q0 -23 -15 -49l-36 -67q-24 -45 -64 -45q-24 0 -53 16q-139 80 -252 80q-102 0 -162 -45q-59 -47 -59 -119q0 -76 69 -127q41 -32 100.5 -61t141 -63.5t127.5 -57.5
q107 -51 173.5 -142.5t66.5 -213.5q0 -186 -131 -308q-129 -123 -351 -123q-127 0 -246.5 43t-199.5 105q-34 29 -34 63q0 27 22 56l45 65q26 35 63 35q25 0 55 -16q152 -107 295 -107q99 0 158 46t59 120q0 128 -239 227q-50 20 -84.5 34.5t-84.5 40t-84.5 49.5t-72.5 59
t-60.5 72t-37.5 87q-14 46 -14 96v7z" />
    <glyph glyph-name="T" unicode="T" horiz-adv-x="1239" 
d="M12 1311v57q0 86 86 86h1045q84 0 84 -86v-57q0 -84 -84 -84h-391v-1141q0 -86 -86 -86h-93q-84 0 -84 86v1141h-391q-86 0 -86 84z" />
    <glyph glyph-name="U" unicode="U" horiz-adv-x="1472" 
d="M152 522v846q0 86 84 86h92q86 0 86 -86v-844q0 -145 86 -226t235 -81t236.5 81t87.5 226v844q0 86 84 86h94q84 0 84 -86v-846q0 -246 -162 -395q-161 -152 -422 -152q-263 0 -426 150q-159 150 -159 397z" />
    <glyph glyph-name="V" unicode="V" horiz-adv-x="1306" 
d="M41 1356q-8 20 -8 37q1 19 11 34q20 27 67 27h108q75 0 96 -72l297 -876l56 -213h4q26 125 55 213l301 876q18 72 94 72h105q48 0 67 -27q10 -14 10 -33q0 -17 -8 -38l-465 -1288q-21 -68 -96 -68h-131q-75 0 -96 68z" />
    <glyph glyph-name="W" unicode="W" horiz-adv-x="1966" 
d="M82 1360q-4 15 -4 28q0 24 14 40q20 26 64 26h102q74 0 92 -76l211 -929l23 -154h4q9 73 30 154l242 931q21 74 96 74h70q77 0 92 -74l240 -931l31 -154h4q6 72 24 154l223 929q15 76 95 76h96q44 0 65 -26q14 -17 14 -42q0 -12 -3 -26l-334 -1288q-21 -72 -96 -72h-146
q-76 0 -94 74l-207 786l-39 191h-6q-14 -86 -37 -191l-209 -786q-18 -74 -94 -74h-147q-77 0 -95 74z" />
    <glyph glyph-name="X" unicode="X" horiz-adv-x="1245" 
d="M80 29q-6 11 -7 24q0 22 17 49l389 635l-373 615q-16 26 -16 48q0 12 6 24q16 30 68 30h115q65 0 100 -59l168 -297l90 -178h4q47 99 90 178l170 297q35 59 100 59h115q52 0 68 -30q6 -11 6 -24q0 -21 -16 -48l-375 -615l389 -635q17 -28 17 -49q0 -13 -6 -24
q-16 -29 -69 -29h-106q-65 0 -100 59l-195 332l-90 172h-4q-39 -84 -88 -172l-193 -332q-35 -59 -100 -59h-104q-54 0 -70 29z" />
    <glyph glyph-name="Y" unicode="Y" horiz-adv-x="1187" 
d="M44 1424q17 30 67 30h114q70 0 99 -63l196 -365l88 -195h4q54 130 88 195l197 365q29 63 98 63h115q51 0 68 -30q6 -11 6 -25q0 -21 -15 -47l-428 -744v-522q0 -86 -84 -86h-92q-86 0 -86 86v522l-426 744q-16 26 -16 47q0 14 7 25z" />
    <glyph glyph-name="Z" unicode="Z" horiz-adv-x="1230" 
d="M63 86v25q0 58 35 108l611 877q49 74 92 116l14 15v4q-54 -4 -108 -4h-525q-86 0 -86 84v57q0 86 86 86h881q84 0 84 -84v-24q0 -65 -33 -109l-612 -879q-50 -73 -92 -116l-15 -15v-4q54 4 109 4h567q86 0 86 -84v-57q0 -86 -86 -86h-921q-87 0 -87 86z" />
    <glyph glyph-name="bracketleft" unicode="[" horiz-adv-x="620" 
d="M147 -109v1543q0 84 86 84h234q86 0 86 -84v-19q0 -86 -80 -86h-102v-1335h96q86 0 86 -86v-17q0 -86 -86 -86h-234q-86 0 -86 86z" />
    <glyph glyph-name="backslash" unicode="\" horiz-adv-x="831" 
d="M88 1432q-14 44 5.5 70t66.5 26h45q74 0 98 -70l467 -1448q14 -45 -4.5 -70.5t-65.5 -25.5h-47q-74 0 -98 70z" />
    <glyph glyph-name="bracketright" unicode="]" horiz-adv-x="620" 
d="M70 -92q0 86 84 86h98v1335h-98q-84 0 -84 86v19q0 84 84 84h235q84 0 84 -84v-1543q0 -86 -84 -86h-235q-84 0 -84 86v17z" />
    <glyph glyph-name="asciicircum" unicode="^" 
d="M192.5 529.5q-18.5 27.5 0.5 70.5l342 789q27 65 98 65h22q74 0 101 -65l340 -789q19 -43 1 -70.5t-67 -27.5h-45q-71 0 -98 67l-242 611l-244 -611q-21 -67 -98 -67h-43q-49 0 -67.5 27.5z" />
    <glyph glyph-name="underscore" unicode="_" horiz-adv-x="1155" 
d="M2 -86q0 86 86 86h979q84 0 84 -86v-31q0 -84 -84 -84h-979q-86 0 -86 84v31z" />
    <glyph glyph-name="grave" unicode="`" horiz-adv-x="1009" 
d="M363.5 1798q12.5 31 66.5 31h76q65 0 100 -60l72 -124q24 -35 12.5 -65t-53.5 -30h-53q-62 0 -105 52l-92 124q-36 41 -23.5 72z" />
    <glyph glyph-name="a" unicode="a" horiz-adv-x="1075" 
d="M49 289q0 106 59 181.5t160 111.5q178 63 391 63h43v25q0 184 -194 184q-105 0 -217 -59q-27 -12 -49 -12q-43 0 -66 46l-20 39q-14 26 -14 48q0 40 46 67q170 86 342 86q203 0 318 -110t115 -306v-567q0 -86 -86 -86h-70q-84 0 -84 86v41l4 45h-4q-24 -40 -49 -70
q-113 -127 -279 -127q-142 0 -245 86q-101 88 -101 228zM307 311q0 -57 43.5 -97t114.5 -40q104 0 172 86t68 189v38h-43q-355 0 -355 -176z" />
    <glyph glyph-name="b" unicode="b" horiz-adv-x="1234" 
d="M129 86v1282q0 86 86 86h88q86 0 86 -86v-379l-6 -88h4l5 9q5 8 15 19.5t27 28.5q39 46 108 77t165 34q206 0 333 -151t127 -394q0 -247 -135 -397q-137 -152 -342 -152q-64 0 -121 17.5t-94 45t-60 51t-34 44.5l-10 19h-4q4 -20 4 -46v-32q0 -74 -86 -74h-70
q-86 0 -86 86zM381 522q0 -136 68 -231q72 -96 190 -96q115 0 189.5 88t74.5 235q0 148 -71 238t-187 90q-115 0 -189.5 -85.5t-74.5 -238.5z" />
    <glyph glyph-name="c" unicode="c" horiz-adv-x="1085" 
d="M63 522q0 231 156 387q157 160 412 160q193 0 342 -104q36 -25 36 -59q0 -26 -20 -58l-26 -41q-25 -37 -64 -37q-23 0 -51 14q-94 64 -203 64q-141 0 -229 -94q-88 -91 -88 -230q0 -137 90 -233q88 -94 235 -94q121 0 234 79q30 17 54 17q39 0 63 -43l20 -39
q16 -27 16 -51q0 -37 -39 -64q-165 -121 -370 -121q-256 0 -412 156t-156 391z" />
    <glyph glyph-name="d" unicode="d" horiz-adv-x="1234" 
d="M68 522q0 247 131 396q133 151 342 151q118 0 196 -45t99 -90l10 -14h4q-4 36 -4 59v389q0 86 84 86h90q84 0 84 -86v-1282q0 -86 -84 -86h-76q-84 0 -84 78v41l4 37h-4q-1 -1 -4.5 -8t-6.5 -12t-12.5 -17t-23.5 -27q-41 -48 -112.5 -82.5t-168.5 -34.5q-209 0 -337 152
q-127 151 -127 395zM330 522q0 -148 71.5 -237.5t188.5 -89.5q115 0 188.5 85.5t73.5 243.5q0 131 -68 226q-69 96 -192 96q-113 0 -187.5 -89t-74.5 -235z" />
    <glyph glyph-name="e" unicode="e" horiz-adv-x="1118" 
d="M66 522q0 243 147 393q148 154 383 154q216 0 340 -139q123 -138 123 -359q0 -35 -26.5 -61.5t-63.5 -26.5h-637q12 -132 99 -209t214 -77q118 0 225 67q28 14 51 14q40 0 64 -42l25 -41q15 -27 15 -49q0 -39 -44 -66q-163 -105 -354 -105q-250 0 -408 158
q-153 159 -153 389zM338 641h463q-1 105 -60 168t-151 63q-98 0 -165.5 -62.5t-86.5 -168.5z" />
    <glyph glyph-name="f" unicode="f" horiz-adv-x="692" 
d="M49 909v35q0 86 84 86h51v49q0 89 31 163.5t78 115.5q69 57 147 80.5t144 23.5h30q84 0 84 -86v-53q0 -78 -88 -84q-59 -3 -106 -29q-60 -35 -60 -141v-39h140q84 0 84 -86v-35q0 -86 -84 -86h-140v-737q0 -86 -86 -86h-90q-84 0 -84 86v737h-51q-84 0 -84 86z" />
    <glyph glyph-name="g" unicode="g" horiz-adv-x="1218" 
d="M70 551q0 227 123 371q123 147 348 147q68 0 125 -16t91.5 -40t55 -46t29.5 -41l8 -17h4q-2 6 -2 27v39q0 32 22 50.5t62 18.5h70q84 0 84 -86v-895q0 -248 -162 -370q-159 -123 -379 -123q-177 0 -305 55q-55 25 -55 69q0 19 10 42l16 47q26 53 74 53q16 0 35 -6
q101 -39 211 -39q136 0 215 64t79 190v78l5 53h-5q-89 -156 -286 -156q-220 0 -348 152q-125 149 -125 379zM332 561q0 -147 70 -234t192 -87q110 0 176 75.5t66 229.5q0 303 -254 303q-117 0 -183.5 -77.5t-66.5 -209.5z" />
    <glyph glyph-name="h" unicode="h" horiz-adv-x="1226" 
d="M129 86v1282q0 86 86 86h88q86 0 86 -86v-422l-6 -88h4q45 89 144 150t219 61q364 0 364 -397v-586q0 -86 -86 -86h-88q-86 0 -86 86v532q0 108 -37.5 160.5t-126.5 52.5q-137 0 -219 -98q-82 -94 -82 -248v-399q0 -86 -86 -86h-88q-86 0 -86 86z" />
    <glyph glyph-name="i" unicode="i" horiz-adv-x="516" 
d="M129 86v872q0 86 84 86h90q84 0 84 -86v-872q0 -86 -84 -86h-90q-84 0 -84 86zM129 1307v61q0 86 84 86h90q86 0 86 -86v-61q0 -84 -86 -84h-90q-84 0 -84 84z" />
    <glyph glyph-name="j" unicode="j" horiz-adv-x="518" 
d="M-125 -285q0 41 21 59t63 25q34 4 58 11.5t52.5 26.5t44 57.5t15.5 95.5v968q0 86 86 86h88q86 0 86 -86v-985q0 -81 -22 -146.5t-59 -107t-79.5 -71.5t-90 -44.5t-83 -21t-65.5 -6.5h-31q-84 0 -84 86v53zM129 1307v61q0 86 86 86h90q84 0 84 -86v-61q0 -84 -84 -84h-90
q-86 0 -86 84z" />
    <glyph glyph-name="k" unicode="k" horiz-adv-x="1091" 
d="M129 86v1282q0 86 86 86h88q86 0 86 -86v-692h129l217 311q34 57 103 57h98q50 0 66 -30q5 -11 6 -23q0 -22 -19 -49l-260 -364v-5l307 -471q16 -27 16 -49q0 -13 -6 -24q-16 -29 -67 -29h-111q-65 0 -100 59l-244 398h-135v-371q0 -86 -86 -86h-88q-86 0 -86 86z" />
    <glyph glyph-name="l" unicode="l" horiz-adv-x="571" 
d="M127 326v1042q0 86 84 86h90q84 0 84 -86v-1022q0 -116 82 -125q63 -6 63 -74v-69q0 -88 -86 -88q-120 0 -208 53q-52 33 -80.5 106t-28.5 177z" />
    <glyph glyph-name="m" unicode="m" horiz-adv-x="1839" 
d="M129 86v872q0 86 84 86h80q84 0 84 -86v-63l-4 -47h4q45 92 139.5 156.5t202.5 64.5q240 0 305 -215h4q46 91 144.5 153t211.5 62q342 0 342 -397v-586q0 -86 -86 -86h-88q-86 0 -86 86v537q0 108 -31 158t-112 50q-127 0 -197 -108q-69 -106 -69 -254v-383
q0 -86 -84 -86h-90q-86 0 -86 86v537q0 107 -30 157.5t-110 50.5q-129 0 -200 -108q-70 -107 -70 -254v-383q0 -86 -84 -86h-90q-84 0 -84 86z" />
    <glyph glyph-name="n" unicode="n" horiz-adv-x="1226" 
d="M129 86v872q0 86 84 86h80q84 0 84 -86v-63l-4 -47h4q47 95 143 158t228 63q364 0 364 -397v-586q0 -86 -86 -86h-88q-86 0 -86 86v532q0 108 -37.5 160.5t-126.5 52.5q-137 0 -219 -98t-82 -244v-403q0 -86 -84 -86h-90q-84 0 -84 86z" />
    <glyph glyph-name="o" unicode="o" horiz-adv-x="1273" 
d="M63 522q0 238 166 391q167 156 408 156t407 -156q168 -155 168 -391q0 -238 -168 -393q-168 -154 -407 -154q-240 0 -408 154q-166 156 -166 393zM328 522q0 -144 88 -235q90 -90 221 -90t221 90q90 93 90 235t-92 234q-89 92 -219 92t-219 -92q-90 -93 -90 -234z" />
    <glyph glyph-name="p" unicode="p" horiz-adv-x="1234" 
d="M129 -324v1282q0 86 86 86h66q41 0 62.5 -19t21.5 -52v-47l-3 -41h5q22 37 47 63q113 121 288 121q211 0 338 -151t127 -396q0 -247 -135 -397t-344 -150q-60 0 -113 16t-88 40.5t-56 46t-34 41.5l-10 16h-4q6 -37 6 -90v-369q0 -86 -86 -86h-88q-86 0 -86 86zM381 516
q0 -133 70 -227t190 -94q115 0 188.5 88t73.5 235q0 148 -71 238t-187 90t-190 -86t-74 -244z" />
    <glyph glyph-name="q" unicode="q" horiz-adv-x="1234" 
d="M68 522q0 245 133 396t344 151q66 0 123 -17t94 -44t59.5 -50t34.5 -45l10 -16h4q-4 20 -4 41v37q0 31 22.5 50t63.5 19h68q84 0 84 -86v-1282q0 -86 -84 -86h-90q-84 0 -84 86v379l4 90h-4q0 -2 -9.5 -18t-34 -42t-59 -50t-93 -41.5t-126.5 -18.5q-201 0 -329 152
q-127 151 -127 395zM330 522q0 -148 71.5 -237.5t188.5 -89.5q115 0 188.5 85.5t73.5 243.5q0 131 -68 226q-69 96 -192 96q-113 0 -187.5 -89t-74.5 -235z" />
    <glyph glyph-name="r" unicode="r" horiz-adv-x="768" 
d="M129 86v872q0 86 84 86h80q86 0 86 -86v-98l-6 -72h4q35 106 117 185q83 80 186 80q78 0 78 -86v-80q0 -86 -88 -86q-136 0 -209 -113q-74 -112 -74 -266v-336q0 -86 -84 -86h-90q-84 0 -84 86z" />
    <glyph glyph-name="s" unicode="s" horiz-adv-x="915" 
d="M135 199l25 37q26 36 63 36q24 0 53 -16q135 -72 234 -72q67 0 106 28.5t39 78.5q0 75 -182 135q-55 18 -92.5 32t-88 42.5t-81 61t-52.5 83t-22 111.5q0 147 113 229q116 84 287 84q153 0 290 -76q44 -23 44 -64q0 -22 -13 -50l-20 -37q-23 -45 -66 -45q-22 0 -49 12
q-111 51 -199 51q-141 0 -141 -102q0 -43 48 -74.5t134 -60.5q52 -15 92 -30.5t89 -43.5t81 -61q31 -32 53 -82q21 -48 21 -104v-5q0 -140 -110 -231q-111 -91 -287 -91q-193 0 -348 107q-43 25 -43 60q0 26 22 57z" />
    <glyph glyph-name="t" unicode="t" horiz-adv-x="745" 
d="M47 909v35q0 86 86 86h60v213q0 86 86 86h81q86 0 86 -86v-213h152q86 0 86 -86v-35q0 -86 -84 -86h-154v-405q0 -177 168 -195q48 -5 67 -23.5t19 -60.5v-63q0 -86 -106 -86q-163 0 -285 94q-123 95 -123 289v450h-55q-84 0 -84 86z" />
    <glyph glyph-name="u" unicode="u" horiz-adv-x="1216" 
d="M115 373v585q0 86 86 86h88q86 0 86 -86v-532q0 -108 37 -160.5t125 -52.5q137 0 213 102q79 101 79 250v393q0 86 86 86h89q86 0 86 -86v-872q0 -86 -86 -86h-80q-84 0 -84 86v61l4 48h-4q-43 -92 -143 -156t-220 -64q-362 0 -362 398z" />
    <glyph glyph-name="v" unicode="v" horiz-adv-x="1064" 
d="M53 946q-8 21 -8 38q0 19 10 33q19 27 66 27h96q75 0 96 -71l195 -576l39 -157h4q14 91 37 157l194 576q21 71 97 71h96q48 0 67 -27q10 -14 10 -33q0 -17 -8 -38l-315 -876q-21 -70 -96 -70h-164q-75 0 -96 70z" />
    <glyph glyph-name="w" unicode="w" horiz-adv-x="1658" 
d="M57 948q-5 16 -5 30q0 24 13 40q20 26 64 26h98q77 0 92 -75l168 -611l21 -110h4q10 62 23 110l176 611q15 73 94 73h78q76 0 94 -73l174 -611l23 -110h4q12 71 22 110l166 611q18 75 94 75h94q44 0 64 -26q12 -17 12 -40q0 -14 -4 -30l-268 -876q-21 -72 -96 -72h-138
q-78 0 -96 74l-158 522l-24 113h-4q-5 -30 -27 -113l-158 -522q-18 -74 -94 -74h-141q-73 0 -94 72z" />
    <glyph glyph-name="x" unicode="x" horiz-adv-x="1019" 
d="M76 30q-5 10 -6 21q0 22 20 51l279 426l-271 414q-20 28 -20 50q0 12 6 22q16 30 70 30h104q66 0 100 -61l131 -223l33 -66h4l33 66l131 223q34 61 101 61h104q53 0 69 -30q5 -10 6 -21q0 -22 -20 -51l-268 -414l279 -426q18 -27 18 -48q-1 -12 -7 -24q-18 -30 -69 -30
h-98q-65 0 -100 59l-150 244l-29 55h-4q-18 -40 -28 -55l-148 -244q-35 -59 -100 -59h-101q-53 0 -69 30z" />
    <glyph glyph-name="y" unicode="y" horiz-adv-x="1052" 
d="M39 1016q18 28 67 28h111q73 0 96 -69l197 -533l39 -141h4q8 39 35 137l184 535q21 71 96 71h103q48 0 67 -27q10 -14 10 -33q0 -17 -8 -38l-430 -1102q-50 -133 -150.5 -203.5t-226.5 -70.5q-63 0 -145 31q-37 13 -48 44q-3 11 -3 23q0 20 12 43l19 45q22 50 68 50
q11 0 24 -3q41 -18 73 -18q52 0 96 38.5t70 100.5l39 92l-397 928q-11 23 -11 42q0 17 9 30z" />
    <glyph glyph-name="z" unicode="z" horiz-adv-x="1044" 
d="M57 70v20q0 50 37 96l432 541l88 96v4q-36 -4 -96 -4h-354q-86 0 -86 86v49q0 86 86 86h717q86 0 86 -69v-21q0 -50 -37 -96l-432 -543q-27 -35 -78 -86l-12 -10v-4q30 6 98 6h389q86 0 86 -86v-49q0 -86 -86 -86h-752q-86 0 -86 70z" />
    <glyph glyph-name="braceleft" unicode="{" horiz-adv-x="702" 
d="M49 631v80q0 35 13 52t45 38q7 4 10 6q106 46 106 194v175q0 102 34 176.5t91 107.5q101 64 189 64h26q86 0 86 -86v-31q0 -84 -86 -84q-119 0 -119 -174v-215q0 -57 -16.5 -105t-43.5 -77.5t-47.5 -45.5t-41.5 -26l-19 -6v-4q21 -5 58 -31q45 -28 77.5 -85t32.5 -142
v-240q0 -172 119 -172q86 0 86 -86v-31q0 -86 -86 -86h-26q-88 0 -189 64q-57 33 -91 108t-34 176v199q0 135 -104 193q-39 21 -54.5 40.5t-15.5 53.5z" />
    <glyph glyph-name="bar" unicode="|" horiz-adv-x="514" 
d="M145 -246v1790q0 86 86 86h52q86 0 86 -86v-1790q0 -84 -86 -84h-52q-86 0 -86 84z" />
    <glyph glyph-name="braceright" unicode="}" horiz-adv-x="704" 
d="M53 -86q0 86 86 86q119 0 119 172v240q0 58 17 106.5t42.5 77.5t49 45.5t43.5 22.5l16 6v4q-14 4 -59 33q-109 78 -109 227v215q0 174 -119 174q-86 0 -86 84v31q0 86 86 86h27q87 0 188 -64q57 -33 91 -107.5t34 -176.5v-175q0 -148 107 -194q43 -29 53 -43
q14 -19 14 -53v-80q0 -34 -15 -53.5t-54 -40.5q-105 -59 -105 -193v-199q0 -101 -34 -176t-91 -108q-101 -64 -188 -64h-27q-86 0 -86 86v31z" />
    <glyph glyph-name="asciitilde" unicode="~" horiz-adv-x="1214" 
d="M113 514q43 266 305 266q65 0 123.5 -27.5t91.5 -66.5q84 -92 162 -92q80 0 114 100q18 43 37 60.5t53 17.5h41q43 0 65.5 -24t16.5 -66q-38 -283 -307 -283q-65 0 -122 27t-93 66q-84 92 -164 92q-83 0 -110 -101q-19 -42 -38.5 -58.5t-54.5 -16.5h-40q-44 0 -65.5 28
t-14.5 78z" />
    <glyph glyph-name="uni00A0" unicode="&#xa0;" horiz-adv-x="512" 
 />
    <glyph glyph-name="exclamdown" unicode="&#xa1;" horiz-adv-x="536" 
d="M139 -324l17 863q0 84 86 84h59q83 0 86 -84l16 -863q0 -88 -84 -88h-96q-87 0 -84 88zM143 885v71q0 86 86 86h82q84 0 84 -86v-71q0 -86 -84 -86h-82q-86 0 -86 86z" />
    <glyph glyph-name="cent" unicode="&#xa2;" horiz-adv-x="1153" 
d="M86 727q0 221 119 383q118 160 313 195v86q0 86 82 86h14q82 0 82 -68v-104q109 -18 207 -91q98 -70 146 -161q40 -75 -45 -111l-78 -31q-21 -8 -37 -9t-29.5 6.5t-23 16t-23.5 25.5q-77 115 -195 115q-121 0 -195.5 -94t-74.5 -248q0 -151 72.5 -242.5t195.5 -91.5
q120 0 197 115q51 62 113 41l78 -31q83 -35 45 -113q-46 -88 -146 -165q-96 -75 -207 -84v-93q0 -84 -82 -84h-14q-82 0 -82 84v93q-194 35 -313 192q-119 162 -119 383z" />
    <glyph glyph-name="sterling" unicode="&#xa3;" horiz-adv-x="1210" 
d="M106 86v57q0 84 84 84h43v410h-34q-78 0 -78 82v12q0 84 78 84h34v248q0 182 132 299t333 117q157 0 299 -95q69 -48 11 -118l-39 -52q-46 -57 -121 -16q-74 41 -143 41q-90 0 -146.5 -52t-56.5 -132v-240h276q84 0 84 -84v-12q0 -82 -84 -82h-276v-410h551q86 0 86 -84
v-57q0 -86 -86 -86h-863q-84 0 -84 86z" />
    <glyph glyph-name="yen" unicode="&#xa5;" horiz-adv-x="1228" 
d="M94.5 1425.5q17.5 28.5 67.5 28.5h119q72 0 96 -68l166 -321l88 -234h4q36 106 88 234l164 321q24 68 96 68h117q51 0 68.5 -28.5t-5.5 -71.5l-266 -494h117q84 0 84 -72v-12q0 -71 -84 -71h-197l-51 -99v-67h248q84 0 84 -72v-12q0 -74 -84 -74h-248v-295q0 -86 -86 -86
h-98q-84 0 -84 86v295h-250q-84 0 -84 74v12q0 72 84 72h250v67l-54 99h-196q-84 0 -84 71v12q0 72 74 72h127l-265 494q-23 43 -5.5 71.5z" />
    <glyph glyph-name="section" unicode="&#xa7;" horiz-adv-x="958" 
d="M160 1104q0 168 113 271.5t307 103.5q148 0 276 -78q70 -41 18 -117l-22 -31q-40 -59 -117 -24q-73 37 -153 37q-97 0 -154 -49t-57 -144q0 -50 14 -102l119 -594q11 -43 -9.5 -68.5t-64.5 -25.5h-31q-76 0 -94 73l-131 631q-14 52 -14 117zM166 68l20 34q41 65 117 25
q76 -43 160 -43q96 0 153.5 53.5t57.5 153.5q0 55 -19 117l-110 567q-12 43 7.5 68.5t63.5 25.5h31q76 0 94 -74l129 -630q15 -71 15 -117q0 -168 -113 -271.5t-307 -103.5q-155 0 -277 78q-69 43 -22 117z" />
    <glyph glyph-name="dieresis" unicode="&#xa8;" horiz-adv-x="1009" 
d="M217 1677v68q0 84 86 84h29q86 0 86 -84v-68q0 -86 -86 -86h-29q-86 0 -86 86zM594 1677v68q0 84 84 84h31q84 0 84 -84v-68q0 -86 -84 -86h-31q-84 0 -84 86z" />
    <glyph glyph-name="copyright" unicode="&#xa9;" horiz-adv-x="1654" 
d="M92 727q0 311 213 530q217 220 520 220q304 0 521 -220q217 -217 217 -530q0 -312 -217 -532t-521 -220q-303 0 -520 220q-213 222 -213 532zM274 727q0 -244 158 -416q159 -170 393 -170q235 0 394 170q161 167 161 416q0 247 -161 414q-159 170 -394 170
q-234 0 -393 -170q-158 -172 -158 -414zM451 723q0 166 108 283q110 116 281 116q96 0 172 -43q73 -42 112 -96q38 -53 -8 -90l-31 -27q-25 -18 -52 -12t-48 31q-61 67 -141 67q-92 0 -148.5 -65t-56.5 -168q0 -99 55 -162t150 -63q93 0 151 73q46 49 90 13l29 -25
q49 -40 8 -94q-110 -137 -282 -137q-174 0 -281 116q-108 117 -108 283z" />
    <glyph glyph-name="ordfeminine" unicode="&#xaa;" horiz-adv-x="815" 
d="M111 987q0 223 381 223h16v15q0 106 -117 106q-57 0 -106 -24q-72 -27 -95 24l-6 15q-28 61 47 90q85 39 187 39q132 0 203 -70.5t71 -196.5v-325q0 -86 -78 -86h-6q-78 0 -78 80v28h-4q-2 -5 -6.5 -13t-21.5 -29t-37.5 -37t-55 -29t-73.5 -13q-93 0 -157 56t-64 147z
M113 610v11q0 63 86 63h415q86 0 86 -63v-11q0 -65 -86 -65h-415q-86 0 -86 65zM295 997q0 -31 22.5 -50t59.5 -19q54 0 91.5 44.5t37.5 102.5v15h-23q-188 0 -188 -93z" />
    <glyph glyph-name="guillemotleft" unicode="&#xab;" horiz-adv-x="1134" 
d="M150 518q-50 60 0 119l247 313q43 49 105 49h51q54 0 68 -30.5t-19 -73.5l-252 -317l252 -316q35 -43 22.5 -73.5t-63.5 -30.5h-59q-62 0 -105 49zM610 518q-50 60 0 119l248 313q43 49 105 49h49q55 0 69.5 -30.5t-20.5 -73.5l-252 -317l252 -316q35 -43 23.5 -73.5
t-62.5 -30.5h-59q-62 0 -105 49z" />
    <glyph glyph-name="logicalnot" unicode="&#xac;" horiz-adv-x="1251" 
d="M111 780v31q0 84 84 84h829q86 0 86 -84v-432q0 -86 -86 -86h-39q-84 0 -84 86v315h-706q-84 0 -84 86z" />
    <glyph glyph-name="uni00AD" unicode="&#xad;" horiz-adv-x="854" 
d="M119 557v57q0 84 86 84h444q86 0 86 -84v-57q0 -86 -86 -86h-444q-86 0 -86 86z" />
    <glyph glyph-name="registered" unicode="&#xae;" horiz-adv-x="1654" 
d="M92 727q0 311 213 530q217 220 518 220q308 0 525 -220q215 -218 215 -530q0 -311 -215 -532q-217 -220 -525 -220q-301 0 -518 220q-213 222 -213 532zM274 727q0 -244 158 -416q159 -170 391 -170q237 0 396 170q161 167 161 416q0 247 -161 414q-159 170 -396 170
q-232 0 -391 -170q-158 -172 -158 -414zM567 442v578q0 86 86 86h226q112 0 178.5 -64.5t66.5 -173.5q0 -75 -39.5 -128t-91.5 -66v-4q10 -10 27 -43l88 -170q23 -44 10.5 -72.5t-53.5 -28.5h-27q-71 0 -98 64l-98 213h-101v-191q0 -86 -79 -86h-15q-80 0 -80 86zM741 756
h97q51 0 79.5 29t28.5 83q0 111 -104 111h-101v-223z" />
    <glyph glyph-name="macron" unicode="&#xaf;" horiz-adv-x="1009" 
d="M238 1686v14q0 82 84 82h366q86 0 86 -82v-14q0 -82 -86 -82h-366q-84 0 -84 82z" />
    <glyph glyph-name="degree" unicode="&#xb0;" horiz-adv-x="802" 
d="M68 1157q0 131 96 227q102 97 237 97q134 0 236 -97q98 -94 98 -227q0 -135 -98 -229q-95 -92 -236 -92q-137 0 -237 92q-96 96 -96 229zM266 1157q0 -57 39 -96t96 -39t97.5 39t40.5 96q0 56 -40.5 95.5t-97.5 39.5t-96 -39.5t-39 -95.5z" />
    <glyph glyph-name="plusminus" unicode="&#xb1;" 
d="M86 569v31q0 86 86 86h356v399q0 86 86 86h41q84 0 84 -86v-399h359q84 0 84 -86v-31q0 -86 -84 -86h-359v-397q0 -86 -84 -86h-41q-86 0 -86 86v397h-356q-86 0 -86 86zM115 -260q0 86 84 86h870q86 0 86 -86v-31q0 -84 -86 -84h-870q-84 0 -84 84v31z" />
    <glyph glyph-name="uni00B2" unicode="&#xb2;" horiz-adv-x="751" 
d="M53 952q0 92 42 170t108 125q28 20 79.5 53t88 58.5t61.5 50.5q65 62 39 125q-21 50 -80 66q-74 19 -143 -33q-71 -47 -117 -4l-10 8q-68 59 -4 117q107 98 248 98q129 0 217 -76q92 -74 92 -203q0 -69 -29 -126t-73 -93t-96 -70t-96.5 -58.5t-76.5 -56.5t-35 -67h334
q86 0 86 -80v-10q0 -80 -86 -80h-463q-86 0 -86 86z" />
    <glyph glyph-name="uni00B3" unicode="&#xb3;" horiz-adv-x="741" 
d="M115 1040l10 13q41 55 111 18q65 -47 139 -47q62 0 103.5 37t41.5 92q0 52 -43.5 84.5t-105.5 32.5h-23q-59 0 -80 47q-20 48 27 98l115 131l49 49v4q-41 -6 -72 -6h-180q-84 0 -84 82v11q0 79 84 79h403q86 0 86 -61v-12q0 -50 -41 -97l-161 -184q102 -19 162.5 -87.5
t60.5 -172.5q0 -126 -92 -215q-90 -90 -240 -90q-144 0 -254 84q-62 41 -16 110z" />
    <glyph glyph-name="acute" unicode="&#xb4;" horiz-adv-x="1009" 
d="M350 1578q-15 28 8 69l72 122q35 60 100 60h74q55 0 68 -31t-23 -72l-92 -124q-43 -52 -104 -52h-43q-45 0 -60 28z" />
    <glyph glyph-name="mu" unicode="&#xb5;" horiz-adv-x="1304" 
d="M158 -324v1282q0 86 86 86h88q86 0 86 -86v-532q0 -108 37 -160.5t125 -52.5q136 0 213 102q79 101 79 250v393q0 86 86 86h89q86 0 86 -86v-872q0 -86 -86 -86h-80q-84 0 -84 86v59l2 48h-4q-43 -81 -133 -148q-94 -70 -230 -70q-42 0 -79.5 10t-51.5 23l-14 10h-4
q14 -95 14 -170v-172q0 -86 -84 -86h-55q-86 0 -86 86z" />
    <glyph glyph-name="paragraph" unicode="&#xb6;" horiz-adv-x="1269" 
d="M70 975q0 202 141 340q142 139 340 139h541q84 0 84 -86v-57q0 -84 -84 -84h-351v-1243q0 -86 -84 -86h-20q-84 0 -84 86v510q-197 0 -342 139q-141 141 -141 342zM868 -16v1044q0 86 86 86h19q86 0 86 -86v-1044q0 -86 -86 -86h-19q-86 0 -86 86z" />
    <glyph glyph-name="periodcentered" unicode="&#xb7;" horiz-adv-x="493" 
d="M121 551v94q0 84 84 84h84q86 0 86 -84v-94q0 -84 -86 -84h-84q-84 0 -84 84z" />
    <glyph glyph-name="cedilla" unicode="&#xb8;" horiz-adv-x="1009" 
d="M340 -356q0 32 12 51.5t31 19.5q7 0 27 -3t24 -3q76 0 76 60q0 50 -92 59q-46 3 -31 63l41 150h129l-29 -131q69 -8 109.5 -48t40.5 -108q0 -90 -61 -135t-160 -45q-117 0 -117 70z" />
    <glyph glyph-name="uni00B9" unicode="&#xb9;" horiz-adv-x="649" 
d="M84 946v10q0 80 72 80h114v424l6 58h-4q-5 -10 -28 -33l-33 -31q-35 -30 -74 6l-22 23q-55 57 10 116l125 123q49 43 104 43h27q84 0 84 -86v-643h102q84 0 84 -80v-10q0 -80 -84 -80h-399q-84 0 -84 80z" />
    <glyph glyph-name="ordmasculine" unicode="&#xba;" horiz-adv-x="915" 
d="M98 1133q0 149 105 243q105 99 254 99q151 0 256 -99q104 -94 104 -243q0 -150 -104 -248q-105 -99 -256 -99q-149 0 -254 99t-105 248zM129 610v11q0 63 84 63h492q83 0 83 -63v-11q0 -65 -83 -65h-492q-84 0 -84 65zM285 1133q0 -79 49.5 -131t122.5 -52q74 0 124 52
t50 131q0 78 -50 129t-124 51q-73 0 -122.5 -51.5t-49.5 -128.5z" />
    <glyph glyph-name="guillemotright" unicode="&#xbb;" horiz-adv-x="1134" 
d="M110.5 968.5q12.5 30.5 63.5 30.5h59q62 0 105 -49l248 -313q50 -59 0 -119l-248 -311q-43 -49 -105 -49h-51q-54 0 -68 30.5t19 73.5l252 316l-252 317q-35 43 -22.5 73.5zM571.5 968.5q12.5 30.5 63.5 30.5h59q62 0 105 -49l245 -313q50 -59 0 -119l-245 -311
q-43 -49 -105 -49h-51q-55 0 -69.5 30.5t20.5 73.5l252 316l-252 317q-35 43 -22.5 73.5z" />
    <glyph glyph-name="onequarter" unicode="&#xbc;" horiz-adv-x="1976" 
d="M119 637v10q0 80 71 80h115v424l6 57h-4q-4 -8 -28 -32l-33 -31q-35 -30 -74 6l-22 23q-55 57 10 116l125 123q49 43 104 43h27q84 0 84 -86v-643h102q84 0 84 -80v-10q0 -80 -84 -80h-399q-84 0 -84 80zM587.5 28q-12.5 28 8.5 72l612 1291q29 63 99 63h28
q41 0 53.5 -28t-8.5 -72l-612 -1291q-29 -63 -98 -63h-29q-41 0 -53.5 28zM1200 268v23q0 42 31 90l319 463q40 55 103 55h69q86 0 86 -86v-442h54q71 0 71 -78v-10q0 -80 -71 -80h-54v-117q0 -86 -86 -86h-20q-86 0 -86 86v117h-332q-84 0 -84 65zM1397 371h219v225l8 113
h-4q-22 -50 -53 -97l-170 -237v-4z" />
    <glyph glyph-name="onehalf" unicode="&#xbd;" horiz-adv-x="1943" 
d="M111 637v10q0 80 71 80h115v424l6 57h-4q-3 -6 -29 -32l-32 -31q-35 -30 -74 6l-23 23q-54 57 11 116l124 123q49 43 105 43h27q84 0 84 -86v-643h102q84 0 84 -80v-10q0 -80 -84 -80h-399q-84 0 -84 80zM585.5 28q-12.5 28 8.5 72l612 1291q29 63 99 63h28
q41 0 53.5 -28t-8.5 -72l-612 -1291q-29 -63 -98 -63h-29q-41 0 -53.5 28zM1253 86q0 92 42 170t108 125q28 20 79.5 53t88 58.5t61.5 50.5q65 62 39 125q-21 50 -80 65q-74 19 -143 -33q-71 -47 -117 -4l-10 9q-67 58 -4 116q108 99 248 99q129 0 217 -76q92 -74 92 -203
q0 -69 -29 -126t-73 -93t-96 -70t-96.5 -58.5t-76.5 -56.5t-35 -67h334q86 0 86 -80v-10q0 -80 -86 -80h-463q-86 0 -86 86z" />
    <glyph glyph-name="threequarters" unicode="&#xbe;" horiz-adv-x="2000" 
d="M147 731l11 12q41 56 110 19q65 -47 140 -47q62 0 103.5 37t41.5 92q0 52 -44 84.5t-106 32.5h-22q-59 0 -80 47q-20 48 27 98l114 131l50 49v4q-40 -6 -72 -6h-180q-84 0 -84 82v10q0 80 84 80h403q86 0 86 -61v-13q0 -49 -41 -96l-162 -184q102 -19 163 -87.5
t61 -172.5q0 -125 -93 -215q-90 -90 -239 -90q-144 0 -254 84q-62 41 -17 110zM630.5 28q-12.5 28 8.5 72l612 1291q29 63 99 63h28q41 0 53.5 -28t-8.5 -72l-612 -1291q-29 -63 -98 -63h-29q-41 0 -53.5 28zM1243 268v23q0 42 31 90l319 463q40 55 103 55h69q86 0 86 -86
v-442h54q71 0 71 -78v-10q0 -80 -71 -80h-54v-117q0 -86 -86 -86h-20q-86 0 -86 86v117h-332q-84 0 -84 65zM1440 371h219v225l8 113h-4q-22 -50 -53 -97l-170 -237v-4z" />
    <glyph glyph-name="questiondown" unicode="&#xbf;" horiz-adv-x="956" 
d="M94 -55q0 65 18.5 121.5t48.5 98t66.5 78.5t73.5 70t69 65t54 70.5t27 79.5l4 35q15 60 82 60h81q87 0 87 -84v-33q0 -60 -25 -115t-62.5 -93.5t-81.5 -80t-81.5 -75.5t-62.5 -79.5t-25 -93.5q0 -72 56.5 -121t141.5 -49q68 0 152 41q83 44 123 -20l34 -51
q52 -70 -14 -115q-140 -94 -317 -94q-186 0 -316 106q-133 106 -133 279zM453 885v71q0 86 84 86h81q87 0 87 -86v-71q0 -86 -87 -86h-81q-84 0 -84 86z" />
    <glyph glyph-name="Agrave" unicode="&#xc0;" horiz-adv-x="1298" 
d="M49 98l455 1286q24 70 96 70h131q75 0 96 -70l455 -1286q17 -44 -2.5 -71t-67.5 -27h-94q-75 0 -96 70l-102 303h-510l-101 -301q-21 -72 -96 -72h-94q-48 0 -67.5 27t-2.5 71zM410.5 1798q12.5 31 66.5 31h76q65 0 100 -60l72 -124q24 -35 12.5 -65t-53.5 -30h-53
q-62 0 -105 52l-92 124q-36 41 -23.5 72zM475 588h379l-129 389l-57 225h-4q-35 -145 -58 -225z" />
    <glyph glyph-name="Aacute" unicode="&#xc1;" horiz-adv-x="1298" 
d="M49 98l455 1286q24 70 96 70h131q75 0 96 -70l455 -1286q17 -44 -2.5 -71t-67.5 -27h-94q-75 0 -96 70l-102 303h-510l-101 -301q-21 -72 -96 -72h-94q-48 0 -67.5 27t-2.5 71zM475 588h379l-129 389l-57 225h-4q-35 -145 -58 -225zM596 1578q-15 28 8 69l72 122
q35 60 100 60h74q55 0 68 -31t-23 -72l-92 -124q-43 -52 -105 -52h-43q-44 0 -59 28z" />
    <glyph glyph-name="Acircumflex" unicode="&#xc2;" horiz-adv-x="1298" 
d="M49 98l455 1286q24 70 96 70h131q75 0 96 -70l455 -1286q17 -44 -2.5 -71t-67.5 -27h-94q-75 0 -96 70l-102 303h-510l-101 -301q-21 -72 -96 -72h-94q-48 0 -67.5 27t-2.5 71zM398 1580.5q-11 30.5 18 74.5l82 119q37 55 105 55h127q67 0 104 -55l82 -119
q29 -44 18 -74.5t-55 -30.5h-53q-33 0 -50.5 12.5t-39.5 47.5l-68 106h-4l-70 -106q-35 -60 -88 -60h-53q-44 0 -55 30.5zM475 588h379l-129 389l-57 225h-4q-35 -145 -58 -225z" />
    <glyph glyph-name="Atilde" unicode="&#xc3;" horiz-adv-x="1298" 
d="M49 98l455 1286q24 70 96 70h131q75 0 96 -70l455 -1286q17 -44 -2.5 -71t-67.5 -27h-94q-75 0 -96 70l-102 303h-510l-101 -301q-21 -72 -96 -72h-94q-48 0 -67.5 27t-2.5 71zM301 1630q0 86 58.5 144.5t148.5 58.5q46 0 91 -21t74.5 -45.5t61 -45.5t53.5 -21
q66 0 72 80q3 47 74 47h20q76 0 76 -70q0 -94 -57.5 -152.5t-149.5 -58.5q-46 0 -91.5 21t-74 45.5t-60 45.5t-54.5 21q-69 0 -78 -82q-6 -45 -70 -45h-20q-74 0 -74 78zM475 588h379l-129 389l-57 225h-4q-35 -145 -58 -225z" />
    <glyph glyph-name="Adieresis" unicode="&#xc4;" horiz-adv-x="1298" 
d="M49 98l455 1286q24 70 96 70h131q75 0 96 -70l455 -1286q17 -44 -2.5 -71t-67.5 -27h-94q-75 0 -96 70l-102 303h-510l-101 -301q-21 -72 -96 -72h-94q-48 0 -67.5 27t-2.5 71zM377 1677v68q0 84 86 84h29q86 0 86 -84v-68q0 -86 -86 -86h-29q-86 0 -86 86zM475 588h379
l-129 389l-57 225h-4q-35 -145 -58 -225zM754 1677v68q0 84 84 84h31q84 0 84 -84v-68q0 -86 -84 -86h-31q-84 0 -84 86z" />
    <glyph glyph-name="Aring" unicode="&#xc5;" horiz-adv-x="1298" 
d="M49 98l455 1286q24 70 96 70h131q75 0 96 -70l455 -1286q17 -44 -2.5 -71t-67.5 -27h-94q-75 0 -96 70l-102 303h-510l-101 -301q-21 -72 -96 -72h-94q-48 0 -67.5 27t-2.5 71zM471 1686q0 73 56.5 117t138.5 44q81 0 136.5 -44t55.5 -117q0 -72 -56 -116t-136 -44
q-82 0 -138.5 44t-56.5 116zM475 588h379l-129 389l-57 225h-4q-35 -145 -58 -225zM596 1686q0 -31 19 -50.5t51 -19.5q31 0 50 19.5t19 50.5q0 44 -34.5 62.5t-69.5 0t-35 -62.5z" />
    <glyph glyph-name="AE" unicode="&#xc6;" horiz-adv-x="1816" 
d="M37 27.5q-18 27.5 2 70.5l534 1291q24 65 99 65h977q84 0 84 -86v-57q0 -84 -84 -84h-523v-381h406q84 0 84 -84v-57q0 -87 -84 -87h-406v-391h553q84 0 84 -84v-57q0 -86 -84 -86h-731q-86 0 -86 86v537h-346l-219 -557q-28 -66 -96 -66h-99q-47 0 -65 27.5zM600 838
h262v389h-106z" />
    <glyph glyph-name="Ccedilla" unicode="&#xc7;" horiz-adv-x="1445" 
d="M84 733q0 322 211 533q213 213 539 213q267 0 475 -146q63 -48 16 -119l-37 -59q-40 -67 -117 -20q-159 102 -327 102q-229 0 -359 -145q-129 -144 -129 -355q0 -216 131 -368q134 -152 359 -152q179 0 356 127q72 54 119 -14l41 -56q50 -65 -12 -118
q-206 -167 -478 -179l-14 -67q69 -8 109.5 -48t40.5 -108q0 -90 -61.5 -135t-160.5 -45q-116 0 -116 70q0 32 12 51.5t31 19.5q5 0 24 -3t27 -3q76 0 76 60q0 50 -92 59q-46 3 -31 63l24 89q-297 30 -479 239q-178 211 -178 514z" />
    <glyph glyph-name="Egrave" unicode="&#xc8;" horiz-adv-x="1140" 
d="M168 86v1282q0 86 84 86h700q86 0 86 -86v-57q0 -84 -86 -84h-522v-381h406q86 0 86 -84v-57q0 -87 -86 -87h-406v-391h555q86 0 86 -84v-57q0 -86 -86 -86h-733q-84 0 -84 86zM367.5 1798q12.5 31 66.5 31h76q65 0 100 -60l72 -124q24 -35 12.5 -65t-53.5 -30h-53
q-62 0 -105 52l-92 124q-36 41 -23.5 72z" />
    <glyph glyph-name="Eacute" unicode="&#xc9;" horiz-adv-x="1140" 
d="M168 86v1282q0 86 84 86h700q86 0 86 -86v-57q0 -84 -86 -84h-522v-381h406q86 0 86 -84v-57q0 -87 -86 -87h-406v-391h555q86 0 86 -84v-57q0 -86 -86 -86h-733q-84 0 -84 86zM551 1578q-15 28 8 69l72 122q35 60 100 60h74q55 0 68 -31t-23 -72l-92 -124
q-43 -52 -105 -52h-43q-44 0 -59 28z" />
    <glyph glyph-name="Ecircumflex" unicode="&#xca;" horiz-adv-x="1140" 
d="M168 86v1282q0 86 84 86h700q86 0 86 -86v-57q0 -84 -86 -84h-522v-381h406q86 0 86 -84v-57q0 -87 -86 -87h-406v-391h555q86 0 86 -84v-57q0 -86 -86 -86h-733q-84 0 -84 86zM353 1580.5q-11 30.5 18 74.5l82 119q37 55 104 55h127q67 0 104 -55l82 -119
q29 -44 18.5 -74.5t-54.5 -30.5h-54q-33 0 -50.5 12.5t-39.5 47.5l-67 106h-5l-69 -106q-35 -60 -88 -60h-53q-44 0 -55 30.5z" />
    <glyph glyph-name="Edieresis" unicode="&#xcb;" horiz-adv-x="1140" 
d="M168 86v1282q0 86 84 86h700q86 0 86 -86v-57q0 -84 -86 -84h-522v-381h406q86 0 86 -84v-57q0 -87 -86 -87h-406v-391h555q86 0 86 -84v-57q0 -86 -86 -86h-733q-84 0 -84 86zM334 1677v68q0 84 86 84h29q86 0 86 -84v-68q0 -86 -86 -86h-29q-86 0 -86 86zM711 1677v68
q0 84 84 84h31q84 0 84 -84v-68q0 -86 -84 -86h-31q-84 0 -84 86z" />
    <glyph glyph-name="Igrave" unicode="&#xcc;" horiz-adv-x="598" 
d="M60.5 1798q12.5 31 66.5 31h76q65 0 100 -60l72 -124q24 -35 12.5 -65t-53.5 -30h-53q-62 0 -105 52l-92 124q-36 41 -23.5 72zM180 86v1282q0 86 84 86h94q84 0 84 -86v-1282q0 -86 -84 -86h-94q-84 0 -84 86z" />
    <glyph glyph-name="Iacute" unicode="&#xcd;" horiz-adv-x="598" 
d="M168 86v1282q0 86 84 86h94q84 0 84 -86v-1282q0 -86 -84 -86h-94q-84 0 -84 86zM232 1578q-15 28 8 69l71 122q35 60 101 60h73q55 0 68 -31t-23 -72l-92 -124q-43 -52 -104 -52h-43q-44 0 -59 28z" />
    <glyph glyph-name="Icircumflex" unicode="&#xce;" horiz-adv-x="598" 
d="M43 1580.5q-11 30.5 18 74.5l82 119q37 55 105 55h127q67 0 104 -55l82 -119q29 -44 18 -74.5t-55 -30.5h-53q-33 0 -50.5 12.5t-39.5 47.5l-68 106h-4l-69 -106q-35 -60 -88 -60h-54q-44 0 -55 30.5zM178 86v1282q0 86 84 86h94q84 0 84 -86v-1282q0 -86 -84 -86h-94
q-84 0 -84 86z" />
    <glyph glyph-name="Idieresis" unicode="&#xcf;" horiz-adv-x="598" 
d="M14 1677v68q0 84 86 84h29q86 0 86 -84v-68q0 -86 -86 -86h-29q-86 0 -86 86zM168 86v1282q0 86 84 86h94q84 0 84 -86v-1282q0 -86 -84 -86h-94q-84 0 -84 86zM391 1677v68q0 84 84 84h31q84 0 84 -84v-68q0 -86 -84 -86h-31q-84 0 -84 86z" />
    <glyph glyph-name="Eth" unicode="&#xd0;" horiz-adv-x="1492" 
d="M51 702v43q0 86 51 86h68v537q0 86 86 86h410q342 0 540 -192q201 -195 201 -533q0 -339 -201 -534t-540 -195h-410q-86 0 -86 86v530h-33q-86 0 -86 86zM432 227h219q227 0 355.5 131t128.5 371q0 236 -129.5 367t-354.5 131h-219v-396h186q84 0 84 -86v-43
q0 -86 -79 -86h-191v-389z" />
    <glyph glyph-name="Ntilde" unicode="&#xd1;" horiz-adv-x="1521" 
d="M168 86v1282q0 86 84 86h110q74 0 103 -57l516 -783q29 -44 102 -188l19 -37h4q-14 129 -14 225v754q0 86 86 86h92q86 0 86 -86v-1282q0 -86 -86 -86h-111q-71 0 -100 57l-518 781q-33 52 -103 188l-18 37h-4q14 -129 14 -225v-752q0 -86 -84 -86h-94q-84 0 -84 86z
M397 1630q0 86 58.5 144.5t148.5 58.5q46 0 91 -21t74.5 -45.5t61.5 -45.5t54 -21q65 0 71 80q3 47 74 47h21q75 0 75 -70q0 -94 -57 -152.5t-149 -58.5q-46 0 -91.5 21t-74.5 45.5t-60.5 45.5t-54.5 21q-69 0 -78 -82q-6 -45 -69 -45h-21q-74 0 -74 78z" />
    <glyph glyph-name="Ograve" unicode="&#xd2;" horiz-adv-x="1667" 
d="M82 737q0 318 211 529q213 213 541 213q325 0 538 -213t213 -529q0 -323 -213 -542q-214 -220 -538 -220q-327 0 -541 220q-211 217 -211 542zM354 737q0 -222 135 -372q139 -148 345 -148t342 148q137 149 137 372q0 214 -137 357q-134 143 -342 143t-345 -143
q-135 -144 -135 -357zM578.5 1798q12.5 31 66.5 31h76q65 0 100 -60l72 -124q24 -35 12.5 -65t-53.5 -30h-53q-62 0 -105 52l-92 124q-36 41 -23.5 72z" />
    <glyph glyph-name="Oacute" unicode="&#xd3;" horiz-adv-x="1667" 
d="M82 737q0 318 211 529q213 213 541 213q325 0 538 -213t213 -529q0 -323 -213 -542q-214 -220 -538 -220q-327 0 -541 220q-211 217 -211 542zM354 737q0 -222 135 -372q139 -148 345 -148t342 148q137 149 137 372q0 214 -137 357q-134 143 -342 143t-345 -143
q-135 -144 -135 -357zM764 1578q-15 28 8 69l72 122q35 60 100 60h74q55 0 68 -31t-23 -72l-92 -124q-43 -52 -105 -52h-43q-44 0 -59 28z" />
    <glyph glyph-name="Ocircumflex" unicode="&#xd4;" horiz-adv-x="1667" 
d="M82 737q0 318 211 529q213 213 541 213q325 0 538 -213t213 -529q0 -323 -213 -542q-214 -220 -538 -220q-327 0 -541 220q-211 217 -211 542zM354 737q0 -222 135 -372q139 -148 345 -148t342 148q137 149 137 372q0 214 -137 357q-134 143 -342 143t-345 -143
q-135 -144 -135 -357zM566 1580.5q-11 30.5 18 74.5l82 119q37 55 104 55h127q67 0 104 -55l82 -119q29 -44 18.5 -74.5t-54.5 -30.5h-54q-33 0 -50.5 12.5t-39.5 47.5l-67 106h-5l-69 -106q-35 -60 -88 -60h-53q-44 0 -55 30.5z" />
    <glyph glyph-name="Otilde" unicode="&#xd5;" horiz-adv-x="1667" 
d="M82 737q0 318 211 529q213 213 541 213q325 0 538 -213t213 -529q0 -323 -213 -542q-214 -220 -538 -220q-327 0 -541 220q-211 217 -211 542zM354 737q0 -222 135 -372q139 -148 345 -148t342 148q137 149 137 372q0 214 -137 357q-134 143 -342 143t-345 -143
q-135 -144 -135 -357zM469 1630q0 86 58.5 144.5t148.5 58.5q46 0 91 -21t74.5 -45.5t61 -45.5t53.5 -21q66 0 72 80q3 47 74 47h20q76 0 76 -70q0 -94 -57.5 -152.5t-149.5 -58.5q-46 0 -91.5 21t-74 45.5t-60 45.5t-54.5 21q-69 0 -78 -82q-6 -45 -70 -45h-20
q-74 0 -74 78z" />
    <glyph glyph-name="Odieresis" unicode="&#xd6;" horiz-adv-x="1667" 
d="M82 737q0 318 211 529q213 213 541 213q325 0 538 -213t213 -529q0 -323 -213 -542q-214 -220 -538 -220q-327 0 -541 220q-211 217 -211 542zM354 737q0 -222 135 -372q139 -148 345 -148t342 148q137 149 137 372q0 214 -137 357q-134 143 -342 143t-345 -143
q-135 -144 -135 -357zM545 1677v68q0 84 86 84h29q86 0 86 -84v-68q0 -86 -86 -86h-29q-86 0 -86 86zM922 1677v68q0 84 84 84h31q84 0 84 -84v-68q0 -86 -84 -86h-31q-84 0 -84 86z" />
    <glyph glyph-name="multiply" unicode="&#xd7;" 
d="M205 205l346 381l-346 381q-55 63 2 120l20 23q64 61 121 -2l340 -375l340 375q57 63 121 2l22 -23q57 -57 3 -120l-349 -381l349 -381q55 -63 -3 -121l-22 -23q-63 -63 -121 2l-340 373l-340 -373q-58 -65 -121 -2l-20 23q-57 57 -2 121z" />
    <glyph glyph-name="Oslash" unicode="&#xd8;" horiz-adv-x="1665" 
d="M82 735q0 314 215 529q218 215 537 215q199 0 372 -95l39 58q54 66 111 26q56 -44 22 -86l-53 -77q124 -105 192 -252.5t68 -317.5q0 -323 -217 -540q-217 -220 -534 -220q-218 0 -392 107l-45 -68q-52 -66 -110 -26q-60 41 -19 94l60 84q-246 225 -246 569zM354 735
q0 -210 129 -354l574 797q-109 59 -223 59q-203 0 -340 -143q-140 -146 -140 -359zM590 287q110 -70 244 -70q201 0 340 148q139 151 139 370q0 215 -142 357z" />
    <glyph glyph-name="Ugrave" unicode="&#xd9;" horiz-adv-x="1472" 
d="M152 522v846q0 86 84 86h92q86 0 86 -86v-844q0 -145 86 -226t235 -81t236.5 81t87.5 226v844q0 86 84 86h94q84 0 84 -86v-846q0 -246 -162 -395q-161 -152 -422 -152q-263 0 -426 150q-159 150 -159 397zM480.5 1798q12.5 31 66.5 31h76q65 0 100 -60l72 -124
q24 -35 12.5 -65t-53.5 -30h-53q-62 0 -105 52l-92 124q-36 41 -23.5 72z" />
    <glyph glyph-name="Uacute" unicode="&#xda;" horiz-adv-x="1472" 
d="M152 522v846q0 86 84 86h92q86 0 86 -86v-844q0 -145 86 -226t235 -81t236.5 81t87.5 226v844q0 86 84 86h94q84 0 84 -86v-846q0 -246 -162 -395q-161 -152 -422 -152q-263 0 -426 150q-159 150 -159 397zM666 1578q-15 28 8 69l71 122q35 60 101 60h74q55 0 68 -31
t-23 -72l-93 -124q-43 -52 -104 -52h-43q-44 0 -59 28z" />
    <glyph glyph-name="Ucircumflex" unicode="&#xdb;" horiz-adv-x="1472" 
d="M152 522v846q0 86 84 86h92q86 0 86 -86v-844q0 -145 86 -226t235 -81t236.5 81t87.5 226v844q0 86 84 86h94q84 0 84 -86v-846q0 -246 -162 -395q-161 -152 -422 -152q-263 0 -426 150q-159 150 -159 397zM467 1580.5q-11 30.5 18 74.5l82 119q37 55 105 55h127
q67 0 104 -55l82 -119q29 -44 18 -74.5t-55 -30.5h-53q-33 0 -50.5 12.5t-39.5 47.5l-68 106h-4l-69 -106q-35 -60 -89 -60h-53q-44 0 -55 30.5z" />
    <glyph glyph-name="Udieresis" unicode="&#xdc;" horiz-adv-x="1472" 
d="M152 522v846q0 86 84 86h92q86 0 86 -86v-844q0 -145 86 -226t235 -81t236.5 81t87.5 226v844q0 86 84 86h94q84 0 84 -86v-846q0 -246 -162 -395q-161 -152 -422 -152q-263 0 -426 150q-159 150 -159 397zM448 1677v68q0 84 86 84h29q86 0 86 -84v-68q0 -86 -86 -86h-29
q-86 0 -86 86zM825 1677v68q0 84 84 84h31q84 0 84 -84v-68q0 -86 -84 -86h-31q-84 0 -84 86z" />
    <glyph glyph-name="Yacute" unicode="&#xdd;" horiz-adv-x="1187" 
d="M44 1424.5q17 29.5 67 29.5h114q70 0 99 -63l196 -365l88 -195h4q54 130 88 195l197 365q29 63 98 63h115q51 0 67.5 -29.5t-8.5 -72.5l-428 -744v-522q0 -86 -84 -86h-92q-86 0 -86 86v522l-426 744q-26 43 -9 72.5zM540 1578q-15 28 8 69l72 122q35 60 100 60h74
q55 0 68 -31t-23 -72l-92 -124q-43 -52 -104 -52h-43q-45 0 -60 28z" />
    <glyph glyph-name="Thorn" unicode="&#xde;" horiz-adv-x="1241" 
d="M168 86v1282q0 86 84 86h94q84 0 84 -84v-151h297q205 0 334 -132t129 -342q0 -212 -129 -344q-130 -133 -336 -133h-295v-182q0 -86 -84 -86h-94q-84 0 -84 86zM430 496h248q115 0 179.5 66.5t64.5 182.5q0 115 -63.5 180.5t-176.5 65.5h-252v-495z" />
    <glyph glyph-name="germandbls" unicode="&#xdf;" horiz-adv-x="1222" 
d="M129 86v997q0 184 141 289q140 107 334 107q178 0 299 -103q123 -102 123 -254q2 -45 -17 -90t-47 -80.5t-55.5 -68t-46 -64t-16.5 -57.5q0 -60 164 -170q69 -45 117.5 -120t48.5 -157q0 -158 -107 -243q-109 -86 -262 -86q-105 0 -207 30q-70 15 -70 95v51q0 92 78 71
q77 -26 162 -26q64 0 103.5 31t39.5 92q0 41 -47.5 89t-118.5 91q-67 42 -115 109t-48 137q0 50 26.5 101.5t63.5 88.5q92 92 92 172q0 59 -46 99t-122 40q-92 0 -149.5 -49.5t-57.5 -142.5v-979q0 -86 -86 -86h-88q-86 0 -86 86z" />
    <glyph glyph-name="agrave" unicode="&#xe0;" horiz-adv-x="1075" 
d="M49 289q0 106 59 181.5t160 111.5q178 63 391 63h43v25q0 184 -194 184q-105 0 -217 -59q-81 -35 -115 34l-20 39q-39 74 32 115q170 86 342 86q203 0 318 -110t115 -306v-567q0 -86 -86 -86h-70q-84 0 -84 86v41l4 45h-4q-24 -40 -49 -70q-113 -127 -279 -127
q-142 0 -245 86q-101 88 -101 228zM285.5 1423q12.5 31 66.5 31h76q65 0 100 -60l72 -124q24 -35 12.5 -65t-53.5 -30h-53q-62 0 -105 52l-92 124q-36 41 -23.5 72zM307 311q0 -57 43.5 -97t114.5 -40q104 0 172 86t68 189v38h-43q-355 0 -355 -176z" />
    <glyph glyph-name="aacute" unicode="&#xe1;" horiz-adv-x="1075" 
d="M49 289q0 106 59 181.5t160 111.5q178 63 391 63h43v25q0 184 -194 184q-105 0 -217 -59q-81 -35 -115 34l-20 39q-39 74 32 115q170 86 342 86q203 0 318 -110t115 -306v-567q0 -86 -86 -86h-70q-84 0 -84 86v41l4 45h-4q-24 -40 -49 -70q-113 -127 -279 -127
q-142 0 -245 86q-101 88 -101 228zM307 311q0 -57 43.5 -97t114.5 -40q104 0 172 86t68 189v38h-43q-355 0 -355 -176zM465 1205q-15 29 8 67l72 123q35 59 100 59h74q55 0 68 -30.5t-23 -71.5l-92 -125q-42 -51 -105 -51h-43q-44 0 -59 29z" />
    <glyph glyph-name="acircumflex" unicode="&#xe2;" horiz-adv-x="1075" 
d="M49 289q0 106 59 181.5t160 111.5q178 63 391 63h43v25q0 184 -194 184q-105 0 -217 -59q-81 -35 -115 34l-20 39q-39 74 32 115q170 86 342 86q203 0 318 -110t115 -306v-567q0 -86 -86 -86h-70q-84 0 -84 86v41l4 45h-4q-24 -40 -49 -70q-113 -127 -279 -127
q-142 0 -245 86q-101 88 -101 228zM269 1206q-11 30 18 74l82 119q37 55 104 55h127q68 0 105 -55l81 -119q29 -44 18.5 -74t-54.5 -30h-54q-34 0 -51 12.5t-39 46.5l-67 106h-4l-70 -106q-35 -59 -88 -59h-53q-44 0 -55 30zM307 311q0 -57 43.5 -97t114.5 -40q104 0 172 86
t68 189v38h-43q-355 0 -355 -176z" />
    <glyph glyph-name="atilde" unicode="&#xe3;" horiz-adv-x="1075" 
d="M49 289q0 106 59 181.5t160 111.5q178 63 391 63h43v25q0 184 -194 184q-105 0 -217 -59q-81 -35 -115 34l-20 39q-39 74 32 115q170 86 342 86q203 0 318 -110t115 -306v-567q0 -86 -86 -86h-70q-84 0 -84 86v41l4 45h-4q-24 -40 -49 -70q-113 -127 -279 -127
q-142 0 -245 86q-101 88 -101 228zM172 1255q0 86 58.5 144.5t148.5 58.5q49 0 94.5 -19.5t71.5 -47.5q66 -66 114 -66q66 0 72 80q3 47 74 47h20q76 0 76 -70q0 -94 -57.5 -152.5t-149.5 -58.5q-46 0 -91.5 21t-74 46t-60 46t-54.5 21q-69 0 -78 -82q-6 -45 -70 -45h-20
q-74 0 -74 77zM307 311q0 -57 43.5 -97t114.5 -40q104 0 172 86t68 189v38h-43q-355 0 -355 -176z" />
    <glyph glyph-name="adieresis" unicode="&#xe4;" horiz-adv-x="1075" 
d="M49 289q0 106 59 181.5t160 111.5q178 63 391 63h43v25q0 184 -194 184q-105 0 -217 -59q-81 -35 -115 34l-20 39q-39 74 32 115q170 86 342 86q203 0 318 -110t115 -306v-567q0 -86 -86 -86h-70q-84 0 -84 86v41l4 45h-4q-24 -40 -49 -70q-113 -127 -279 -127
q-142 0 -245 86q-101 88 -101 228zM248 1302v68q0 84 86 84h29q86 0 86 -84v-68q0 -86 -86 -86h-29q-86 0 -86 86zM307 311q0 -57 43.5 -97t114.5 -40q104 0 172 86t68 189v38h-43q-355 0 -355 -176zM625 1302v68q0 84 84 84h31q84 0 84 -84v-68q0 -86 -84 -86h-31
q-84 0 -84 86z" />
    <glyph glyph-name="aring" unicode="&#xe5;" horiz-adv-x="1075" 
d="M49 289q0 106 59 181.5t160 111.5q178 63 391 63h43v25q0 184 -194 184q-105 0 -217 -59q-81 -35 -115 34l-20 39q-39 74 32 115q170 86 342 86q203 0 318 -110t115 -306v-567q0 -86 -86 -86h-70q-84 0 -84 86v41l4 45h-4q-24 -40 -49 -70q-113 -127 -279 -127
q-142 0 -245 86q-101 88 -101 228zM307 311q0 -57 43.5 -97t114.5 -40q104 0 172 86t68 189v38h-43q-355 0 -355 -176zM342 1311q0 73 56.5 117.5t138.5 44.5q81 0 136.5 -44.5t55.5 -117.5q0 -72 -56 -116t-136 -44q-82 0 -138.5 44t-56.5 116zM467 1311q0 -31 19 -50.5
t51 -19.5q31 0 50 19.5t19 50.5q0 44 -35 62.5t-69.5 0t-34.5 -62.5z" />
    <glyph glyph-name="ae" unicode="&#xe6;" horiz-adv-x="1734" 
d="M53 301q0 344 619 344h33v25q0 184 -201 184q-99 0 -211 -59q-80 -35 -117 34l-18 37q-41 77 30 115q155 88 334 88q245 0 340 -154h4q127 154 346 154q216 0 340 -139q123 -138 123 -357q0 -33 -27 -60.5t-63 -27.5h-631q12 -136 96 -212t212 -76q118 0 225 67
q79 40 117 -31l20 -38q41 -74 -27 -115q-163 -105 -354 -105q-301 0 -438 230h-4q-23 -55 -105 -131q-46 -43 -122 -70t-164 -27q-151 0 -254 86q-103 89 -103 238zM315 313q0 -59 42 -97t118 -38q101 0 166 86q68 86 68 191v30h-72q-59 0 -111 -7.5t-102 -25t-79.5 -53.5
t-29.5 -86zM963 645h450q-1 98 -59 159.5t-144 61.5q-98 0 -162.5 -58t-84.5 -163z" />
    <glyph glyph-name="ccedilla" unicode="&#xe7;" horiz-adv-x="1091" 
d="M66 522q0 232 155 387q157 160 412 160q193 0 342 -104q63 -43 16 -117l-26 -41q-41 -59 -115 -23q-94 64 -203 64q-141 0 -229 -94q-88 -91 -88 -230q0 -137 90 -233q88 -94 235 -94q121 0 234 79q77 44 117 -26l20 -39q41 -71 -22 -115q-147 -110 -340 -119l-15 -67
q69 -8 109.5 -48t40.5 -108q0 -90 -61 -135t-160 -45q-117 0 -117 70q0 32 12 51.5t31 19.5q5 0 24.5 -3t26.5 -3q76 0 76 60q0 50 -92 59q-46 3 -31 63l24 93q-213 30 -339 180q-127 151 -127 358z" />
    <glyph glyph-name="egrave" unicode="&#xe8;" horiz-adv-x="1118" 
d="M66 522q0 243 147 393q148 154 383 154q216 0 340 -139q123 -138 123 -359q0 -35 -26.5 -61.5t-63.5 -26.5h-637q12 -132 99 -209t214 -77q118 0 225 67q77 38 115 -28l25 -41q40 -73 -29 -115q-163 -105 -354 -105q-250 0 -408 158q-153 159 -153 389zM338 641h463
q-1 105 -60 168t-151 63q-98 0 -165.5 -62.5t-86.5 -168.5zM340.5 1423q12.5 31 66.5 31h76q65 0 100 -60l72 -124q24 -35 12.5 -65t-53.5 -30h-53q-62 0 -105 52l-92 124q-36 41 -23.5 72z" />
    <glyph glyph-name="eacute" unicode="&#xe9;" horiz-adv-x="1118" 
d="M66 522q0 243 147 393q148 154 383 154q216 0 340 -139q123 -138 123 -359q0 -35 -26.5 -61.5t-63.5 -26.5h-637q12 -132 99 -209t214 -77q118 0 225 67q77 38 115 -28l25 -41q40 -73 -29 -115q-163 -105 -354 -105q-250 0 -408 158q-153 159 -153 389zM338 641h463
q-1 105 -60 168t-151 63q-98 0 -165.5 -62.5t-86.5 -168.5zM520.5 1205q-15.5 29 7.5 67l72 123q35 59 100 59h74q55 0 68 -30.5t-23 -71.5l-92 -125q-42 -51 -104 -51h-43q-44 0 -59.5 29z" />
    <glyph glyph-name="ecircumflex" unicode="&#xea;" horiz-adv-x="1118" 
d="M66 522q0 243 147 393q148 154 383 154q216 0 340 -139q123 -138 123 -359q0 -35 -26.5 -61.5t-63.5 -26.5h-637q12 -132 99 -209t214 -77q118 0 225 67q77 38 115 -28l25 -41q40 -73 -29 -115q-163 -105 -354 -105q-250 0 -408 158q-153 159 -153 389zM322 1206
q-11 30 18 74l82 119q37 55 104 55h127q68 0 105 -55l82 -119q29 -44 18 -74t-55 -30h-53q-34 0 -52 12.5t-39 46.5l-67 106h-4l-70 -106q-35 -59 -88 -59h-53q-44 0 -55 30zM338 641h463q-1 105 -60 168t-151 63q-98 0 -165.5 -62.5t-86.5 -168.5z" />
    <glyph glyph-name="edieresis" unicode="&#xeb;" horiz-adv-x="1118" 
d="M66 522q0 243 147 393q148 154 383 154q216 0 340 -139q123 -138 123 -359q0 -35 -26.5 -61.5t-63.5 -26.5h-637q12 -132 99 -209t214 -77q118 0 225 67q77 38 115 -28l25 -41q40 -73 -29 -115q-163 -105 -354 -105q-250 0 -408 158q-153 159 -153 389zM303 1302v68
q0 84 86 84h29q86 0 86 -84v-68q0 -86 -86 -86h-29q-86 0 -86 86zM338 641h463q-1 105 -60 168t-151 63q-98 0 -165.5 -62.5t-86.5 -168.5zM680 1302v68q0 84 84 84h31q84 0 84 -84v-68q0 -86 -84 -86h-31q-84 0 -84 86z" />
    <glyph glyph-name="igrave" unicode="&#xec;" horiz-adv-x="516" 
d="M17.5 1423.5q12.5 30.5 66.5 30.5h76q65 0 100 -59l72 -125q24 -35 12.5 -64.5t-53.5 -29.5h-53q-63 0 -105 51l-92 125q-36 41 -23.5 71.5zM141 86v872q0 86 84 86h90q84 0 84 -86v-872q0 -86 -84 -86h-90q-84 0 -84 86z" />
    <glyph glyph-name="iacute" unicode="&#xed;" horiz-adv-x="516" 
d="M129 86v872q0 86 84 86h90q84 0 84 -86v-872q0 -86 -84 -86h-90q-84 0 -84 86zM191 1205q-15 29 8 67l71 123q35 59 101 59h73q55 0 68 -30.5t-23 -71.5l-92 -125q-42 -51 -104 -51h-43q-44 0 -59 29z" />
    <glyph glyph-name="icircumflex" unicode="&#xee;" horiz-adv-x="516" 
d="M2 1206q-11 30 18 74l82 119q37 55 105 55h127q67 0 104 -55l82 -119q29 -44 18 -74t-55 -30h-53q-34 0 -51 12.5t-39 46.5l-68 106h-4l-69 -106q-35 -59 -88 -59h-54q-44 0 -55 30zM139 86v872q0 86 84 86h90q84 0 84 -86v-872q0 -86 -84 -86h-90q-84 0 -84 86z" />
    <glyph glyph-name="idieresis" unicode="&#xef;" horiz-adv-x="516" 
d="M-29 1303v67q0 84 86 84h29q86 0 86 -84v-67q0 -86 -86 -86h-29q-86 0 -86 86zM129 86v872q0 86 84 86h90q84 0 84 -86v-872q0 -86 -84 -86h-90q-84 0 -84 86zM348 1303v67q0 84 84 84h31q84 0 84 -84v-67q0 -86 -84 -86h-31q-84 0 -84 86z" />
    <glyph glyph-name="eth" unicode="&#xf0;" horiz-adv-x="1185" 
d="M68 485q0 192 129 330q131 137 352 137q59 0 115 -16.5t81 -36.5l23 -18h4q-58 134 -203 229l-282 -123q-43 -18 -63 -13t-34 38l-10 24q-24 56 49 86l177 78q-68 36 -152 57q-83 27 -55 109l14 45q27 79 106 57q206 -55 365 -151l207 90q43 13 61.5 8.5t30.5 -31.5
l14 -30q24 -50 -47 -80l-131 -60q281 -248 281 -645q0 -87 -18 -169.5t-59 -160.5t-101 -136t-151.5 -93t-203.5 -35q-227 0 -364 152q-135 150 -135 358zM330 479q0 -122 65 -203t178 -81q133 0 197 98q68 100 68 229q0 101 -66.5 164.5t-175.5 63.5q-123 0 -194.5 -78
t-71.5 -193z" />
    <glyph glyph-name="ntilde" unicode="&#xf1;" horiz-adv-x="1226" 
d="M129 86v872q0 86 84 86h80q84 0 84 -86v-63l-4 -47h4q47 95 143 158t228 63q364 0 364 -397v-586q0 -86 -86 -86h-88q-86 0 -86 86v532q0 108 -37.5 160.5t-126.5 52.5q-137 0 -219 -98t-82 -244v-403q0 -86 -84 -86h-90q-84 0 -84 86zM268 1255q0 86 58.5 144.5
t148.5 58.5q49 0 94.5 -19.5t71.5 -47.5q66 -66 115 -66q65 0 71 80q3 47 74 47h21q75 0 75 -70q0 -94 -57 -152.5t-149 -58.5q-46 0 -91.5 21t-74.5 46t-60.5 46t-54.5 21q-69 0 -78 -82q-6 -45 -70 -45h-20q-74 0 -74 77z" />
    <glyph glyph-name="ograve" unicode="&#xf2;" horiz-adv-x="1273" 
d="M63 522q0 238 166 391q167 156 408 156t407 -156q168 -155 168 -391q0 -238 -168 -393q-168 -154 -407 -154q-240 0 -408 154q-166 156 -166 393zM328 522q0 -144 88 -235q90 -90 221 -90t221 90q90 93 90 235t-92 234q-89 92 -219 92t-219 -92q-90 -93 -90 -234z
M381.5 1423q12.5 31 66.5 31h76q65 0 100 -60l72 -124q24 -35 12.5 -65t-53.5 -30h-53q-62 0 -105 52l-92 124q-36 41 -23.5 72z" />
    <glyph glyph-name="oacute" unicode="&#xf3;" horiz-adv-x="1273" 
d="M63 522q0 238 166 391q167 156 408 156t407 -156q168 -155 168 -391q0 -238 -168 -393q-168 -154 -407 -154q-240 0 -408 154q-166 156 -166 393zM328 522q0 -144 88 -235q90 -90 221 -90t221 90q90 93 90 235t-92 234q-89 92 -219 92t-219 -92q-90 -93 -90 -234z
M567.5 1205q-15.5 29 7.5 67l72 123q35 59 101 59h73q55 0 68 -30.5t-23 -71.5l-92 -125q-42 -51 -104 -51h-43q-44 0 -59.5 29z" />
    <glyph glyph-name="ocircumflex" unicode="&#xf4;" horiz-adv-x="1273" 
d="M63 522q0 238 166 391q167 156 408 156t407 -156q168 -155 168 -391q0 -238 -168 -393q-168 -154 -407 -154q-240 0 -408 154q-166 156 -166 393zM328 522q0 -144 88 -235q90 -90 221 -90t221 90q90 93 90 235t-92 234q-89 92 -219 92t-219 -92q-90 -93 -90 -234z
M369 1206q-11 30 18 74l82 119q37 55 104 55h127q68 0 105 -55l82 -119q29 -44 18 -74t-55 -30h-53q-34 0 -51 12.5t-39 46.5l-68 106h-4l-70 -106q-35 -59 -88 -59h-53q-44 0 -55 30z" />
    <glyph glyph-name="otilde" unicode="&#xf5;" horiz-adv-x="1273" 
d="M63 522q0 238 166 391q167 156 408 156t407 -156q168 -155 168 -391q0 -238 -168 -393q-168 -154 -407 -154q-240 0 -408 154q-166 156 -166 393zM272 1255q0 86 58.5 144.5t148.5 58.5q49 0 94.5 -19.5t71.5 -47.5q66 -66 115 -66q65 0 71 80q3 47 74 47h21q75 0 75 -70
q0 -94 -57 -152.5t-149 -58.5q-46 0 -91.5 21t-74.5 46t-60.5 46t-54.5 21q-69 0 -78 -82q-6 -45 -69 -45h-21q-74 0 -74 77zM328 522q0 -144 88 -235q90 -90 221 -90t221 90q90 93 90 235t-92 234q-89 92 -219 92t-219 -92q-90 -93 -90 -234z" />
    <glyph glyph-name="odieresis" unicode="&#xf6;" horiz-adv-x="1273" 
d="M63 522q0 238 166 391q167 156 408 156t407 -156q168 -155 168 -391q0 -238 -168 -393q-168 -154 -407 -154q-240 0 -408 154q-166 156 -166 393zM328 522q0 -144 88 -235q90 -90 221 -90t221 90q90 93 90 235t-92 234q-89 92 -219 92t-219 -92q-90 -93 -90 -234z
M348 1303v67q0 84 86 84h29q86 0 86 -84v-67q0 -86 -86 -86h-29q-86 0 -86 86zM725 1303v67q0 84 84 84h31q84 0 84 -84v-67q0 -86 -84 -86h-31q-84 0 -84 86z" />
    <glyph glyph-name="divide" unicode="&#xf7;" 
d="M100 569v31q0 86 86 86h897q84 0 84 -86v-31q0 -86 -84 -86h-897q-86 0 -86 86zM516 139v51q0 86 86 86h64q86 0 86 -86v-51q0 -84 -86 -84h-64q-86 0 -86 84zM516 979v51q0 86 86 86h64q86 0 86 -86v-51q0 -84 -86 -84h-64q-86 0 -86 84z" />
    <glyph glyph-name="oslash" unicode="&#xf8;" horiz-adv-x="1275" 
d="M66 522q0 239 165 391q166 156 408 156q149 0 272 -63l33 47q49 67 107 30q57 -39 22 -86l-47 -65q188 -164 188 -410q0 -239 -167 -393q-168 -154 -408 -154q-143 0 -258 56l-35 -49q-50 -68 -106 -29q-57 40 -23 86l45 63q-196 153 -196 420zM330 522q0 -133 78 -217
l366 510q-62 33 -135 33q-130 0 -219 -92q-90 -93 -90 -234zM518 221q56 -24 121 -24q131 0 221 90q90 93 90 235q0 120 -71 203z" />
    <glyph glyph-name="ugrave" unicode="&#xf9;" horiz-adv-x="1216" 
d="M115 373v585q0 86 86 86h88q86 0 86 -86v-532q0 -108 37 -160.5t125 -52.5q137 0 213 102q79 101 79 250v393q0 86 86 86h89q86 0 86 -86v-872q0 -86 -86 -86h-80q-84 0 -84 86v61l4 48h-4q-43 -92 -143 -156t-220 -64q-362 0 -362 398zM351.5 1423.5
q12.5 30.5 66.5 30.5h76q65 0 100 -59l72 -125q24 -35 12.5 -64.5t-53.5 -29.5h-54q-62 0 -104 51l-92 125q-36 41 -23.5 71.5z" />
    <glyph glyph-name="uacute" unicode="&#xfa;" horiz-adv-x="1216" 
d="M115 373v585q0 86 86 86h88q86 0 86 -86v-532q0 -108 37 -160.5t125 -52.5q137 0 213 102q79 101 79 250v393q0 86 86 86h89q86 0 86 -86v-872q0 -86 -86 -86h-80q-84 0 -84 86v61l4 48h-4q-43 -92 -143 -156t-220 -64q-362 0 -362 398zM533 1205q-15 29 8 67l71 123
q35 59 101 59h73q55 0 68 -30.5t-23 -71.5l-92 -125q-42 -51 -104 -51h-43q-44 0 -59 29z" />
    <glyph glyph-name="ucircumflex" unicode="&#xfb;" horiz-adv-x="1216" 
d="M115 373v585q0 86 86 86h88q86 0 86 -86v-532q0 -108 37 -160.5t125 -52.5q137 0 213 102q79 101 79 250v393q0 86 86 86h89q86 0 86 -86v-872q0 -86 -86 -86h-80q-84 0 -84 86v61l4 48h-4q-43 -92 -143 -156t-220 -64q-362 0 -362 398zM334 1206q-11 30 18 74l82 119
q37 55 105 55h127q67 0 104 -55l82 -119q29 -44 18 -74t-55 -30h-53q-34 0 -51 12.5t-39 46.5l-68 106h-4l-70 -106q-35 -59 -88 -59h-53q-44 0 -55 30z" />
    <glyph glyph-name="udieresis" unicode="&#xfc;" horiz-adv-x="1216" 
d="M115 373v585q0 86 86 86h88q86 0 86 -86v-532q0 -108 37 -160.5t125 -52.5q137 0 213 102q79 101 79 250v393q0 86 86 86h89q86 0 86 -86v-872q0 -86 -86 -86h-80q-84 0 -84 86v61l4 48h-4q-43 -92 -143 -156t-220 -64q-362 0 -362 398zM313 1303v67q0 84 86 84h29
q86 0 86 -84v-67q0 -86 -86 -86h-29q-86 0 -86 86zM690 1303v67q0 84 84 84h31q84 0 84 -84v-67q0 -86 -84 -86h-31q-84 0 -84 86z" />
    <glyph glyph-name="yacute" unicode="&#xfd;" horiz-adv-x="1052" 
d="M39 1016q18 28 67 28h111q73 0 96 -69l197 -533l39 -141h4q8 39 35 137l184 535q21 71 96 71h103q48 0 67 -27t2 -71l-430 -1102q-50 -133 -150.5 -203.5t-226.5 -70.5q-63 0 -145 31q-37 13 -47.5 44t8.5 66l19 45q27 62 92 47q41 -18 73 -18q52 0 96 38.5t70 100.5
l39 92l-397 928q-20 44 -2 72zM479 1201q-15 28 8 69l72 122q35 60 100 60h74q55 0 68 -31t-23 -72l-92 -124q-43 -52 -104 -52h-43q-45 0 -60 28z" />
    <glyph glyph-name="thorn" unicode="&#xfe;" horiz-adv-x="1234" 
d="M131 -324v1692q0 86 86 86h88q86 0 86 -86v-360l-4 -86h4l60 61q23 23 94 53q67 33 153 33q211 0 340 -156q129 -153 129 -391q0 -236 -133 -393q-133 -154 -340 -154q-115 0 -191.5 42.5t-101.5 84.5l-10 15h-4q4 -50 4 -90v-351q0 -86 -86 -86h-88q-86 0 -86 86z
M383 520q0 -152 71 -238.5t193 -86.5q112 0 185 92t73 235t-71 234.5t-183 91.5q-123 0 -195.5 -83t-72.5 -245z" />
    <glyph glyph-name="ydieresis" unicode="&#xff;" horiz-adv-x="1052" 
d="M39 1016q18 28 67 28h111q73 0 96 -69l197 -533l39 -141h4q8 39 35 137l184 535q21 71 96 71h103q48 0 67 -27t2 -71l-430 -1102q-50 -133 -150.5 -203.5t-226.5 -70.5q-63 0 -145 31q-37 13 -47.5 44t8.5 66l19 45q27 62 92 47q41 -18 73 -18q52 0 96 38.5t70 100.5
l39 92l-397 928q-20 44 -2 72zM262 1300v68q0 84 86 84h29q86 0 86 -84v-68q0 -86 -86 -86h-29q-86 0 -86 86zM639 1300v68q0 84 84 84h31q84 0 84 -84v-68q0 -86 -84 -86h-31q-84 0 -84 86z" />
    <glyph glyph-name="OE" unicode="&#x152;" horiz-adv-x="1961" 
d="M78 729q0 313 219 526q221 215 545 215q70 0 141 -8q73 -8 117 -8h672q86 0 86 -86v-57q0 -84 -86 -84h-523v-381h406q86 0 86 -84v-57q0 -87 -86 -87h-406v-391h557q84 0 84 -84v-57q0 -86 -84 -86h-706q-44 0 -117 -8q-88 -10 -141 -10q-323 0 -543 217
q-221 218 -221 530zM350 729q0 -220 139 -371q140 -149 353 -149q79 0 129 12l16 4v1004q-66 16 -145 16q-213 0 -353 -149q-139 -151 -139 -367z" />
    <glyph glyph-name="oe" unicode="&#x153;" horiz-adv-x="2000" 
d="M63 520q0 242 164 395q165 154 402 154q279 0 432 -215h4q135 215 412 215q216 0 340 -139q122 -137 122 -359q0 -36 -26 -62t-64 -26h-635q13 -132 100.5 -209t211.5 -77q114 0 227 67q75 39 115 -28l22 -41q39 -75 -28 -115q-159 -105 -355 -105q-291 0 -436 222h-4
q-157 -222 -438 -222q-238 0 -404 152q-162 149 -162 393zM326 520q0 -145 90 -235q88 -88 221 -88q129 0 219 90t90 235q0 146 -90 236t-219 90q-132 0 -221 -92q-90 -90 -90 -236zM1221 641h456q-1 102 -58 164.5t-144 62.5q-99 0 -167 -61.5t-87 -165.5z" />
    <glyph glyph-name="Ydieresis" unicode="&#x178;" horiz-adv-x="1187" 
d="M44 1424.5q17 29.5 67 29.5h114q70 0 99 -63l196 -365l88 -195h4q54 130 88 195l197 365q29 63 98 63h115q51 0 67.5 -29.5t-8.5 -72.5l-428 -744v-522q0 -86 -84 -86h-92q-86 0 -86 86v522l-426 744q-26 43 -9 72.5zM319 1677v68q0 84 86 84h29q86 0 86 -84v-68
q0 -86 -86 -86h-29q-86 0 -86 86zM696 1677v68q0 84 84 84h31q84 0 84 -84v-68q0 -86 -84 -86h-31q-84 0 -84 86z" />
    <glyph glyph-name="circumflex" unicode="&#x2c6;" horiz-adv-x="1011" 
d="M248 1580.5q-11 30.5 18 74.5l82 119q37 55 105 55h127q67 0 104 -55l82 -119q29 -44 18 -74.5t-55 -30.5h-53q-33 0 -50.5 12.5t-39.5 47.5l-68 106h-4l-70 -106q-35 -60 -88 -60h-53q-44 0 -55 30.5z" />
    <glyph glyph-name="tilde" unicode="&#x2dc;" horiz-adv-x="1009" 
d="M141 1630q0 86 58.5 144.5t148.5 58.5q46 0 91 -21t74.5 -45.5t61.5 -45.5t54 -21q65 0 71 80q3 47 74 47h21q75 0 75 -70q0 -94 -57 -152.5t-149 -58.5q-46 0 -91.5 21t-74.5 45.5t-60.5 45.5t-54.5 21q-69 0 -78 -82q-6 -45 -69 -45h-21q-74 0 -74 78z" />
    <glyph glyph-name="uni2000" unicode="&#x2000;" horiz-adv-x="923" 
 />
    <glyph glyph-name="uni2001" unicode="&#x2001;" horiz-adv-x="1847" 
 />
    <glyph glyph-name="uni2002" unicode="&#x2002;" horiz-adv-x="923" 
 />
    <glyph glyph-name="uni2003" unicode="&#x2003;" horiz-adv-x="1847" 
 />
    <glyph glyph-name="uni2004" unicode="&#x2004;" horiz-adv-x="615" 
 />
    <glyph glyph-name="uni2005" unicode="&#x2005;" horiz-adv-x="461" 
 />
    <glyph glyph-name="uni2006" unicode="&#x2006;" horiz-adv-x="307" 
 />
    <glyph glyph-name="uni2007" unicode="&#x2007;" horiz-adv-x="307" 
 />
    <glyph glyph-name="uni2008" unicode="&#x2008;" horiz-adv-x="230" 
 />
    <glyph glyph-name="uni2009" unicode="&#x2009;" horiz-adv-x="369" 
 />
    <glyph glyph-name="uni200A" unicode="&#x200a;" horiz-adv-x="102" 
 />
    <glyph glyph-name="uni2010" unicode="&#x2010;" horiz-adv-x="854" 
d="M119 557v57q0 84 86 84h444q86 0 86 -84v-57q0 -86 -86 -86h-444q-86 0 -86 86z" />
    <glyph glyph-name="uni2011" unicode="&#x2011;" horiz-adv-x="854" 
d="M119 557v57q0 84 86 84h444q86 0 86 -84v-57q0 -86 -86 -86h-444q-86 0 -86 86z" />
    <glyph glyph-name="figuredash" unicode="&#x2012;" horiz-adv-x="854" 
d="M119 557v57q0 84 86 84h444q86 0 86 -84v-57q0 -86 -86 -86h-444q-86 0 -86 86z" />
    <glyph glyph-name="endash" unicode="&#x2013;" horiz-adv-x="1374" 
d="M121 569v31q0 86 84 86h964q84 0 84 -86v-31q0 -86 -84 -86h-964q-84 0 -84 86z" />
    <glyph glyph-name="emdash" unicode="&#x2014;" horiz-adv-x="1783" 
d="M121 569v31q0 86 84 86h1374q84 0 84 -86v-31q0 -86 -84 -86h-1374q-84 0 -84 86z" />
    <glyph glyph-name="quoteleft" unicode="&#x2018;" horiz-adv-x="444" 
d="M98 1100l103 311q27 68 98 68h20q91 0 70 -93l-70 -307q-15 -75 -92 -75h-59q-48 0 -67.5 26t-2.5 70z" />
    <glyph glyph-name="quoteright" unicode="&#x2019;" horiz-adv-x="440" 
d="M106 1096l70 307q15 76 92 76h58q47 0 66 -26t5 -71l-104 -311q-24 -67 -96 -67h-21q-91 0 -70 92z" />
    <glyph glyph-name="quotesinglbase" unicode="&#x201a;" horiz-adv-x="473" 
d="M88 -119l70 307q15 76 92 76h59q48 0 67.5 -27t2.5 -71l-103 -309q-27 -68 -98 -68h-20q-91 0 -70 92z" />
    <glyph glyph-name="quotedblleft" unicode="&#x201c;" horiz-adv-x="786" 
d="M98 1100l103 311q27 68 98 68h23q84 0 69 -93l-69 -307q-18 -75 -93 -75h-61q-48 0 -67.5 26t-2.5 70zM440 1100l103 311q27 68 98 68h23q88 0 67 -93l-67 -307q-18 -75 -95 -75h-59q-48 0 -67.5 26t-2.5 70z" />
    <glyph glyph-name="quotedblright" unicode="&#x201d;" horiz-adv-x="782" 
d="M106 1096l70 307q15 76 92 76h60q48 0 67 -26.5t2 -70.5l-102 -311q-24 -67 -98 -67h-21q-91 0 -70 92zM449 1096l69 307q15 76 92 76h60q48 0 67 -26.5t2 -70.5l-102 -311q-24 -67 -98 -67h-21q-90 0 -69 92z" />
    <glyph glyph-name="quotedblbase" unicode="&#x201e;" horiz-adv-x="815" 
d="M88 -119l70 307q15 76 92 76h59q48 0 67.5 -27t2.5 -71l-103 -309q-21 -68 -96 -68h-22q-91 0 -70 92zM430 -119l70 307q15 76 92 76h59q48 0 67.5 -27t2.5 -71l-103 -309q-21 -68 -96 -68h-22q-91 0 -70 92z" />
    <glyph glyph-name="bullet" unicode="&#x2022;" horiz-adv-x="872" 
d="M94 596q0 141 101 242q100 100 241 100q142 0 242 -100t100 -242t-100 -242t-242 -100q-141 0 -241 100q-101 101 -101 242z" />
    <glyph glyph-name="ellipsis" unicode="&#x2026;" horiz-adv-x="1644" 
d="M113 86v92q0 84 86 84h82q86 0 86 -84v-92q0 -86 -86 -86h-82q-86 0 -86 86zM696 86v92q0 84 84 84h84q86 0 86 -84v-92q0 -86 -86 -86h-84q-84 0 -84 86zM1280 86v92q0 84 84 84h84q84 0 84 -84v-92q0 -86 -84 -86h-84q-84 0 -84 86z" />
    <glyph glyph-name="uni202F" unicode="&#x202f;" horiz-adv-x="369" 
 />
    <glyph glyph-name="guilsinglleft" unicode="&#x2039;" horiz-adv-x="673" 
d="M150 518q-50 60 0 119l247 313q43 49 105 49h51q54 0 68 -30.5t-19 -73.5l-252 -317l252 -316q35 -43 22.5 -73.5t-63.5 -30.5h-59q-62 0 -105 49z" />
    <glyph glyph-name="guilsinglright" unicode="&#x203a;" horiz-adv-x="673" 
d="M110.5 968.5q12.5 30.5 63.5 30.5h59q62 0 105 -49l248 -313q50 -59 0 -119l-248 -311q-43 -49 -105 -49h-51q-54 0 -68 30.5t19 73.5l252 316l-252 317q-35 43 -22.5 73.5z" />
    <glyph glyph-name="uni205F" unicode="&#x205f;" horiz-adv-x="461" 
 />
    <glyph glyph-name="Euro" unicode="&#x20ac;" horiz-adv-x="1234" 
d="M76 590q0 78 78 78h36q-10 59 -2 127h-32q-80 0 -80 79q0 78 80 78h61q68 235 258 379q195 148 443 148q26 0 131 -11q86 -12 65 -102l-20 -76q-20 -74 -86 -65q-44 8 -97 8q-146 0 -255 -75t-156 -206h426q95 0 80 -80q-7 -42 -29.5 -59.5t-65.5 -17.5h-448
q-9 -62 0 -127h407q95 0 80 -80q-11 -43 -31 -59.5t-63 -16.5h-346q50 -131 161 -209t251 -78q54 0 106 8q86 12 98 -63l17 -78q15 -85 -66 -100q-87 -17 -159 -17q-260 0 -449 148q-188 147 -252 389h-63q-78 0 -78 78z" />
    <glyph glyph-name="trademark" unicode="&#x2122;" horiz-adv-x="2000" 
d="M80 1362v12q0 80 84 80h631q86 0 86 -80v-12q0 -80 -86 -80h-217v-651q0 -84 -84 -84h-25q-86 0 -86 84v651h-219q-84 0 -84 80zM942 635l59 737q6 82 89 82h28q72 0 99 -65l159 -363l27 -86h4q16 56 29 86l159 363q27 65 99 65h28q82 0 88 -82l58 -737q3 -88 -82 -88
h-27q-80 0 -86 82l-28 385l2 63h-5l-133 -299q-27 -65 -98 -65h-12q-69 0 -96 65l-134 299h-4l2 -63l-30 -385q-6 -82 -88 -82h-25q-88 0 -82 88z" />
    <glyph glyph-name="uni25FC" unicode="&#x25fc;" horiz-adv-x="1044" 
d="M0 0v1044h1044v-1044h-1044z" />
    </font>
</defs>
</svg>
