<?xml version="1.0" standalone="no"?>
<!DOCTYPE svg PUBLIC "-//W3C//DTD SVG 1.1//EN" "http://www.w3.org/Graphics/SVG/1.1/DTD/svg11.dtd" >
<svg xmlns="http://www.w3.org/2000/svg" xmlns:xlink="http://www.w3.org/1999/xlink" version="1.1">
<metadata>
Created by FontForge 20170731 at Sat Jul 25 04:38:08 2015
 By Aleksey,,,
Copyright (c) 2011 by Jos Buivenga. All rights reserved.
</metadata>
<defs>
<font id="MuseoSansRounded-500" horiz-adv-x="1255" >
  <font-face 
    font-family="Museo Sans Rounded"
    font-weight="500"
    font-stretch="normal"
    units-per-em="2048"
    panose-1="2 0 0 0 0 0 0 0 0 0"
    ascent="1581"
    descent="-467"
    x-height="1036"
    cap-height="1446"
    bbox="-123 -438 1956 1827"
    underline-thickness="102"
    underline-position="-816"
    unicode-range="U+0020-FB04"
  />
<missing-glyph horiz-adv-x="748" 
d="M68 0v1365h544v-1365h-544zM136 68h408v1229h-408v-1229z" />
    <glyph glyph-name="uniFB01" unicode="fi" horiz-adv-x="1144" 
d="M55 944v25q0 67 68 67h65v39q0 93 29.5 165t71.5 111.5t97 64.5t97 32.5t80 7.5h25q67 0 67 -67v-39q0 -62 -71 -68q-67 -3 -127 -37q-70 -41 -70 -178v-31h547q67 0 67 -67v-901q0 -68 -67 -68h-64q-67 0 -67 68v809h-416v-809q0 -68 -68 -68h-63q-68 0 -68 68v809h-65
q-68 0 -68 67zM799 1311v67q0 68 67 68h70q68 0 68 -68v-67q0 -68 -68 -68h-70q-67 0 -67 68z" />
    <glyph glyph-name="uniFB02" unicode="fl" horiz-adv-x="1193" 
d="M55 932v26q0 68 68 68h65v49q0 93 29.5 165t71.5 111.5t97 64.5t97 32.5t80 7.5h25q67 0 67 -67v-39q0 -62 -71 -68q-67 -3 -127 -37q-70 -41 -70 -178v-41h178q68 0 68 -68v-26q0 -68 -68 -68h-178v-796q0 -68 -68 -68h-63q-68 0 -68 68v796h-65q-68 0 -68 68zM801 283
v1095q0 68 67 68h64q67 0 67 -68v-1071q0 -128 95 -137q53 -6 53 -59v-50q0 -69 -70 -69q-276 0 -276 291z" />
    <glyph glyph-name="uniFB03" unicode="ffi" horiz-adv-x="1802" 
d="M55 944v25q0 67 68 67h61l4 39q0 93 29.5 165t71.5 111.5t97 64.5t97 32.5t80 7.5h25q67 0 67 -67v-39q0 -62 -71 -68q-67 -3 -127 -37q-70 -41 -70 -178v-31h461v39q0 93 29.5 165t72 111.5t97 64.5t96 32.5t78.5 7.5h26q68 0 68 -67v-39q0 -62 -74 -68q-65 -3 -125 -37
q-69 -40 -69 -178v-31h544q68 0 68 -67v-901q0 -68 -68 -68h-63q-68 0 -68 68v809h-413v-809q0 -68 -68 -68h-64q-67 0 -67 68v809h-461v-809q0 -68 -68 -68h-63q-68 0 -68 68l-4 809h-61q-68 0 -68 67zM1458 1311v67q0 68 68 68h69q68 0 68 -68v-67q0 -68 -68 -68h-69
q-68 0 -68 68z" />
    <glyph glyph-name="uniFB04" unicode="ffl" horiz-adv-x="1853" 
d="M57 944v25q0 67 68 67h61l4 39q0 93 29.5 165t72 111.5t97 64.5t96 32.5t78.5 7.5h27q67 0 67 -67v-39q0 -62 -73 -68q-65 -3 -125 -37q-70 -41 -70 -178v-31h461v39q0 93 29 165t70.5 111.5t95.5 64.5t96.5 32.5t81.5 7.5h24q68 0 68 -67v-39q0 -62 -72 -68
q-67 -3 -127 -37q-69 -40 -69 -178v-31h178q67 0 67 -67v-25q0 -67 -61 -67h-184v-809q0 -68 -66 -68h-66q-65 0 -65 68v809h-461v-809q0 -68 -67 -68h-64q-68 0 -68 68l-4 809h-61q-68 0 -68 67zM1462 283v1095q0 68 68 68h63q68 0 68 -68v-1071q0 -78 25.5 -105.5
t66.5 -31.5q53 -6 53 -59v-50q0 -69 -67 -69q-277 0 -277 291z" />
    <glyph glyph-name=".notdef" horiz-adv-x="748" 
d="M68 0v1365h544v-1365h-544zM136 68h408v1229h-408v-1229z" />
    <glyph glyph-name="glyph1" horiz-adv-x="0" 
 />
    <glyph glyph-name="glyph2" horiz-adv-x="682" 
 />
    <glyph glyph-name="space" unicode=" " horiz-adv-x="512" 
 />
    <glyph glyph-name="exclam" unicode="!" horiz-adv-x="530" 
d="M164 68v65q0 68 67 68h70q68 0 68 -68v-65q0 -68 -68 -68h-70q-67 0 -67 68zM164 1378q0 68 65 68h70q68 0 68 -68l-11 -913q-3 -68 -69 -68h-45q-68 0 -68 68z" />
    <glyph glyph-name="quotedbl" unicode="&#x22;" horiz-adv-x="673" 
d="M115 1104v299q0 67 67 67h21q67 0 67 -67v-299q0 -68 -67 -68h-21q-67 0 -67 68zM403 1104v299q0 67 68 67h21q67 0 67 -67v-299q0 -68 -67 -68h-21q-68 0 -68 68z" />
    <glyph glyph-name="numbersign" unicode="#" horiz-adv-x="1437" 
d="M92 463l4 18q9 62 74 62h205l59 344h-190q-73 0 -64 71l4 19q9 59 72 59h205l59 350q12 60 74 60h31q73 0 61 -72l-59 -338h317l60 350q12 60 75 60h29q73 0 61 -72l-59 -338h193q72 0 63 -71l-4 -19q-9 -59 -72 -59h-205l-61 -344h190q73 0 64 -74l-4 -16
q-9 -62 -74 -62h-203l-55 -330q-12 -61 -76 -61h-28q-74 0 -62 72l55 319h-317l-57 -330q-9 -61 -74 -61h-29q-73 0 -61 72l55 319h-192q-73 0 -64 72zM541 543h317l62 344h-320z" />
    <glyph glyph-name="dollar" unicode="$" horiz-adv-x="1097" 
d="M131 1067q0 149 105 260q104 113 274 137v125q0 68 65 68h17q63 0 63 -60v-131q164 -9 303 -104q49 -30 19 -92l-27 -51q-34 -58 -94 -19q-128 82 -260 82q-112 0 -187 -61.5t-75 -149.5q0 -46 24 -84t65 -66t94.5 -53.5t112 -50t117 -52t112 -63.5t94.5 -79t65 -104.5
t24 -135.5q0 -157 -104 -270q-103 -112 -283 -133v-121q0 -68 -63 -68h-17q-65 0 -65 59v130q-197 18 -354 143q-54 42 -11 94l33 47q38 52 96 12q147 -112 314 -112q108 0 180 58.5t72 154.5q0 143 -250 246q-185 77 -267 131q-195 128 -192 313z" />
    <glyph glyph-name="percent" unicode="%" horiz-adv-x="1546" 
d="M90 1167q0 123 90 213q93 90 221 90q127 0 220 -90q92 -89 92 -213q0 -126 -92 -215q-91 -88 -220 -88q-130 0 -221 88q-90 90 -90 215zM172 25q-12 25 14 57l1012 1325q29 39 82 39h37q43 0 55 -25t-14 -57l-1012 -1323q-35 -41 -82 -41h-37q-43 0 -55 25zM250 1167
q0 -66 42.5 -108.5t108.5 -42.5q47 -3 85 25t55 68.5t9.5 87.5t-42.5 79q-30 35 -77 42t-87.5 -10t-69 -55.5t-24.5 -85.5zM834 279q0 123 90 213t219 90t219 -90q92 -89 92 -213q0 -127 -92 -216q-88 -88 -219 -88t-219 88q-90 90 -90 216zM995 308q-7 -47 9.5 -87.5
t54 -68.5t84.5 -25q66 0 108.5 43t42.5 109q3 47 -25.5 85.5t-69 55t-87 9.5t-76.5 -42q-34 -32 -41 -79z" />
    <glyph glyph-name="ampersand" unicode="&#x26;" horiz-adv-x="1318" 
d="M92 406q0 125 70 228.5t186 141.5v4q-16 3 -67 39q-125 94 -125 279q0 175 123 274q125 98 321 98h94q68 0 68 -67v-37q0 -68 -68 -68h-84q-112 0 -181 -61t-69 -160q0 -85 60 -157q58 -70 207 -70h268v129q0 68 68 68h63q68 0 68 -58v-139h125q67 0 67 -68v-41
q0 -67 -67 -67h-125v-193q0 -238 -133 -372t-367 -134q-225 0 -363 123q-139 124 -139 308zM299 416q0 -107 83 -180.5t212 -73.5q145 0 223 82t78 245v185h-277q-153 0 -236 -67.5t-83 -190.5z" />
    <glyph glyph-name="quotesingle" unicode="'" horiz-adv-x="385" 
d="M113 1151v252q0 67 67 67h25q65 0 65 -67v-252q0 -66 -65 -66h-25q-67 0 -67 66z" />
    <glyph glyph-name="parenleft" unicode="(" horiz-adv-x="563" 
d="M100 696q0 405 211 764q23 45 80 45h31q39 0 52 -21.5t-5 -56.5q-188 -361 -188 -733q0 -428 192 -809q17 -35 4 -57.5t-51 -22.5h-35q-55 0 -76 41q-215 388 -215 850z" />
    <glyph glyph-name="parenright" unicode=")" horiz-adv-x="563" 
d="M97 1483.5q12 21.5 50 21.5h35q57 0 80 -45q209 -361 209 -764q0 -464 -209 -846q-23 -45 -82 -45h-30q-39 0 -52.5 23.5t4.5 60.5q189 381 189 805q0 380 -187 733q-19 35 -7 56.5z" />
    <glyph glyph-name="asterisk" unicode="*" horiz-adv-x="968" 
d="M121 1151l12 39q21 71 84 43l209 -78l-8 221q-6 70 63 70h47q70 0 64 -68l-10 -223l209 76q65 27 86 -39l14 -39q18 -67 -45 -82l-215 -61v-4l135 -172q48 -55 -10 -95l-33 -24q-59 -41 -92 16l-123 184h-4l-121 -180q-39 -60 -94 -20l-35 24q-56 41 -10 92l135 175v4
l-211 59q-69 15 -47 82z" />
    <glyph glyph-name="plus" unicode="+" 
d="M86 571v25q0 68 68 68h391v436q0 67 67 67h33q68 0 68 -67v-436h389q67 0 67 -68v-25q0 -67 -67 -67h-389v-436q0 -68 -68 -68h-33q-67 0 -67 68v436h-391q-68 0 -68 67z" />
    <glyph glyph-name="comma" unicode="," horiz-adv-x="485" 
d="M72 -178l106 336q15 57 76 57h63q38 0 53 -21.5t1 -56.5l-140 -340q-20 -51 -79 -51h-23q-78 0 -57 76z" />
    <glyph glyph-name="hyphen" unicode="-" horiz-adv-x="860" 
d="M131 563v41q0 68 68 68h463q67 0 67 -68v-41q0 -67 -67 -67h-463q-68 0 -68 67z" />
    <glyph glyph-name="period" unicode="." horiz-adv-x="466" 
d="M127 68v79q0 68 68 68h77q68 0 68 -68v-79q0 -68 -68 -68h-77q-68 0 -68 68z" />
    <glyph glyph-name="slash" unicode="/" horiz-adv-x="808" 
d="M94 -10l477 1478q18 56 78 56h37q35 0 51 -22t4 -54l-477 -1479q-21 -55 -78 -55h-36q-37 0 -52.5 22t-3.5 54z" />
    <glyph glyph-name="zero" unicode="0" horiz-adv-x="1273" 
d="M125 725q0 326 111 526q58 105 160.5 162t240.5 57q512 0 512 -745q0 -750 -512 -750q-113 0 -201 38t-146 104.5t-95.5 162.5t-53.5 205.5t-16 239.5zM334 725q0 -563 303 -563t303 563q0 559 -303 559t-303 -559z" />
    <glyph glyph-name="one" unicode="1" horiz-adv-x="960" 
d="M102 68v41q0 67 68 67h252v934l2 88h-4q-15 -29 -64 -78l-92 -90q-52 -46 -94 2l-29 29q-49 49 0 96l262 256q33 33 82 33h66q67 0 67 -68v-1202h250q68 0 68 -67v-41q0 -68 -68 -68h-698q-68 0 -68 68z" />
    <glyph glyph-name="two" unicode="2" horiz-adv-x="1144" 
d="M98 68v43q0 122 52 223q26 50 57.5 91.5t77.5 82.5t76 64.5t92 68.5q15 10 52.5 36.5t53 37.5t48.5 35t48 37.5t41 36.5t38.5 39.5t29 39.5t24 43.5t13.5 44.5t6 49q0 106 -72.5 173t-187.5 67q-150 0 -256 -133q-51 -54 -96 -14l-37 28q-53 41 -19 92q68 95 173.5 156
t248.5 61q202 0 328 -114q129 -114 129 -301q0 -76 -23.5 -144t-63.5 -120.5t-92 -100.5t-109.5 -88.5t-115 -79.5t-110 -78t-93.5 -79t-65.5 -88.5t-26.5 -100.5h654q67 0 67 -67v-41q0 -68 -67 -68h-803q-72 0 -72 68z" />
    <glyph glyph-name="three" unicode="3" horiz-adv-x="1138" 
d="M137 223l33 47q40 49 94 13q142 -115 297 -115q123 0 209 74q86 77 86 190q0 124 -94.5 195t-241.5 71h-45q-55 0 -76 50l-6 12q-22 49 17 88l278 330l90 94v4q-44 -6 -123 -6h-422q-67 0 -67 67v41q0 68 67 68h730q67 0 67 -64v-18q0 -46 -31 -82l-362 -418
q170 -18 295 -125q129 -108 129 -299q0 -192 -137 -329q-139 -136 -355 -136q-227 0 -422 154q-49 40 -10 94z" />
    <glyph glyph-name="four" unicode="4" horiz-adv-x="1222" 
d="M47 455v12q0 43 27 84l614 852q27 43 80 43h113q67 0 67 -68v-819h129q68 0 68 -67v-37q0 -68 -58 -68h-139v-319q0 -68 -67 -68h-66q-67 0 -67 68v319h-633q-68 0 -68 68zM272 559h476v526l10 144h-4q-33 -64 -72 -119l-410 -547v-4z" />
    <glyph glyph-name="five" unicode="5" horiz-adv-x="1132" 
d="M168 225l33 45q40 49 92 9q117 -111 266 -111q132 0 223 82q95 83 95 211q0 130 -95 213q-96 84 -235 84q-100 0 -199 -51q-52 -19 -90 -5l-18 7q-56 21 -50 79l62 594q6 64 70 64h598q67 0 67 -68v-41q0 -67 -67 -67h-486l-35 -305l-10 -76h4q77 45 187 45
q225 0 362 -137q141 -135 141 -334q0 -210 -147 -348q-146 -140 -365 -140q-231 0 -397 158q-52 40 -6 92z" />
    <glyph glyph-name="six" unicode="6" horiz-adv-x="1212" 
d="M113 653q0 304 155 549q80 124 209.5 196t286.5 72q124 0 217 -34q63 -21 39 -86l-19 -52q-20 -56 -81 -41q-76 27 -148 27q-186 0 -301 -145q-110 -143 -137 -348h4q49 65 138 105t196 40q194 0 321 -133q125 -131 125 -332q0 -216 -131 -356q-134 -140 -336 -140
q-233 0 -387 189q-151 189 -151 489zM324 553q0 -133 96 -264q95 -127 231 -127q121 0 192.5 82.5t71.5 216.5q0 136 -81.5 219.5t-221.5 83.5q-122 0 -204 -64q-84 -63 -84 -147z" />
    <glyph glyph-name="seven" unicode="7" horiz-adv-x="1054" 
d="M55 1337v41q0 68 68 68h831q68 0 68 -64v-32q0 -48 -18 -82l-611 -1219q-21 -49 -78 -49h-67q-38 0 -52 22.5t3 57.5l524 1059l80 133v4q-27 -6 -101 -6h-579q-68 0 -68 67z" />
    <glyph glyph-name="eight" unicode="8" horiz-adv-x="1226" 
d="M111 408q0 230 231 393q-174 113 -174 291q0 155 117 266q115 112 333 112q207 0 332 -104q127 -106 127 -276q0 -192 -172 -379q205 -123 205 -314q0 -170 -139 -297q-137 -125 -357 -125q-216 0 -360 123q-143 122 -143 310zM313 428q0 -123 88 -199q87 -75 213 -75
q117 0 201 69q88 70 88 174q-8 67 -35 108t-90 77q-37 21 -82 41q-7 3 -24.5 11.5t-37 17t-40.5 16.5l-107 47q-174 -131 -174 -287zM367 1090q0 -90 90 -162q38 -30 133 -74l80 -35q22 -8 82 -35q127 139 127 283q0 105 -71.5 166t-189.5 61q-115 0 -183 -57t-68 -147z" />
    <glyph glyph-name="nine" unicode="9" horiz-adv-x="1212" 
d="M94 981q0 215 131 352t334 137q237 0 387 -188q154 -189 154 -487q0 -305 -158 -551q-77 -124 -206 -196.5t-287 -72.5q-131 0 -218 37q-63 18 -38 84l18 54q20 53 82 38q91 -26 147 -26q189 0 299 143q113 142 140 350h-5q-48 -64 -139.5 -103.5t-195.5 -39.5
q-193 0 -320 133q-125 134 -125 336zM297 985q0 -136 81.5 -219.5t221.5 -83.5q122 0 203 63q86 65 86 148q0 134 -96 262q-95 129 -232 129q-121 0 -192.5 -82.5t-71.5 -216.5z" />
    <glyph glyph-name="colon" unicode=":" horiz-adv-x="475" 
d="M135 68v75q0 68 66 68h73q68 0 68 -68v-75q0 -68 -68 -68h-73q-66 0 -66 68zM135 893v76q0 67 66 67h73q68 0 68 -67v-76q0 -68 -68 -68h-73q-66 0 -66 68z" />
    <glyph glyph-name="semicolon" unicode=";" horiz-adv-x="559" 
d="M115 -180l90 338q15 57 76 57h63q38 0 52.5 -21.5t0.5 -56.5l-123 -338q-18 -53 -77 -53h-25q-72 0 -57 74zM217 889v80q0 67 68 67h71q68 0 68 -67v-80q0 -68 -68 -68h-71q-68 0 -68 68z" />
    <glyph glyph-name="less" unicode="&#x3c;" 
d="M121 571v23q0 60 51 80l823 366q35 14 57.5 0.5t22.5 -49.5v-41q0 -54 -53 -78l-680 -286v-4l680 -289q53 -21 53 -78v-39q0 -39 -22.5 -53.5t-57.5 2.5l-823 369q-51 20 -51 77z" />
    <glyph glyph-name="equal" unicode="=" 
d="M139 377v24q0 68 68 68h842q67 0 67 -68v-24q0 -68 -67 -68h-842q-68 0 -68 68zM139 764v24q0 68 68 68h842q67 0 67 -68v-24q0 -68 -67 -68h-842q-68 0 -68 68z" />
    <glyph glyph-name="greater" unicode="&#x3e;" 
d="M180 176v39q0 58 51 78l680 289v4l-680 286q-51 23 -51 78v41q0 38 21.5 51.5t56.5 -0.5l825 -368q52 -24 52 -80v-23q0 -56 -52 -77l-825 -369q-35 -14 -56.5 -0.5t-21.5 51.5z" />
    <glyph glyph-name="question" unicode="?" horiz-adv-x="933" 
d="M133 1292q-40 58 12 92q142 91 304 91q180 0 303 -105q125 -104 125 -270q0 -86 -34 -161t-89 -128q-17 -17 -60 -55t-65.5 -61t-52 -58t-44 -70.5t-16.5 -74.5l-2 -43q-9 -52 -65 -52h-60q-67 0 -67 68v41q0 79 36 145.5t87 114t102 93.5t87 103.5t36 122.5
q0 87 -67 145t-169 58q-92 0 -178 -51q-62 -33 -96 18zM315 68v65q0 68 68 68h72q67 0 67 -68v-65q0 -68 -67 -68h-72q-68 0 -68 68z" />
    <glyph glyph-name="at" unicode="@" horiz-adv-x="1626" 
d="M106 494q0 318 218 536q218 221 532 221q277 0 401 -118q129 -117 129 -297v-580h80q68 0 68 -68v-14q0 -68 -68 -68h-491q-186 0 -305 113t-119 275q0 156 117 270q119 113 307 113h221q-5 94 -93 152t-239 58q-233 0 -397 -176q-162 -174 -162 -417q0 -228 144 -398
q145 -167 372 -188q66 -6 66 -70v-26q0 -72 -70 -66q-309 21 -512 236q-199 211 -199 512zM752 496q0 -100 67 -170q70 -70 172 -70h205v483h-201q-105 0 -174 -70t-69 -173z" />
    <glyph glyph-name="A" unicode="A" horiz-adv-x="1271" 
d="M49 78l475 1313q18 55 76 55h98q58 0 76 -55l475 -1313q12 -35 -3 -56.5t-52 -21.5h-70q-57 0 -75 55l-129 361h-545l-127 -361q-15 -55 -74 -55h-70q-38 0 -52.5 21t-2.5 57zM428 584h438l-159 458l-56 205h-4q-40 -153 -57 -205z" />
    <glyph glyph-name="B" unicode="B" horiz-adv-x="1263" 
d="M184 68v1310q0 68 68 68h438q188 0 303 -99.5t115 -269.5q0 -105 -46.5 -186.5t-131.5 -124.5v-4q109 -32 173 -128t64 -222q0 -197 -133 -306q-130 -106 -334 -106h-448q-68 0 -68 68zM385 176h326q116 0 183 67.5t67 178.5t-69 179.5t-181 68.5h-326v-494zM385 838h305
q96 0 154.5 61t58.5 158q0 98 -57.5 155.5t-159.5 57.5h-301v-432z" />
    <glyph glyph-name="C" unicode="C" horiz-adv-x="1447" 
d="M94 731q0 316 207 529q204 210 528 210q282 0 480 -149q26 -21 26 -49q0 -21 -14 -45l-27 -41q-21 -32 -50 -32q-20 0 -44 15q-174 115 -362 115q-246 0 -392 -158q-143 -155 -143 -393q0 -237 148 -405q147 -166 389 -166q212 0 393 141q25 20 47 20q26 0 47 -28l31 -41
q17 -23 17 -44q0 -26 -27 -50q-221 -185 -514 -185q-329 0 -535 215q-205 217 -205 541z" />
    <glyph glyph-name="D" unicode="D" horiz-adv-x="1492" 
d="M184 68v1310q0 68 68 68h412q333 0 532 -193q201 -192 201 -528q0 -337 -201 -532q-199 -193 -532 -193h-412q-68 0 -68 68zM385 176h264q250 0 394.5 144.5t144.5 404.5q0 257 -144.5 401t-394.5 144h-264v-1094z" />
    <glyph glyph-name="E" unicode="E" horiz-adv-x="1136" 
d="M184 68v1310q0 68 68 68h704q68 0 68 -68v-41q0 -67 -68 -67h-571v-453h453q67 0 67 -67v-41q0 -68 -67 -68h-453v-465h606q68 0 68 -67v-41q0 -68 -68 -68h-739q-68 0 -68 68z" />
    <glyph glyph-name="F" unicode="F" horiz-adv-x="1034" 
d="M184 68v1310q0 68 68 68h661q68 0 68 -68v-41q0 -67 -68 -67h-528v-475h438q68 0 68 -68v-41q0 -68 -68 -68h-438v-550q0 -68 -68 -68h-65q-68 0 -68 68z" />
    <glyph glyph-name="G" unicode="G" horiz-adv-x="1538" 
d="M94 719q0 321 209 536q212 215 528 215q148 0 273 -39.5t203 -95.5q30 -23 30 -50q0 -20 -16 -42l-29 -43q-21 -31 -51 -31q-19 0 -43 13q-169 102 -356 102q-243 0 -391 -160t-148 -397q0 -244 152 -405q151 -160 376 -160q74 0 143.5 18.5t119 47t81.5 53.5t52 47
l16 20v203h-168q-67 0 -67 67v41q0 68 67 68h285q67 0 67 -68v-591q0 -68 -67 -68h-39q-68 0 -68 57v54l2 45h-4q-18 -23 -73 -64q-60 -47 -156.5 -80.5t-216.5 -36.5q-299 0 -504 211q-207 213 -207 533z" />
    <glyph glyph-name="H" unicode="H" horiz-adv-x="1521" 
d="M184 68v1310q0 68 68 68h65q68 0 68 -68v-569h752v569q0 68 67 68h68q65 0 65 -68v-1310q0 -68 -65 -68h-68q-67 0 -67 68v567h-752v-567q0 -68 -68 -68h-65q-68 0 -68 68z" />
    <glyph glyph-name="I" unicode="I" horiz-adv-x="569" 
d="M184 68v1310q0 68 68 68h65q68 0 68 -68v-1310q0 -68 -68 -68h-65q-68 0 -68 68z" />
    <glyph glyph-name="J" unicode="J" horiz-adv-x="1069" 
d="M45 420q0 67 68 67h69q32 0 46.5 -15.5t19.5 -53.5q6 -121 62.5 -188.5t162.5 -67.5q103 0 165 65t62 191v852h-297q-65 0 -65 67v41q0 68 65 68h431q67 0 67 -68v-962q0 -218 -127 -330q-126 -111 -299 -111q-180 0 -305 113t-125 332z" />
    <glyph glyph-name="K" unicode="K" horiz-adv-x="1239" 
d="M184 68v1310q0 68 68 68h65q68 0 68 -68v-540h217l338 563q23 45 80 45h76q41 0 54 -23.5t-7 -58.5l-375 -604v-4l401 -676q21 -35 8.5 -57.5t-53.5 -22.5h-84q-52 0 -79 47l-359 617h-217v-596q0 -68 -68 -68h-65q-68 0 -68 68z" />
    <glyph glyph-name="L" unicode="L" horiz-adv-x="1044" 
d="M184 68v1310q0 68 68 68h65q68 0 68 -68v-1202h582q67 0 67 -67v-41q0 -68 -67 -68h-715q-68 0 -68 68z" />
    <glyph glyph-name="M" unicode="M" horiz-adv-x="1730" 
d="M139 70l107 1312q6 64 69 64h93q57 0 75 -53l314 -729l71 -195h4q46 139 70 195l313 729q18 53 76 53h92q64 0 70 -64l106 -1312v-6q0 -64 -65 -64h-66q-63 0 -69 66l-66 845l-4 213h-4q-62 -177 -78 -213l-266 -598q-21 -53 -78 -53h-67q-57 0 -78 53l-266 598l-78 217
h-4q1 -44 1 -80q0 -86 -5 -137l-66 -845q-6 -66 -68 -66h-67q-66 0 -66 64v6z" />
    <glyph glyph-name="N" unicode="N" horiz-adv-x="1523" 
d="M184 68v1310q0 68 68 68h78q56 0 82 -45l616 -895q38 -58 100 -174l19 -35h4q-12 129 -12 209v872q0 68 67 68h66q67 0 67 -68v-1310q0 -68 -67 -68h-78q-57 0 -80 45l-618 893l-119 211h-4q12 -129 12 -211v-870q0 -68 -68 -68h-65q-68 0 -68 68z" />
    <glyph glyph-name="O" unicode="O" horiz-adv-x="1669" 
d="M92 733q0 313 211 524q213 213 533 213q317 0 530 -213q211 -211 211 -524q0 -323 -211 -540q-212 -218 -530 -218q-321 0 -533 218q-211 217 -211 540zM301 733q0 -241 152 -407q153 -164 383 -164q231 0 381 164q151 165 151 407q0 236 -151 393q-152 158 -381 158
q-228 0 -383 -158q-152 -158 -152 -393z" />
    <glyph glyph-name="P" unicode="P" horiz-adv-x="1220" 
d="M184 68v1310q0 68 68 68h461q200 0 325 -125q127 -124 127 -328t-127 -331t-325 -127h-328v-467q0 -68 -68 -68h-65q-68 0 -68 68zM385 711h295q130 0 205.5 75.5t75.5 206.5q0 129 -75 203t-204 74h-297v-559z" />
    <glyph glyph-name="Q" unicode="Q" horiz-adv-x="1671" 
d="M94 731q0 315 211 526q213 213 529 213q321 0 534 -213q211 -211 211 -526q0 -271 -170 -477l119 -119q26 -23 26 -48q0 -22 -20 -46l-27 -29q-26 -26 -49 -26q-22 0 -43 22l-123 123q-193 -156 -458 -156q-319 0 -531 218q-209 218 -209 538zM303 731q0 -239 152 -405
q150 -164 379 -164q188 0 315 106l-121 121q-26 22 -26 47q0 23 22 47l27 27q25 28 49 28q21 0 41 -20l123 -125q106 144 106 338q0 239 -153 395q-155 158 -383 158q-227 0 -379 -158t-152 -395z" />
    <glyph glyph-name="R" unicode="R" horiz-adv-x="1263" 
d="M184 68v1310q0 68 68 68h389q188 0 270 -39q107 -48 167.5 -147t60.5 -232q0 -141 -70 -250t-188 -147v-4q22 -26 43 -66l260 -481q20 -35 7 -57.5t-52 -22.5h-82q-59 0 -80 47l-283 528h-309v-507q0 -68 -68 -68h-65q-68 0 -68 68zM385 752h291q118 0 188 73t70 195
q0 166 -135 225q-58 25 -172 25h-242v-518z" />
    <glyph glyph-name="S" unicode="S" horiz-adv-x="1099" 
d="M150 219l34 49q22 27 49 27q20 0 43 -14q164 -117 316 -117q115 0 184.5 56.5t69.5 150.5q0 154 -246 256q-175 71 -251 119q-199 124 -199 317v6q0 179 133 291q131 110 335 110q108 0 205.5 -32t157.5 -78q30 -21 30 -52q0 -18 -10 -40l-28 -51q-19 -34 -48 -34
q-20 0 -44 15q-144 84 -267 84q-116 0 -188 -55.5t-72 -147.5q0 -29 8.5 -54.5t20.5 -45t36 -40t42.5 -33.5t54.5 -31t57.5 -27.5l64.5 -28.5t64 -28q113 -55 168 -89q81 -45 131 -127.5t50 -187.5q0 -176 -125 -295q-123 -117 -334 -117q-129 0 -243.5 43.5t-190.5 106.5
q-26 24 -26 50q0 21 18 44z" />
    <glyph glyph-name="T" unicode="T" horiz-adv-x="1218" 
d="M12 1337v41q0 68 68 68h1061q65 0 65 -68v-41q0 -67 -65 -67h-430v-1202q0 -68 -68 -68h-68q-65 0 -65 68v1202h-430q-68 0 -68 67z" />
    <glyph glyph-name="U" unicode="U" horiz-adv-x="1468" 
d="M166 512v866q0 68 67 68h68q66 0 66 -68v-864q0 -163 99 -257.5t267 -94.5t267.5 94.5t99.5 259.5v862q0 68 67 68h68q68 0 68 -68v-866q0 -240 -158 -389q-157 -148 -410 -148q-256 0 -413 148q-156 147 -156 389z" />
    <glyph glyph-name="V" unicode="V" horiz-adv-x="1275" 
d="M43 1368q-12 36 2.5 57t52.5 21h78q58 0 76 -55l340 -967l55 -199h4q25 101 56 199l344 967q18 55 75 55h76q38 0 52.5 -21t2.5 -57l-481 -1313q-18 -55 -76 -55h-98q-57 0 -78 55z" />
    <glyph glyph-name="W" unicode="W" horiz-adv-x="1935" 
d="M96 1372q-2 12 -2 23q0 51 62 51h71q61 0 76 -60l240 -1001l26 -154h4q9 56 35 154l269 1004q15 57 75 57h58q61 0 73 -57l269 -1004l32 -154h5q8 70 28 154l252 1001q15 60 76 60h70q62 0 62 -51q0 -10 -3 -23l-346 -1315q-15 -57 -76 -57h-113q-58 0 -73 57l-238 881
l-45 205h-6q-21 -112 -45 -205l-238 -881q-15 -57 -76 -57h-112q-61 0 -76 59z" />
    <glyph glyph-name="X" unicode="X" horiz-adv-x="1202" 
d="M75 22.5q-14 22.5 9 57.5l405 665l-376 621q-21 35 -8.5 57.5t53.5 22.5h86q51 0 80 -45l198 -346l92 -172h4q42 88 91 172l202 346q23 45 78 45h86q41 0 53.5 -22.5t-8.5 -57.5l-381 -621l408 -665q23 -35 10 -57.5t-55 -22.5h-80q-53 0 -80 47l-235 397l-93 166h-4
q-39 -82 -88 -166l-233 -397q-27 -47 -80 -47h-78q-42 0 -56 22.5z" />
    <glyph glyph-name="Y" unicode="Y" horiz-adv-x="1161" 
d="M49 1423.5q14 22.5 53 22.5h82q57 0 78 -47l244 -428l88 -183h4q47 110 88 183l242 428q24 47 78 47h81q39 0 53.5 -22.5t-5.5 -57.5l-439 -754v-544q0 -68 -67 -68h-68q-67 0 -67 68v544l-439 754q-20 35 -6 57.5z" />
    <glyph glyph-name="Z" unicode="Z" horiz-adv-x="1204" 
d="M66 68v20q0 44 28 86l668 965q14 22 90 118l14 15v4q-40 -6 -108 -6h-588q-68 0 -68 67v41q0 68 68 68h881q67 0 67 -66v-20q0 -47 -26 -86l-670 -967q-43 -61 -90 -114l-15 -17v-4q54 4 109 4h633q67 0 67 -67v-41q0 -68 -67 -68h-926q-67 0 -67 68z" />
    <glyph glyph-name="bracketleft" unicode="[" horiz-adv-x="583" 
d="M164 -127v1567q0 65 67 65h205q66 0 66 -65v-17q0 -67 -64 -67h-100v-1399h98q66 0 66 -68v-16q0 -68 -66 -68h-205q-67 0 -67 68z" />
    <glyph glyph-name="backslash" unicode="\" horiz-adv-x="808" 
d="M90 1448q-10 35 5 55.5t52 20.5h35q60 0 78 -56l479 -1478q10 -35 -5 -55.5t-52 -20.5h-37q-57 0 -78 55z" />
    <glyph glyph-name="bracketright" unicode="]" horiz-adv-x="583" 
d="M82 -111q0 68 65 68h99v1399h-99q-65 0 -65 67v17q0 65 65 65h205q68 0 68 -65v-1567q0 -68 -68 -68h-205q-65 0 -65 68v16z" />
    <glyph glyph-name="asciicircum" unicode="^" 
d="M188 528.5q-15 22.5 2 57.5l353 809q20 51 78 51h18q58 0 78 -51l352 -809q17 -35 1.5 -57.5t-54.5 -22.5h-35q-57 0 -78 53l-274 668l-273 -668q-21 -53 -77 -53h-37q-39 0 -54 22.5z" />
    <glyph glyph-name="underscore" unicode="_" horiz-adv-x="1126" 
d="M12 -68q0 68 68 68h967q67 0 67 -68v-24q0 -68 -67 -68h-967q-68 0 -68 68v24z" />
    <glyph glyph-name="grave" unicode="`" horiz-adv-x="1021" 
d="M384 1781q10 25 52 25h62q53 0 80 -47l79 -139q20 -29 11 -51.5t-43 -22.5h-41q-47 0 -82 41l-101 137q-27 32 -17 57z" />
    <glyph glyph-name="a" unicode="a" horiz-adv-x="1058" 
d="M59 283q0 88 43.5 157t110.5 107q58 34 156 57q137 35 309 35h53v27q0 227 -225 227q-114 0 -234 -66q-20 -9 -37 -9q-33 0 -55 34l-16 29q-13 23 -13 42q0 31 35 50q155 88 336 88q196 0 302 -105t106 -301v-587q0 -68 -68 -68h-51q-68 0 -68 68v61l7 64h-5l-4.5 -9
t-7.5 -14t-14.5 -21.5t-24.5 -31.5q-110 -142 -286 -142q-142 0 -246 84q-103 83 -103 224zM260 299q0 -70 52.5 -118t140.5 -48q123 0 200 103q80 103 80 227v45h-53q-420 0 -420 -209z" />
    <glyph glyph-name="b" unicode="b" horiz-adv-x="1212" 
d="M145 68v1310q0 68 68 68h63q66 0 66 -68v-420l-6 -88h4q1 2 4.5 8.5t7 12.5t12.5 18t23 27q116 125 291 125q205 0 328 -150q124 -148 124 -391q0 -244 -133 -395q-132 -150 -335 -150q-66 0 -125 20t-97.5 50t-63 57t-36.5 50l-10 20h-4q6 -24 6 -61v-52q0 -59 -68 -59
h-51q-68 0 -68 68zM338 518q0 -155 76 -262q77 -109 215 -109q132 0 216.5 100t84.5 269q0 167 -81 269t-212 102q-133 0 -216 -96t-83 -273z" />
    <glyph glyph-name="c" unicode="c" horiz-adv-x="1087" 
d="M76 518q0 232 155 387q156 156 398 156q201 0 342 -111q29 -19 29 -46q0 -21 -17 -46l-20 -31q-20 -30 -49 -30q-20 0 -44 14q-110 78 -231 78q-156 0 -258 -105t-102 -264q0 -158 102 -266q104 -107 262 -107q137 0 264 95q23 15 42 15q29 0 50 -34l17 -30
q14 -22 14 -41q0 -29 -33 -50q-154 -127 -368 -127q-243 0 -400 154q-153 153 -153 389z" />
    <glyph glyph-name="d" unicode="d" horiz-adv-x="1212" 
d="M80 518q0 247 131 393q132 150 338 150q65 0 122.5 -18t94.5 -45.5t59.5 -51.5t34.5 -45l10 -18h4q-6 30 -6 69v426q0 68 68 68h63q68 0 68 -68v-1310q0 -68 -68 -68h-53q-67 0 -67 63v60l4 51h-4q-26 -44 -48 -70q-111 -129 -294 -129q-208 0 -334 150
q-123 150 -123 393zM283 518q0 -167 80.5 -269t211.5 -102q133 0 216 96.5t83 276.5q0 149 -77 258t-217 109q-130 0 -213.5 -101t-83.5 -268z" />
    <glyph glyph-name="e" unicode="e" horiz-adv-x="1116" 
d="M78 518q0 242 145 393q147 150 373 150q212 0 328 -137q118 -133 118 -357q0 -30 -19.5 -49.5t-49.5 -19.5h-692q9 -164 110 -258q104 -93 248 -93q138 0 248 82q23 13 42 13q31 0 50 -35l18 -31q13 -22 13 -40q0 -29 -33 -50q-156 -111 -350 -111q-242 0 -396 154
q-153 156 -153 389zM289 629h555q-4 130 -73.5 203t-178.5 73q-117 0 -200 -74t-103 -202z" />
    <glyph glyph-name="f" unicode="f" horiz-adv-x="659" 
d="M55 932v26q0 68 68 68h65v49q0 93 29.5 165t71.5 111.5t97 64.5t97 32.5t80 7.5h25q67 0 67 -67v-39q0 -62 -71 -68q-67 -3 -127 -37q-70 -41 -70 -178v-41h178q68 0 68 -68v-26q0 -68 -68 -68h-178v-796q0 -68 -68 -68h-63q-68 0 -68 68v796h-65q-68 0 -68 68z" />
    <glyph glyph-name="g" unicode="g" horiz-adv-x="1198" 
d="M82 545q0 225 121 370q125 146 342 146q70 0 130 -17.5t96.5 -44t58 -50.5t30.5 -44l8 -18h4q-4 16 -4 33v59q0 57 68 57h49q68 0 68 -67v-926q0 -235 -152 -354q-149 -119 -362 -119q-172 0 -301 57q-43 19 -43 56q0 15 8 34l14 35q19 41 55 41q14 0 31 -6
q116 -45 225 -45q149 0 237.5 73.5t88.5 217.5v90l6 65h-4q-95 -176 -307 -176q-214 0 -340 150q-127 151 -127 383zM285 553q0 -168 80 -268.5t219 -100.5q127 0 200.5 88t73.5 267q0 350 -287 350q-135 0 -210.5 -89.5t-75.5 -246.5z" />
    <glyph glyph-name="h" unicode="h" horiz-adv-x="1212" 
d="M145 68v1310q0 68 68 68h63q66 0 66 -68v-469l-6 -86h4q42 91 143 164q103 74 244 74q356 0 356 -397v-596q0 -68 -67 -68h-64q-67 0 -67 68v550q0 132 -43.5 196.5t-153.5 64.5q-149 0 -248 -111q-98 -107 -98 -276v-424q0 -68 -66 -68h-63q-68 0 -68 68z" />
    <glyph glyph-name="i" unicode="i" horiz-adv-x="485" 
d="M141 1311v67q0 68 68 68h70q67 0 67 -68v-67q0 -68 -67 -68h-70q-68 0 -68 68zM143 68v901q0 67 68 67h63q68 0 68 -67v-901q0 -68 -68 -68h-63q-68 0 -68 68z" />
    <glyph glyph-name="j" unicode="j" horiz-adv-x="487" 
d="M-123 -317q0 58 68 67q29 1 53 6t52.5 19.5t48 38t33 65.5t13.5 98v992q0 67 68 67h63q66 0 66 -67v-1000q0 -97 -30 -171.5t-72 -114.5t-97 -65t-96 -32.5t-78 -7.5h-24q-68 0 -68 68v37zM141 1311v67q0 68 68 68h70q67 0 67 -68v-67q0 -68 -67 -68h-70q-68 0 -68 68z
" />
    <glyph glyph-name="k" unicode="k" horiz-adv-x="1042" 
d="M145 68v1310q0 68 68 68h63q66 0 66 -68v-721h150l251 336q27 43 80 43h76q41 0 53.5 -25t-12.5 -57l-287 -374v-5l332 -493q23 -35 10 -58.5t-55 -23.5h-82q-53 0 -80 47l-282 438h-154v-417q0 -68 -66 -68h-63q-68 0 -68 68z" />
    <glyph glyph-name="l" unicode="l" horiz-adv-x="536" 
d="M143 283v1095q0 68 68 68h63q68 0 68 -68v-1071q0 -128 94 -137q53 -6 53 -59v-50q0 -69 -69 -69q-277 0 -277 291z" />
    <glyph glyph-name="m" unicode="m" horiz-adv-x="1847" 
d="M143 68v901q0 67 68 67h57q68 0 68 -67v-92l-6 -60h4q42 99 141 170q103 74 219 74q257 0 312 -236h4q49 100 145 166q101 70 221 70q176 0 259 -97.5t83 -299.5v-596q0 -68 -67 -68h-64q-67 0 -67 68v553q0 131 -41 195.5t-142 64.5q-137 0 -223 -121q-84 -122 -84 -277
v-415q0 -68 -65 -68h-66q-65 0 -65 68v553q0 132 -39 196t-142 64q-139 0 -225 -121t-86 -277v-415q0 -68 -68 -68h-63q-68 0 -68 68z" />
    <glyph glyph-name="n" unicode="n" horiz-adv-x="1210" 
d="M143 68v901q0 67 68 67h57q68 0 68 -67v-92l-6 -60h4q42 92 141 166q104 78 252 78q354 0 354 -397v-596q0 -68 -67 -68h-64q-67 0 -67 68v550q0 133 -42.5 197t-152.5 64q-149 0 -248 -111q-98 -110 -98 -272v-428q0 -68 -68 -68h-63q-68 0 -68 68z" />
    <glyph glyph-name="o" unicode="o" horiz-adv-x="1267" 
d="M76 520q0 235 162 387q165 154 395 154q232 0 397 -154q162 -152 162 -387q0 -233 -164 -389q-163 -156 -395 -156q-231 0 -395 156q-162 155 -162 389zM276 520q0 -158 105 -266q104 -107 252 -107q150 0 252 105q104 107 104 268q0 160 -104 264q-102 105 -252 105
q-147 0 -252 -105t-105 -264z" />
    <glyph glyph-name="p" unicode="p" horiz-adv-x="1212" 
d="M145 -342v1311q0 67 68 67h47q68 0 68 -57v-61l-4 -56h4q1 2 4.5 8.5l7 13t12.5 19t23 27.5q114 131 301 131q207 0 330 -150q124 -148 124 -393q0 -242 -133 -393q-132 -150 -335 -150q-64 0 -121 18.5t-95 46.5t-61 52.5t-35 46.5l-10 21h-4q6 -38 6 -90v-412
q0 -68 -66 -68h-63q-68 0 -68 68zM338 514q0 -145 78 -258q80 -109 215 -109q130 0 214.5 101t84.5 268t-81 269t-212 102q-133 0 -216 -96.5t-83 -276.5z" />
    <glyph glyph-name="q" unicode="q" horiz-adv-x="1212" 
d="M80 518q0 247 131 393q132 150 340 150q69 0 128 -19t97.5 -49.5t60.5 -55.5t35 -48l11 -21h4q-4 32 -4 58v53q0 57 67 57h49q68 0 68 -67v-1311q0 -68 -68 -68h-63q-68 0 -68 68v420l6 90h-4q-1 -2 -4.5 -8.5t-7 -12t-12.5 -18.5t-23 -29q-103 -125 -291 -125
q-201 0 -327 150q-125 149 -125 393zM283 518q0 -167 80.5 -269t211.5 -102q133 0 216 96.5t83 276.5q0 149 -77 258t-217 109q-130 0 -213.5 -101t-83.5 -268z" />
    <glyph glyph-name="r" unicode="r" horiz-adv-x="729" 
d="M143 68v901q0 67 68 67h57q68 0 68 -67v-119l-6 -78h4q38 117 124 194.5t193 77.5q66 0 66 -67v-57q0 -68 -74 -68q-143 0 -223 -129q-78 -128 -78 -295v-360q0 -68 -68 -68h-63q-68 0 -68 68z" />
    <glyph glyph-name="s" unicode="s" horiz-adv-x="899" 
d="M125 180l20 29q21 29 50 29q21 0 45 -15q131 -84 254 -84q80 0 128 36t48 101q0 95 -191 158q-57 20 -95 34.5t-90 44t-83 61.5q-31 30 -54 80q-22 47 -22 103q0 148 107 224q109 80 268 80q160 0 287 -80q36 -17 36 -47q0 -19 -14 -43l-18 -31q-17 -32 -49 -32
q-18 0 -41 10q-106 59 -211 59q-79 0 -126.5 -34.5t-47.5 -96.5q0 -97 188 -160q43 -14 68.5 -23.5t66.5 -27t66.5 -34t56 -42t47.5 -53t29 -65t12 -80.5q0 -135 -104 -220q-103 -86 -269 -86q-199 0 -348 113q-30 20 -30 47q0 21 16 45z" />
    <glyph glyph-name="t" unicode="t" horiz-adv-x="700" 
d="M55 932v26q0 68 68 68h74v227q0 68 67 68h60q67 0 67 -68v-227h180q68 0 68 -68v-26q0 -68 -66 -68h-182v-461q0 -218 197 -233q41 -5 56 -19t15 -49v-43q0 -67 -81 -67q-171 0 -278 100t-107 281v491h-72q-66 0 -66 68z" />
    <glyph glyph-name="u" unicode="u" horiz-adv-x="1202" 
d="M131 373v596q0 67 68 67h63q66 0 66 -67v-551q0 -130 43 -194t151 -64q154 0 246 114q92 115 92 277v418q0 67 68 67h63q68 0 68 -67v-901q0 -68 -68 -68h-57q-68 0 -68 68v92l6 59h-4q-40 -91 -143 -168q-101 -76 -242 -76q-178 0 -265 98t-87 300z" />
    <glyph glyph-name="v" unicode="v" horiz-adv-x="1021" 
d="M51 958q-12 35 2 56.5t51 21.5h70q58 0 76 -55l233 -645l37 -141h4q16 71 37 141l234 645q18 55 75 55h70q37 0 51.5 -21.5t1.5 -56.5l-336 -905q-18 -53 -75 -53h-115q-58 0 -76 53z" />
    <glyph glyph-name="w" unicode="w" horiz-adv-x="1644" 
d="M57 961q-10 35 5.5 55t52.5 20h67q61 0 76 -57l203 -670l24 -110h4q6 30 29 110l209 668q12 57 74 57h63q61 0 76 -57l209 -668l27 -110h4q6 41 26 110l203 670q12 57 74 57h67q37 0 52.5 -20t5.5 -55l-293 -904q-15 -57 -76 -57h-100q-61 0 -76 57l-199 609l-28 112h-5
q-13 -61 -30 -112l-197 -609q-15 -57 -76 -57h-102q-61 0 -76 57z" />
    <glyph glyph-name="x" unicode="x" horiz-adv-x="989" 
d="M74 23.5q-13 23.5 10 58.5l301 450l-283 422q-23 35 -10 58.5t55 23.5h78q54 0 78 -47l168 -268l33 -62h4q6 10 35 62l166 268q27 47 79 47h76q42 0 55 -23.5t-10 -58.5l-280 -422l301 -450q23 -35 10 -58.5t-55 -23.5h-74q-53 0 -80 47l-190 299l-33 57h-4
q-11 -24 -31 -57l-190 -299q-27 -47 -80 -47h-74q-42 0 -55 23.5z" />
    <glyph glyph-name="y" unicode="y" horiz-adv-x="1028" 
d="M55 -309l17 35q16 38 52 38q10 0 23 -4q61 -22 82 -22q58 0 105 43t74 113l51 118l-402 946q-13 35 1 56.5t51 21.5h79q58 0 76 -53l244 -625l37 -125h4q12 55 35 123l235 625q18 55 76 55h74q37 0 51.5 -21.5t1.5 -56.5l-457 -1140q-44 -117 -134 -182.5t-202 -65.5
q-67 0 -143 33q-40 16 -40 51q0 17 9 37z" />
    <glyph glyph-name="z" unicode="z" horiz-adv-x="1024" 
d="M63 57v17q0 38 29 78l494 618l86 96v4q-46 -4 -101 -4h-417q-68 0 -68 68v35q0 67 68 67h718q68 0 68 -57v-16q0 -38 -29 -78l-493 -621l-88 -94v-4q46 4 100 4h459q67 0 67 -66v-36q0 -68 -67 -68h-758q-68 0 -68 57z" />
    <glyph glyph-name="braceleft" unicode="{" horiz-adv-x="665" 
d="M55 637v59q0 47 56 74q118 58 118 211v170q0 106 33 185t86 112q88 61 172 61h23q67 0 67 -67v-25q0 -67 -67 -67q-140 0 -140 -215v-205q0 -45 -11.5 -85t-28.5 -67.5t-38.5 -49.5t-38.5 -34t-32 -18l-16 -6v-4l8 -4q9 -3 24 -11.5t32 -21t35 -33.5t32.5 -47t24 -63
t9.5 -80v-232q0 -68 15.5 -115t40 -66.5t44.5 -26.5t40 -7q67 0 67 -68v-24q0 -68 -67 -68h-23q-82 0 -172 62q-53 33 -86 112t-33 185v196q0 155 -118 207q-56 27 -56 76z" />
    <glyph glyph-name="bar" unicode="|" horiz-adv-x="497" 
d="M162 -258v1812q0 68 67 68h39q68 0 68 -68v-1812q0 -68 -68 -68h-39q-67 0 -67 68z" />
    <glyph glyph-name="braceright" unicode="}" horiz-adv-x="667" 
d="M55 -109q0 68 68 68q15 0 30.5 3.5t36 16.5t35.5 35t26 63.5t11 96.5v232q0 58 16.5 106.5t42 77.5t47.5 45.5t42 23.5l18 7v4l-8 4q-9 3 -24 12t-32.5 22t-35.5 34t-32.5 46.5t-24 62.5t-9.5 79v205q0 215 -139 215q-68 0 -68 67v25q0 67 68 67h22q29 0 61 -7t74.5 -30
t76 -60t56.5 -105t23 -156v-170q0 -153 119 -211q55 -27 55 -74v-59q0 -49 -55 -76q-119 -52 -119 -207v-196q0 -88 -23 -156t-56.5 -105t-76 -60.5t-75 -30.5t-60.5 -7h-22q-68 0 -68 68v24z" />
    <glyph glyph-name="asciitilde" unicode="~" horiz-adv-x="1206" 
d="M133 506q35 258 281 258q67 0 126 -29.5t93 -70.5q85 -101 174 -101q100 0 127 129q21 64 72 64h30q32 0 50 -20t14 -52q-27 -274 -281 -274q-67 0 -126 28.5t-93 69.5q-34 42 -80 71t-94 29q-100 0 -127 -129q-21 -61 -72 -61h-30q-76 0 -64 88z" />
    <glyph glyph-name="uni00A0" unicode="&#xa0;" horiz-adv-x="512" 
 />
    <glyph glyph-name="exclamdown" unicode="&#xa1;" horiz-adv-x="518" 
d="M156 903v66q0 67 67 67h70q67 0 67 -67v-66q0 -67 -67 -67h-70q-67 0 -67 67zM158 -342l10 913q3 68 70 68h45q67 0 67 -68l10 -913q0 -68 -65 -68h-70q-67 0 -67 68z" />
    <glyph glyph-name="cent" unicode="&#xa2;" horiz-adv-x="1144" 
d="M98 723q0 228 117 387q115 161 313 188v105q0 67 66 67h16q64 0 64 -57v-115q113 -13 208.5 -83t147.5 -171q31 -60 -35 -88l-57 -22q-54 -19 -88 33q-88 147 -240 147q-146 0 -227.5 -106.5t-81.5 -286.5q0 -172 80 -281q78 -106 229 -106q152 0 240 147q36 51 88 33
l57 -22q66 -28 35 -89q-53 -102 -148.5 -172.5t-207.5 -80.5v-109q0 -68 -64 -68h-16q-66 0 -66 68v109q-196 27 -313 186q-117 164 -117 387z" />
    <glyph glyph-name="sterling" unicode="&#xa3;" horiz-adv-x="1183" 
d="M109 68v41q0 67 67 67h62v477h-43q-62 0 -62 66v12q0 66 62 66h43v278q0 171 124 283t320 112q152 0 289 -88q55 -40 8 -94l-31 -41q-36 -44 -94 -10q-82 49 -170 49q-109 0 -175.5 -62t-66.5 -157v-270h310q67 0 67 -66v-12q0 -66 -67 -66h-310v-477h598q68 0 68 -67
v-41q0 -68 -68 -68h-864q-67 0 -67 68z" />
    <glyph glyph-name="yen" unicode="&#xa5;" horiz-adv-x="1208" 
d="M88.5 1423.5q13.5 22.5 54.5 22.5h84q58 0 78 -51l221 -400l88 -209h4q48 125 89 209l221 400q20 51 78 51h84q41 0 54.5 -22.5t-5.5 -57.5l-297 -526h141q68 0 68 -58v-12q0 -59 -68 -59h-211l-53 -99v-75h264q68 0 68 -58v-12q0 -59 -68 -59h-264v-340q0 -68 -68 -68
h-69q-68 0 -68 68v340h-266q-68 0 -68 59v12q0 58 68 58h266v75l-55 99h-211q-68 0 -68 59v12q0 58 60 58h151l-297 526q-19 35 -5.5 57.5z" />
    <glyph glyph-name="section" unicode="&#xa7;" horiz-adv-x="899" 
d="M166 1120q0 156 105.5 253t281.5 97q127 0 233 -65q57 -36 17 -94l-19 -25q-34 -43 -92 -16q-75 35 -139 35q-99 0 -159 -54.5t-60 -152.5q0 -36 12 -82l121 -715q7 -35 -8.5 -54.5t-50.5 -19.5h-25q-62 0 -74 60l-133 739q-10 58 -10 94zM172 33l16 26q34 49 93 19
q62 -39 143 -39q96 0 156.5 57.5t60.5 157.5q0 40 -12 92l-119 696q-7 35 8.5 54.5t50.5 19.5h25q62 0 74 -59l131 -740q10 -62 10 -92q0 -157 -105 -254.5t-282 -97.5q-125 0 -234 68q-57 33 -16 92z" />
    <glyph glyph-name="dieresis" unicode="&#xa8;" horiz-adv-x="1021" 
d="M258 1667v72q0 67 68 67h28q68 0 68 -67v-72q0 -68 -68 -68h-28q-68 0 -68 68zM600 1667v72q0 67 68 67h28q68 0 68 -67v-72q0 -68 -68 -68h-28q-68 0 -68 68z" />
    <glyph glyph-name="copyright" unicode="&#xa9;" horiz-adv-x="1671" 
d="M104 723q0 311 211 528q213 219 516 219q305 0 521 -219q215 -218 215 -528q0 -312 -215 -530t-521 -218q-304 0 -516 218q-211 217 -211 530zM254 723q0 -257 166 -432q170 -176 411 -176q246 0 416 176t170 432t-170 432t-416 176q-241 0 -411 -176
q-166 -175 -166 -432zM444 721q0 169 111 289q114 120 295 120q93 0 171 -41.5t124 -101.5q34 -46 -6 -76l-27 -22q-40 -34 -82 14q-77 86 -176 86q-116 0 -186 -76t-70 -194q0 -116 69 -191t187 -75q109 0 184 90q37 42 74 8l25 -19q41 -35 8 -79q-121 -142 -295 -142
q-185 0 -295 119q-111 120 -111 291z" />
    <glyph glyph-name="ordfeminine" unicode="&#xaa;" horiz-adv-x="819" 
d="M127 598v8q0 53 68 53h428q67 0 67 -53v-8q0 -55 -67 -55h-428q-68 0 -68 55zM127 983q0 223 387 223h21v13q0 129 -129 129q-59 0 -123 -31q-55 -22 -76 18l-6 13q-27 49 32 75q85 43 189 43q127 0 193.5 -66.5t66.5 -191.5v-344q0 -67 -61 -67h-9q-63 0 -63 63v43h-4
q-5 -13 -21 -35q-16 -26 -67 -56t-105 -30q-94 0 -159.5 55t-65.5 146zM276 991q0 -38 28.5 -63t76.5 -25q65 0 109.5 55t44.5 127v17h-25q-234 0 -234 -111z" />
    <glyph glyph-name="guillemotleft" unicode="&#xab;" horiz-adv-x="1071" 
d="M143 530q-41 48 0 95l265 336q32 38 84 38h40q43 0 54 -24.5t-15 -56.5l-268 -340l268 -338q27 -35 19 -58.5t-49 -23.5h-49q-51 0 -84 39zM555 530q-38 48 0 95l266 336q32 38 82 38h43q43 0 54 -24.5t-15 -56.5l-268 -340l268 -338q29 -35 19 -58.5t-52 -23.5h-49
q-49 0 -82 39z" />
    <glyph glyph-name="logicalnot" unicode="&#xac;" horiz-adv-x="1263" 
d="M135 764v24q0 68 68 68h841q68 0 68 -68v-411q0 -68 -68 -68h-30q-68 0 -68 68v319h-743q-68 0 -68 68z" />
    <glyph glyph-name="uni00AD" unicode="&#xad;" horiz-adv-x="860" 
d="M131 563v41q0 68 68 68h463q67 0 67 -68v-41q0 -67 -67 -67h-463q-68 0 -68 67z" />
    <glyph glyph-name="registered" unicode="&#xae;" horiz-adv-x="1671" 
d="M104 723q0 309 213 528t514 219q308 0 521 -219q215 -218 215 -528q0 -312 -215 -530q-212 -218 -521 -218q-302 0 -514 218q-213 219 -213 530zM254 723q0 -257 166 -432q170 -176 411 -176q246 0 416 176t170 432t-170 432t-416 176q-241 0 -411 -176
q-166 -175 -166 -432zM582 406v638q0 68 67 68h232q109 0 175 -64.5t66 -170.5q0 -78 -41.5 -134.5t-99.5 -70.5v-4q10 -10 27 -43l106 -207q19 -35 8.5 -56.5t-45.5 -21.5h-24q-59 0 -80 49l-119 250h-127v-233q0 -66 -63 -66h-19q-63 0 -63 66zM727 745h123q60 0 92.5 35
t32.5 97q0 59 -32.5 91.5t-90.5 32.5h-125v-256z" />
    <glyph glyph-name="macron" unicode="&#xaf;" horiz-adv-x="1021" 
d="M250 1671v15q0 65 67 65h388q67 0 67 -65v-15q0 -65 -67 -65h-388q-67 0 -67 65z" />
    <glyph glyph-name="degree" unicode="&#xb0;" horiz-adv-x="782" 
d="M80 1167q0 123 90 213q93 90 221 90q126 0 219 -90q92 -89 92 -213q0 -126 -92 -215q-91 -88 -219 -88q-133 0 -221 88q-90 90 -90 215zM240 1167.5q0 -64.5 43 -108.5q44 -43 108 -43t107 43q44 44 44 108.5t-44 108.5q-43 44 -107 44t-108 -44q-43 -44 -43 -108.5z" />
    <glyph glyph-name="plusminus" unicode="&#xb1;" 
d="M86 571v25q0 68 68 68h391v436q0 67 67 67h33q68 0 68 -67v-436h389q67 0 67 -68v-25q0 -67 -67 -67h-389v-436q0 -68 -68 -68h-33q-67 0 -67 68v436h-391q-68 0 -68 67zM119 -262q0 67 67 67h883q68 0 68 -67v-25q0 -67 -68 -67h-883q-67 0 -67 67v25z" />
    <glyph glyph-name="uni00B2" unicode="&#xb2;" horiz-adv-x="731" 
d="M59 940q0 70 24 129t62.5 99.5t84.5 75.5t92.5 64.5t85 58t62.5 64.5t24 76q0 42 -25.5 75.5t-64 48t-89 4.5t-96.5 -48q-51 -40 -92 -2l-8 6q-51 45 -4 92q108 99 239 99q129 0 211 -76q84 -75 84 -193q0 -60 -22.5 -111t-59 -87t-80.5 -67.5t-88.5 -59t-81.5 -55
t-62 -61t-28 -71.5h369q68 0 68 -63v-8q0 -64 -68 -64h-469q-68 0 -68 74z" />
    <glyph glyph-name="uni00B3" unicode="&#xb3;" horiz-adv-x="731" 
d="M111 1026l8 10q33 42 90 13q71 -62 162 -62q68 0 118 45.5t50 110.5q0 64 -51.5 104.5t-122.5 40.5h-27q-51 0 -65.5 39t18.5 82l145 168l51 49v4q-41 -6 -73 -6h-224q-67 0 -67 66v8q0 63 67 63h422q68 0 68 -49v-10q0 -37 -33 -76l-190 -221q106 -18 171.5 -85
t65.5 -177q0 -119 -90 -209q-88 -88 -227 -88q-153 0 -256 92q-51 35 -10 88z" />
    <glyph glyph-name="acute" unicode="&#xb4;" horiz-adv-x="1021" 
d="M376.5 1568.5q-12.5 22.5 6.5 53.5l82 137q27 47 80 47h59q42 0 53 -25t-16 -57l-100 -137q-35 -41 -82 -41h-35q-35 0 -47.5 22.5z" />
    <glyph glyph-name="mu" unicode="&#xb5;" horiz-adv-x="1290" 
d="M174 -342v1311q0 67 68 67h63q66 0 66 -67v-551q0 -131 42.5 -194.5t149.5 -63.5q157 0 248 114q92 115 92 277v418q0 67 68 67h63q68 0 68 -67v-901q0 -68 -68 -68h-57q-68 0 -68 68v86l4 59h-4q-28 -60 -108 -135q-46 -46 -119.5 -74.5t-157.5 -28.5q-56 0 -102.5 15.5
t-65.5 34.5l-16 14h-4q14 -95 14 -160v-221q0 -68 -67 -68h-41q-68 0 -68 68z" />
    <glyph glyph-name="paragraph" unicode="&#xb6;" horiz-adv-x="1210" 
d="M74 971q0 198 141 336q145 139 344 139h488q67 0 67 -68v-41q0 -67 -67 -67h-334v-1305q0 -67 -68 -67h-18q-68 0 -68 67v529q-199 0 -342 137t-143 340zM840 -35v1120q0 68 67 68h19q67 0 67 -68v-1120q0 -67 -67 -67h-19q-67 0 -67 67z" />
    <glyph glyph-name="periodcentered" unicode="&#xb7;" horiz-adv-x="473" 
d="M133 553v82q0 67 66 67h73q68 0 68 -67v-82q0 -68 -68 -68h-73q-66 0 -66 68z" />
    <glyph glyph-name="cedilla" unicode="&#xb8;" horiz-adv-x="1021" 
d="M356 -365q0 62 37 62q4 0 24 -3t29 -3q89 0 89 65q0 57 -97 66q-47 3 -32 57l38 160h109l-29 -141q67 -8 107.5 -48t40.5 -102q0 -84 -58 -128t-151 -44q-107 0 -107 59z" />
    <glyph glyph-name="uni00B9" unicode="&#xb9;" horiz-adv-x="620" 
d="M72 930v8q0 63 59 63h131v510l4 54h-4q-4 -10 -35 -41l-43 -43q-34 -27 -65 4l-17 18q-40 45 7 92l133 131q35 35 84 35h22q68 0 68 -67v-693h121q67 0 67 -63v-8q0 -64 -67 -64h-398q-67 0 -67 64z" />
    <glyph glyph-name="ordmasculine" unicode="&#xba;" horiz-adv-x="927" 
d="M113 1130q0 148 102 242q104 96 248 96t248 -96q102 -95 102 -242q0 -148 -102 -247q-105 -97 -248 -97q-145 0 -250 97q-100 97 -100 247zM145 598v8q0 53 68 53h504q67 0 67 -53v-8q0 -55 -67 -55h-504q-68 0 -68 55zM262 1130q0 -91 57.5 -150.5t143.5 -59.5
t143.5 59.5t57.5 150.5q0 90 -57.5 148.5t-143.5 58.5t-143.5 -58.5t-57.5 -148.5z" />
    <glyph glyph-name="guillemotright" unicode="&#xbb;" horiz-adv-x="1071" 
d="M117.5 974.5q9.5 24.5 50.5 24.5h49q50 0 82 -38l266 -336q41 -47 0 -95l-266 -333q-33 -39 -82 -39h-43q-43 0 -54 23.5t15 58.5l268 338l-268 340q-27 32 -17.5 56.5zM530 974.5q10 24.5 52 24.5h49q50 0 82 -38l266 -336q38 -47 0 -95l-266 -333q-33 -39 -82 -39h-43
q-43 0 -54 23.5t15 58.5l268 338l-268 340q-29 32 -19 56.5z" />
    <glyph glyph-name="onequarter" unicode="&#xbc;" horiz-adv-x="1927" 
d="M111 616v9q0 63 59 63h131v510l4 53h-4q-4 -10 -35 -41l-43 -43q-34 -27 -65 4l-17 19q-40 46 6 92l134 131q35 35 84 35h22q68 0 68 -68v-692h120q68 0 68 -63v-9q0 -63 -68 -63h-397q-67 0 -67 63zM556.5 22.5q-10.5 22.5 6.5 57.5l627 1317q21 49 80 49h22
q35 0 44.5 -21.5t-7.5 -58.5l-624 -1315q-23 -51 -80 -51h-25q-33 0 -43.5 22.5zM1159 270v19q0 33 25 69l356 494q27 43 82 43h45q68 0 68 -68v-473h71q60 0 60 -63v-8q0 -64 -60 -64h-71v-151q0 -68 -68 -68h-16q-68 0 -68 68v151h-356q-68 0 -68 51zM1325 354h258v252
l8 119h-4q-27 -55 -61 -98l-201 -269v-4z" />
    <glyph glyph-name="onehalf" unicode="&#xbd;" horiz-adv-x="1896" 
d="M106 616v9q0 63 60 63h131v510l4 53h-4q-4 -10 -35 -41l-43 -43q-34 -27 -65 4l-17 19q-40 46 6 92l133 131q35 35 84 35h23q68 0 68 -68v-692h120q68 0 68 -63v-9q0 -63 -68 -63h-397q-68 0 -68 63zM554.5 22.5q-10.5 22.5 6.5 57.5l627 1317q21 49 80 49h22
q35 0 44.5 -21.5t-7.5 -58.5l-625 -1315q-23 -51 -79 -51h-25q-33 0 -43.5 22.5zM1214 74q0 70 24 129t62.5 99.5t85 75.5t92.5 64.5t84.5 58t62.5 64.5t24 76q0 42 -25.5 75.5t-64 48t-89 4.5t-96.5 -48q-51 -40 -92 -2l-8 6q-51 45 -4 92q107 98 239 98q130 0 211 -75
q84 -75 84 -193q0 -60 -22.5 -111t-59 -87t-80.5 -67.5t-88.5 -59t-81.5 -55t-62 -61t-28 -71.5h369q68 0 68 -63v-9q0 -63 -68 -63h-469q-68 0 -68 74z" />
    <glyph glyph-name="threequarters" unicode="&#xbe;" horiz-adv-x="1957" 
d="M143 713l9 10q33 41 90 12q70 -61 161 -61q68 0 118 45t50 110q0 64 -51.5 105t-122.5 41h-26q-51 0 -65.5 39t18.5 82l145 168l51 49v4q-41 -6 -74 -6h-223q-67 0 -67 65v8q0 64 67 64h422q68 0 68 -49v-10q0 -37 -33 -76l-191 -221q106 -18 172 -85.5t66 -177.5
q0 -118 -90 -208q-89 -89 -227 -89q-152 0 -256 93q-51 36 -11 88zM616.5 22.5q-10.5 22.5 6.5 57.5l626 1317q21 49 80 49h23q35 0 44.5 -21.5t-7.5 -58.5l-625 -1315q-23 -51 -80 -51h-25q-32 0 -42.5 22.5zM1221 270v19q0 35 24 69l357 494q27 43 81 43h46q67 0 67 -68
v-473h72q59 0 59 -63v-8q0 -64 -59 -64h-72v-151q0 -68 -67 -68h-17q-67 0 -67 68v151h-357q-67 0 -67 51zM1386 354h259v252l8 119h-4q-25 -51 -62 -98l-201 -269v-4z" />
    <glyph glyph-name="questiondown" unicode="&#xbf;" horiz-adv-x="942" 
d="M121 -63q0 86 34 160.5t89 127.5q16 16 59.5 55t65.5 61.5t51.5 58t44 71t16.5 74.5l2 43q9 51 66 51h59q68 0 68 -68v-41q0 -79 -36 -145.5t-87 -114t-102 -93.5t-87 -103.5t-36 -122.5q0 -87 66.5 -145t168.5 -58q92 0 178 51q63 34 97 -18l26 -37q40 -58 -12 -92
q-140 -90 -303 -90q-180 0 -305 104q-123 105 -123 271zM475 903v66q0 67 68 67h71q68 0 68 -67v-66q0 -67 -68 -67h-71q-68 0 -68 67z" />
    <glyph glyph-name="Agrave" unicode="&#xc0;" horiz-adv-x="1271" 
d="M49 78l475 1313q18 55 76 55h98q58 0 76 -55l475 -1313q12 -35 -3 -56.5t-52 -21.5h-70q-57 0 -75 55l-129 361h-545l-127 -361q-15 -55 -74 -55h-70q-38 0 -52.5 21t-2.5 57zM419 1781q10 25 52 25h62q53 0 80 -47l79 -139q20 -29 11 -51.5t-43 -22.5h-41q-47 0 -82 41
l-101 137q-27 32 -17 57zM428 584h438l-159 458l-56 205h-4q-40 -153 -57 -205z" />
    <glyph glyph-name="Aacute" unicode="&#xc1;" horiz-adv-x="1271" 
d="M49 78l475 1313q18 55 76 55h98q58 0 76 -55l475 -1313q12 -35 -3 -56.5t-52 -21.5h-70q-57 0 -75 55l-129 361h-545l-127 -361q-15 -55 -74 -55h-70q-38 0 -52.5 21t-2.5 57zM428 584h438l-159 458l-56 205h-4q-40 -153 -57 -205zM593.5 1568.5q-12.5 22.5 6.5 53.5
l82 137q27 47 80 47h59q42 0 53 -25t-16 -57l-100 -137q-35 -41 -82 -41h-35q-35 0 -47.5 22.5z" />
    <glyph glyph-name="Acircumflex" unicode="&#xc2;" horiz-adv-x="1271" 
d="M49 78l475 1313q18 55 76 55h98q58 0 76 -55l475 -1313q12 -35 -3 -56.5t-52 -21.5h-70q-57 0 -75 55l-129 361h-545l-127 -361q-15 -55 -74 -55h-70q-38 0 -52.5 21t-2.5 57zM406.5 1569.5q-9.5 23.5 13.5 58.5l94 133q29 45 84 45h100q56 0 82 -45l97 -133
q23 -35 14 -58.5t-45 -23.5h-45q-46 0 -72 45l-80 119h-4l-80 -119q-23 -45 -71 -45h-41q-37 0 -46.5 23.5zM428 584h438l-159 458l-56 205h-4q-40 -153 -57 -205z" />
    <glyph glyph-name="Atilde" unicode="&#xc3;" horiz-adv-x="1271" 
d="M49 78l475 1313q18 55 76 55h98q58 0 76 -55l475 -1313q12 -35 -3 -56.5t-52 -21.5h-70q-57 0 -75 55l-129 361h-545l-127 -361q-15 -55 -74 -55h-70q-38 0 -52.5 21t-2.5 57zM309 1614q0 85 53.5 139.5t139.5 54.5q36 0 71 -14.5t61.5 -35t50 -40.5t46.5 -34.5t43 -14.5
q34 0 54 26t22 66q3 41 61 41h17q59 0 59 -57q0 -92 -52 -147.5t-140 -55.5q-44 0 -87.5 21.5t-71.5 48t-59.5 48t-54.5 21.5q-75 0 -78 -92q-6 -41 -59 -41h-16q-60 0 -60 66zM428 584h438l-159 458l-56 205h-4q-40 -153 -57 -205z" />
    <glyph glyph-name="Adieresis" unicode="&#xc4;" horiz-adv-x="1271" 
d="M49 78l475 1313q18 55 76 55h98q58 0 76 -55l475 -1313q12 -35 -3 -56.5t-52 -21.5h-70q-57 0 -75 55l-129 361h-545l-127 -361q-15 -55 -74 -55h-70q-38 0 -52.5 21t-2.5 57zM395 1667v72q0 67 68 67h29q67 0 67 -67v-72q0 -68 -67 -68h-29q-68 0 -68 68zM428 584h438
l-159 458l-56 205h-4q-40 -153 -57 -205zM737 1667v72q0 67 68 67h29q67 0 67 -67v-72q0 -68 -67 -68h-29q-68 0 -68 68z" />
    <glyph glyph-name="Aring" unicode="&#xc5;" horiz-adv-x="1271" 
d="M49 78l475 1313q18 55 76 55h98q58 0 76 -55l475 -1313q12 -35 -3 -56.5t-52 -21.5h-70q-57 0 -75 55l-129 361h-545l-127 -361q-15 -55 -74 -55h-70q-38 0 -52.5 21t-2.5 57zM428 584h438l-159 458l-56 205h-4q-40 -153 -57 -205zM475 1673q0 68 50.5 111t123.5 43
t123.5 -43t50.5 -111q0 -66 -50.5 -108.5t-123.5 -42.5t-123.5 42.5t-50.5 108.5zM581 1673q0 -29 18.5 -48t49.5 -19q29 0 48.5 19t19.5 48q0 32 -19 52t-49 20q-31 0 -49.5 -20t-18.5 -52z" />
    <glyph glyph-name="AE" unicode="&#xc6;" horiz-adv-x="1759" 
d="M41 78l543 1317q20 51 78 51h933q68 0 68 -68v-41q0 -67 -68 -67h-571v-453h453q67 0 67 -67v-41q0 -68 -67 -68h-453v-465h606q68 0 68 -67v-41q0 -68 -68 -68h-739q-68 0 -68 68v575h-348l-235 -590q-21 -53 -78 -53h-70q-36 0 -50.5 22.5t-0.5 55.5zM543 811h280v459
h-96z" />
    <glyph glyph-name="Ccedilla" unicode="&#xc7;" horiz-adv-x="1452" 
d="M96 731q0 316 207 529q204 210 528 210q282 0 480 -149q46 -37 12 -94l-27 -41q-36 -54 -94 -17q-174 115 -362 115q-245 0 -391 -158q-144 -156 -144 -393t148 -405q147 -166 389 -166q212 0 393 141q55 43 94 -8l31 -41q39 -51 -10 -94q-212 -176 -486 -185l-16 -77
q67 -8 107 -48t40 -102q0 -84 -58 -128t-151 -44q-106 0 -106 59q0 62 37 62q4 0 24 -3t29 -3q88 0 88 65q0 57 -96 66q-48 3 -33 57l25 101q-298 27 -478 237t-180 514z" />
    <glyph glyph-name="Egrave" unicode="&#xc8;" horiz-adv-x="1136" 
d="M184 68v1310q0 68 68 68h704q68 0 68 -68v-41q0 -67 -68 -67h-571v-453h453q67 0 67 -67v-41q0 -68 -67 -68h-453v-465h606q68 0 68 -67v-41q0 -68 -68 -68h-739q-68 0 -68 68zM396 1781q10 25 52 25h62q53 0 80 -47l79 -139q20 -29 11 -51.5t-43 -22.5h-41q-47 0 -82 41
l-101 137q-27 32 -17 57z" />
    <glyph glyph-name="Eacute" unicode="&#xc9;" horiz-adv-x="1136" 
d="M184 68v1310q0 68 68 68h704q68 0 68 -68v-41q0 -67 -68 -67h-571v-453h453q67 0 67 -67v-41q0 -68 -67 -68h-453v-465h606q68 0 68 -67v-41q0 -68 -68 -68h-739q-68 0 -68 68zM571 1568.5q-12 22.5 7 53.5l81 137q27 47 80 47h60q42 0 53 -25t-16 -57l-101 -137
q-35 -41 -82 -41h-35q-35 0 -47 22.5z" />
    <glyph glyph-name="Ecircumflex" unicode="&#xca;" horiz-adv-x="1136" 
d="M184 68v1310q0 68 68 68h704q68 0 68 -68v-41q0 -67 -68 -67h-571v-453h453q67 0 67 -67v-41q0 -68 -67 -68h-453v-465h606q68 0 68 -67v-41q0 -68 -68 -68h-739q-68 0 -68 68zM383.5 1569.5q-9.5 23.5 13.5 58.5l95 133q29 45 83 45h101q56 0 82 -45l96 -133
q23 -35 14 -58.5t-45 -23.5h-45q-45 0 -71 45l-80 119h-4l-80 -119q-23 -45 -72 -45h-41q-37 0 -46.5 23.5z" />
    <glyph glyph-name="Edieresis" unicode="&#xcb;" horiz-adv-x="1136" 
d="M184 68v1310q0 68 68 68h704q68 0 68 -68v-41q0 -67 -68 -67h-571v-453h453q67 0 67 -67v-41q0 -68 -67 -68h-453v-465h606q68 0 68 -67v-41q0 -68 -68 -68h-739q-68 0 -68 68zM373 1667v72q0 67 68 67h28q68 0 68 -67v-72q0 -68 -68 -68h-28q-68 0 -68 68zM715 1667v72
q0 67 68 67h28q68 0 68 -67v-72q0 -68 -68 -68h-28q-68 0 -68 68z" />
    <glyph glyph-name="Igrave" unicode="&#xcc;" horiz-adv-x="569" 
d="M67 1781q10 25 52 25h61q53 0 80 -47l80 -139q20 -29 10.5 -51.5t-43.5 -22.5h-41q-47 0 -82 41l-100 137q-27 32 -17 57zM193 68v1310q0 68 67 68h66q67 0 67 -68v-1310q0 -68 -67 -68h-66q-67 0 -67 68z" />
    <glyph glyph-name="Iacute" unicode="&#xcd;" horiz-adv-x="569" 
d="M184 68v1310q0 68 68 68h65q68 0 68 -68v-1310q0 -68 -68 -68h-65q-68 0 -68 68zM233.5 1568.5q-12.5 22.5 6.5 53.5l82 137q27 47 80 47h59q42 0 53 -25t-16 -57l-100 -137q-35 -41 -82 -41h-35q-35 0 -47.5 22.5z" />
    <glyph glyph-name="Icircumflex" unicode="&#xce;" horiz-adv-x="569" 
d="M54 1569.5q-9 23.5 14 58.5l94 133q29 45 84 45h100q56 0 82 -45l96 -133q23 -35 14 -58.5t-44 -23.5h-45q-46 0 -72 45l-80 119h-4l-80 -119q-23 -45 -72 -45h-41q-37 0 -46 23.5zM193 68v1310q0 68 67 68h66q67 0 67 -68v-1310q0 -68 -67 -68h-66q-67 0 -67 68z" />
    <glyph glyph-name="Idieresis" unicode="&#xcf;" horiz-adv-x="569" 
d="M35 1667v72q0 67 67 67h29q68 0 68 -67v-72q0 -68 -68 -68h-29q-67 0 -67 68zM184 68v1310q0 68 68 68h65q68 0 68 -68v-1310q0 -68 -68 -68h-65q-68 0 -68 68zM377 1667v72q0 67 67 67h29q68 0 68 -67v-72q0 -68 -68 -68h-29q-67 0 -67 68z" />
    <glyph glyph-name="Eth" unicode="&#xd0;" horiz-adv-x="1495" 
d="M66 707v32q0 68 45 68h75v571q0 68 68 68h412q333 0 532 -193q199 -190 199 -528q0 -339 -199 -532t-532 -193h-412q-68 0 -68 68v571h-53q-67 0 -67 68zM387 176h264q250 0 393.5 144.5t143.5 404.5q0 257 -144 401t-393 144h-264v-463h240q67 0 67 -68v-32
q0 -68 -65 -68h-242v-463z" />
    <glyph glyph-name="Ntilde" unicode="&#xd1;" horiz-adv-x="1523" 
d="M184 68v1310q0 68 68 68h78q56 0 82 -45l616 -895q38 -58 100 -174l19 -35h4q-12 129 -12 209v872q0 68 67 68h66q67 0 67 -68v-1310q0 -68 -67 -68h-78q-57 0 -80 45l-618 893l-119 211h-4q12 -129 12 -211v-870q0 -68 -68 -68h-65q-68 0 -68 68zM424 1614
q0 85 53 139.5t139 54.5q44 0 87.5 -21.5t71.5 -48t59.5 -48t54.5 -21.5q34 0 54 26t22 66q3 41 61 41h16q60 0 60 -57q0 -92 -52.5 -147.5t-140.5 -55.5q-36 0 -71 14.5t-61.5 35t-50 40.5t-46.5 34.5t-43 14.5q-75 0 -78 -92q-6 -41 -59 -41h-17q-59 0 -59 66z" />
    <glyph glyph-name="Ograve" unicode="&#xd2;" horiz-adv-x="1669" 
d="M92 733q0 313 211 524q213 213 533 213q317 0 530 -213q211 -211 211 -524q0 -323 -211 -540q-212 -218 -530 -218q-321 0 -533 218q-211 217 -211 540zM301 733q0 -241 152 -407q153 -164 383 -164q231 0 381 164q151 165 151 407q0 236 -151 393q-152 158 -381 158
q-228 0 -383 -158q-152 -158 -152 -393zM605 1781q10 25 52 25h62q53 0 80 -47l79 -139q20 -29 11 -51.5t-43 -22.5h-41q-47 0 -82 41l-101 137q-27 32 -17 57z" />
    <glyph glyph-name="Oacute" unicode="&#xd3;" horiz-adv-x="1669" 
d="M92 733q0 313 211 524q213 213 533 213q317 0 530 -213q211 -211 211 -524q0 -323 -211 -540q-212 -218 -530 -218q-321 0 -533 218q-211 217 -211 540zM301 733q0 -241 152 -407q153 -164 383 -164q231 0 381 164q151 165 151 407q0 236 -151 393q-152 158 -381 158
q-228 0 -383 -158q-152 -158 -152 -393zM779.5 1568.5q-12.5 22.5 6.5 53.5l82 137q27 47 80 47h60q42 0 52.5 -25t-16.5 -57l-100 -137q-35 -41 -82 -41h-35q-35 0 -47.5 22.5z" />
    <glyph glyph-name="Ocircumflex" unicode="&#xd4;" horiz-adv-x="1669" 
d="M92 733q0 313 211 524q213 213 533 213q317 0 530 -213q211 -211 211 -524q0 -323 -211 -540q-212 -218 -530 -218q-321 0 -533 218q-211 217 -211 540zM301 733q0 -241 152 -407q153 -164 383 -164q231 0 381 164q151 165 151 407q0 236 -151 393q-152 158 -381 158
q-228 0 -383 -158q-152 -158 -152 -393zM592.5 1569.5q-9.5 23.5 13.5 58.5l94 133q29 45 84 45h101q56 0 82 -45l96 -133q23 -35 14 -58.5t-45 -23.5h-45q-46 0 -72 45l-79 119h-5l-79 -119q-23 -45 -72 -45h-41q-37 0 -46.5 23.5z" />
    <glyph glyph-name="Otilde" unicode="&#xd5;" horiz-adv-x="1669" 
d="M92 733q0 313 211 524q213 213 533 213q317 0 530 -213q211 -211 211 -524q0 -323 -211 -540q-212 -218 -530 -218q-321 0 -533 218q-211 217 -211 540zM301 733q0 -241 152 -407q153 -164 383 -164q231 0 381 164q151 165 151 407q0 236 -151 393q-152 158 -381 158
q-228 0 -383 -158q-152 -158 -152 -393zM496 1614q0 85 53 139.5t139 54.5q44 0 87.5 -21.5t71.5 -48t59.5 -48t54.5 -21.5q34 0 53.5 26t21.5 66q3 41 62 41h16q60 0 60 -57q0 -92 -52.5 -147.5t-140.5 -55.5q-36 0 -71 14.5t-61.5 35t-50 40.5t-46.5 34.5t-43 14.5
q-75 0 -78 -92q-6 -41 -60 -41h-16q-59 0 -59 66z" />
    <glyph glyph-name="Odieresis" unicode="&#xd6;" horiz-adv-x="1669" 
d="M92 733q0 313 211 524q213 213 533 213q317 0 530 -213q211 -211 211 -524q0 -323 -211 -540q-212 -218 -530 -218q-321 0 -533 218q-211 217 -211 540zM301 733q0 -241 152 -407q153 -164 383 -164q231 0 381 164q151 165 151 407q0 236 -151 393q-152 158 -381 158
q-228 0 -383 -158q-152 -158 -152 -393zM582 1667v72q0 67 68 67h28q68 0 68 -67v-72q0 -68 -68 -68h-28q-68 0 -68 68zM924 1667v72q0 67 68 67h28q68 0 68 -67v-72q0 -68 -68 -68h-28q-68 0 -68 68z" />
    <glyph glyph-name="multiply" unicode="&#xd7;" 
d="M184 162l377 422l-377 422q-45 50 2 94l19 18q49 49 94 -2l373 -414l372 414q45 51 97 2l16 -18q47 -44 2 -94l-379 -422l379 -422q45 -50 -2 -94l-16 -19q-52 -49 -97 2l-372 414l-373 -414q-45 -51 -94 -2l-19 19q-47 44 -2 94z" />
    <glyph glyph-name="Oslash" unicode="&#xd8;" horiz-adv-x="1667" 
d="M92 731q0 314 215 526q216 213 529 213q206 0 378 -102l54 78q40 52 92 18q46 -37 20 -75l-63 -89q124 -105 192 -252t68 -317q0 -318 -215 -536q-214 -220 -526 -220q-216 0 -392 111l-59 -84q-41 -52 -90 -18q-52 34 -19 79l68 95q-120 107 -186 255.5t-66 317.5z
M301 731q0 -242 162 -407l637 886q-121 74 -264 74q-222 0 -379 -160q-156 -156 -156 -393zM557 244q122 -82 277 -82q222 0 378 164t156 405q0 250 -170 406z" />
    <glyph glyph-name="Ugrave" unicode="&#xd9;" horiz-adv-x="1468" 
d="M166 512v866q0 68 67 68h68q66 0 66 -68v-864q0 -163 99 -257.5t267 -94.5t267.5 94.5t99.5 259.5v862q0 68 67 68h68q68 0 68 -68v-866q0 -240 -158 -389q-157 -148 -410 -148q-256 0 -413 148q-156 147 -156 389zM505 1781q10 25 52 25h62q53 0 80 -47l79 -139
q20 -29 11 -51.5t-43 -22.5h-41q-47 0 -82 41l-101 137q-27 32 -17 57z" />
    <glyph glyph-name="Uacute" unicode="&#xda;" horiz-adv-x="1468" 
d="M166 512v866q0 68 67 68h68q66 0 66 -68v-864q0 -163 99 -257.5t267 -94.5t267.5 94.5t99.5 259.5v862q0 68 67 68h68q68 0 68 -68v-866q0 -240 -158 -389q-157 -148 -410 -148q-256 0 -413 148q-156 147 -156 389zM677.5 1568.5q-12.5 22.5 6.5 53.5l82 137q27 47 80 47
h59q42 0 53 -25t-16 -57l-100 -137q-35 -41 -82 -41h-35q-35 0 -47.5 22.5z" />
    <glyph glyph-name="Ucircumflex" unicode="&#xdb;" horiz-adv-x="1468" 
d="M166 512v866q0 68 67 68h68q66 0 66 -68v-864q0 -163 99 -257.5t267 -94.5t267.5 94.5t99.5 259.5v862q0 68 67 68h68q68 0 68 -68v-866q0 -240 -158 -389q-157 -148 -410 -148q-256 0 -413 148q-156 147 -156 389zM490.5 1569.5q-9.5 23.5 13.5 58.5l94 133q29 45 84 45
h100q56 0 82 -45l97 -133q23 -35 14 -58.5t-45 -23.5h-45q-46 0 -72 45l-80 119h-4l-80 -119q-23 -45 -71 -45h-41q-37 0 -46.5 23.5z" />
    <glyph glyph-name="Udieresis" unicode="&#xdc;" horiz-adv-x="1468" 
d="M166 512v866q0 68 67 68h68q66 0 66 -68v-864q0 -163 99 -257.5t267 -94.5t267.5 94.5t99.5 259.5v862q0 68 67 68h68q68 0 68 -68v-866q0 -240 -158 -389q-157 -148 -410 -148q-256 0 -413 148q-156 147 -156 389zM481 1667v72q0 67 68 67h28q68 0 68 -67v-72
q0 -68 -68 -68h-28q-68 0 -68 68zM823 1667v72q0 67 68 67h28q68 0 68 -67v-72q0 -68 -68 -68h-28q-68 0 -68 68z" />
    <glyph glyph-name="Yacute" unicode="&#xdd;" horiz-adv-x="1161" 
d="M49 1423.5q14 22.5 53 22.5h82q57 0 78 -47l244 -428l88 -183h4q47 110 88 183l242 428q24 47 78 47h81q39 0 53.5 -22.5t-5.5 -57.5l-439 -754v-544q0 -68 -67 -68h-68q-67 0 -67 68v544l-439 754q-20 35 -6 57.5zM540.5 1568.5q-12.5 22.5 6.5 53.5l82 137q27 47 80 47
h59q42 0 53 -25t-16 -57l-100 -137q-35 -41 -82 -41h-35q-35 0 -47.5 22.5z" />
    <glyph glyph-name="Thorn" unicode="&#xde;" horiz-adv-x="1224" 
d="M184 68v1310q0 68 68 68h65q68 0 68 -66v-180h328q200 0 325 -125q127 -124 127 -327q0 -205 -127 -332t-327 -127h-326v-221q0 -68 -68 -68h-65q-68 0 -68 68zM385 465h295q130 0 205.5 76t75.5 207q0 129 -75 202.5t-204 73.5h-297v-559z" />
    <glyph glyph-name="germandbls" unicode="&#xdf;" horiz-adv-x="1191" 
d="M145 68v1017q0 182 131 283q132 102 312 102q165 0 278 -96q111 -94 111 -233q0 -47 -15 -89t-38 -71t-49.5 -59t-49.5 -53t-38 -52t-15 -57q0 -29 27 -60.5t67.5 -58.5t88 -63.5t88 -74t67.5 -91.5t27 -115q0 -148 -103 -231q-103 -80 -246 -80q-128 0 -237 41
q-53 15 -53 75v39q0 73 63 58q96 -41 203 -41q77 0 124.5 38t47.5 109q0 52 -53.5 106t-130.5 97q-76 47 -129.5 112.5t-53.5 133.5q0 99 103 198q104 100 104 187q0 68 -53 113.5t-143 45.5q-101 0 -169.5 -61t-68.5 -166v-1003q0 -68 -66 -68h-63q-68 0 -68 68z" />
    <glyph glyph-name="agrave" unicode="&#xe0;" horiz-adv-x="1058" 
d="M59 283q0 88 43.5 157t110.5 107q58 34 156 57q137 35 309 35h53v27q0 227 -225 227q-114 0 -234 -66q-58 -27 -92 25l-16 29q-34 61 22 92q155 88 336 88q196 0 302 -105t106 -301v-587q0 -68 -68 -68h-51q-68 0 -68 68v61l7 64h-5l-4.5 -9t-7.5 -14t-14.5 -21.5
t-24.5 -31.5q-110 -142 -286 -142q-142 0 -246 84q-103 83 -103 224zM260 299q0 -70 52.5 -118t140.5 -48q123 0 200 103q80 103 80 227v45h-53q-420 0 -420 -209zM300 1424.5q10 23.5 52 23.5h62q53 0 80 -47l79 -139q20 -29 11 -51.5t-43 -22.5h-41q-47 0 -82 41l-101 137
q-27 35 -17 58.5z" />
    <glyph glyph-name="aacute" unicode="&#xe1;" horiz-adv-x="1058" 
d="M59 283q0 88 43.5 157t110.5 107q58 34 156 57q137 35 309 35h53v27q0 227 -225 227q-114 0 -234 -66q-58 -27 -92 25l-16 29q-34 61 22 92q155 88 336 88q196 0 302 -105t106 -301v-587q0 -68 -68 -68h-51q-68 0 -68 68v61l7 64h-5l-4.5 -9t-7.5 -14t-14.5 -21.5
t-24.5 -31.5q-110 -142 -286 -142q-142 0 -246 84q-103 83 -103 224zM260 299q0 -70 52.5 -118t140.5 -48q123 0 200 103q80 103 80 227v45h-53q-420 0 -420 -209zM468.5 1210.5q-12.5 22.5 6.5 53.5l82 137q27 47 80 47h59q43 0 53 -23.5t-16 -58.5l-100 -137
q-35 -41 -82 -41h-35q-35 0 -47.5 22.5z" />
    <glyph glyph-name="acircumflex" unicode="&#xe2;" horiz-adv-x="1058" 
d="M59 283q0 88 43.5 157t110.5 107q58 34 156 57q137 35 309 35h53v27q0 227 -225 227q-114 0 -234 -66q-58 -27 -92 25l-16 29q-34 61 22 92q155 88 336 88q196 0 302 -105t106 -301v-587q0 -68 -68 -68h-51q-68 0 -68 68v61l7 64h-5l-4.5 -9t-7.5 -14t-14.5 -21.5
t-24.5 -31.5q-110 -142 -286 -142q-142 0 -246 84q-103 83 -103 224zM260 299q0 -70 52.5 -118t140.5 -48q123 0 200 103q80 103 80 227v45h-53q-420 0 -420 -209zM283.5 1211.5q-9.5 23.5 13.5 58.5l94 133q29 45 84 45h100q56 0 82 -45l97 -133q23 -35 14 -58.5t-45 -23.5
h-45q-46 0 -72 45l-80 119h-4l-80 -119q-23 -45 -71 -45h-41q-37 0 -46.5 23.5z" />
    <glyph glyph-name="atilde" unicode="&#xe3;" horiz-adv-x="1058" 
d="M59 283q0 88 43.5 157t110.5 107q58 34 156 57q137 35 309 35h53v27q0 227 -225 227q-114 0 -234 -66q-58 -27 -92 25l-16 29q-34 61 22 92q155 88 336 88q196 0 302 -105t106 -301v-587q0 -68 -68 -68h-51q-68 0 -68 68v61l7 64h-5l-4.5 -9t-7.5 -14t-14.5 -21.5
t-24.5 -31.5q-110 -142 -286 -142q-142 0 -246 84q-103 83 -103 224zM186 1255q0 85 53.5 140t139.5 55q36 0 71 -14.5t61.5 -35t50 -40.5t46.5 -34.5t43 -14.5q34 0 54 26t22 66q3 41 61 41h17q59 0 59 -58q0 -92 -52 -147t-140 -55q-44 0 -87.5 21.5t-71.5 48t-59.5 48
t-54.5 21.5q-74 0 -77 -92q-6 -41 -60 -41h-16q-60 0 -60 65zM260 299q0 -70 52.5 -118t140.5 -48q123 0 200 103q80 103 80 227v45h-53q-420 0 -420 -209z" />
    <glyph glyph-name="adieresis" unicode="&#xe4;" horiz-adv-x="1058" 
d="M59 283q0 88 43.5 157t110.5 107q58 34 156 57q137 35 309 35h53v27q0 227 -225 227q-114 0 -234 -66q-58 -27 -92 25l-16 29q-34 61 22 92q155 88 336 88q196 0 302 -105t106 -301v-587q0 -68 -68 -68h-51q-68 0 -68 68v61l7 64h-5l-4.5 -9t-7.5 -14t-14.5 -21.5
t-24.5 -31.5q-110 -142 -286 -142q-142 0 -246 84q-103 83 -103 224zM260 299q0 -70 52.5 -118t140.5 -48q123 0 200 103q80 103 80 227v45h-53q-420 0 -420 -209zM272 1309v71q0 68 68 68h29q67 0 67 -68v-71q0 -68 -67 -68h-29q-68 0 -68 68zM614 1309v71q0 68 68 68h29
q67 0 67 -68v-71q0 -68 -67 -68h-29q-68 0 -68 68z" />
    <glyph glyph-name="aring" unicode="&#xe5;" horiz-adv-x="1058" 
d="M59 283q0 88 43.5 157t110.5 107q58 34 156 57q137 35 309 35h53v27q0 227 -225 227q-114 0 -234 -66q-58 -27 -92 25l-16 29q-34 61 22 92q155 88 336 88q196 0 302 -105t106 -301v-587q0 -68 -68 -68h-51q-68 0 -68 68v61l7 64h-5l-4.5 -9t-7.5 -14t-14.5 -21.5
t-24.5 -31.5q-110 -142 -286 -142q-142 0 -246 84q-103 83 -103 224zM260 299q0 -70 52.5 -118t140.5 -48q123 0 200 103q80 103 80 227v45h-53q-420 0 -420 -209zM352 1315q0 68 50.5 111t123.5 43t123.5 -43t50.5 -111q0 -66 -50.5 -108.5t-123.5 -42.5t-123.5 42.5
t-50.5 108.5zM458 1315q0 -29 19 -48t49 -19q29 0 48.5 19t19.5 48q0 32 -19 52t-49 20q-31 0 -49.5 -20t-18.5 -52z" />
    <glyph glyph-name="ae" unicode="&#xe6;" horiz-adv-x="1746" 
d="M63 291q0 195 177 272q107 49 227 60q108 12 215 12h51v31q0 227 -233 227q-108 0 -228 -66q-58 -30 -92 25l-16 29q-31 63 24 92q149 88 326 88q261 0 344 -182h4q123 182 367 182q208 0 325 -135q119 -134 119 -355q0 -27 -19.5 -48t-49.5 -21h-680q7 -167 102 -261
t244 -94q133 0 248 80q62 38 92 -20l16 -31q33 -56 -18 -90q-156 -111 -351 -111q-152 0 -267 68.5t-177 192.5h-4q-23 -64 -100 -150q-46 -49 -123.5 -80t-167.5 -31q-148 0 -252 84q-103 86 -103 232zM264 301q0 -71 53 -118.5t144 -47.5q119 0 196 103q78 107 78 229v35
h-96q-375 0 -375 -201zM932 635h541q-4 124 -73.5 196t-172.5 72q-117 0 -194.5 -69.5t-100.5 -198.5z" />
    <glyph glyph-name="ccedilla" unicode="&#xe7;" horiz-adv-x="1093" 
d="M78 518q0 232 155 387q156 156 398 156q201 0 342 -111q52 -34 12 -92l-20 -31q-34 -51 -93 -16q-110 78 -231 78q-156 0 -258 -105t-102 -264q0 -158 102 -266q104 -107 262 -107q137 0 264 95q57 37 92 -19l17 -30q35 -56 -19 -91q-148 -121 -346 -127l-14 -77
q67 -8 107 -48t40 -102q0 -84 -58 -128t-150 -44q-107 0 -107 59q0 62 37 62q4 0 24 -3t29 -3q88 0 88 65q0 57 -96 66q-48 3 -33 57l25 103q-209 27 -338 174q-129 150 -129 362z" />
    <glyph glyph-name="egrave" unicode="&#xe8;" horiz-adv-x="1116" 
d="M78 518q0 242 145 393q147 150 373 150q212 0 328 -137q118 -133 118 -357q0 -30 -19.5 -49.5t-49.5 -19.5h-692q9 -164 110 -258q104 -93 248 -93q138 0 248 82q61 34 92 -22l18 -31q33 -57 -20 -90q-156 -111 -350 -111q-242 0 -396 154q-153 156 -153 389zM289 629
h555q-4 130 -73.5 203t-178.5 73q-117 0 -200 -74t-103 -202zM370 1424.5q10 23.5 52 23.5h61q53 0 80 -47l80 -139q20 -29 10.5 -51.5t-43.5 -22.5h-41q-47 0 -82 41l-100 137q-27 35 -17 58.5z" />
    <glyph glyph-name="eacute" unicode="&#xe9;" horiz-adv-x="1116" 
d="M78 518q0 242 145 393q147 150 373 150q212 0 328 -137q118 -133 118 -357q0 -30 -19.5 -49.5t-49.5 -19.5h-692q9 -164 110 -258q104 -93 248 -93q138 0 248 82q61 34 92 -22l18 -31q33 -57 -20 -90q-156 -111 -350 -111q-242 0 -396 154q-153 156 -153 389zM289 629
h555q-4 130 -73.5 203t-178.5 73q-117 0 -200 -74t-103 -202zM540.5 1210.5q-12.5 22.5 6.5 53.5l82 137q27 47 80 47h59q43 0 53 -23.5t-16 -58.5l-100 -137q-35 -41 -82 -41h-35q-35 0 -47.5 22.5z" />
    <glyph glyph-name="ecircumflex" unicode="&#xea;" horiz-adv-x="1116" 
d="M78 518q0 242 145 393q147 150 373 150q212 0 328 -137q118 -133 118 -357q0 -30 -19.5 -49.5t-49.5 -19.5h-692q9 -164 110 -258q104 -93 248 -93q138 0 248 82q61 34 92 -22l18 -31q33 -57 -20 -90q-156 -111 -350 -111q-242 0 -396 154q-153 156 -153 389zM289 629
h555q-4 130 -73.5 203t-178.5 73q-117 0 -200 -74t-103 -202zM353.5 1211.5q-9.5 23.5 13.5 58.5l94 133q29 45 84 45h100q56 0 82 -45l97 -133q23 -35 14 -58.5t-45 -23.5h-45q-46 0 -72 45l-80 119h-4l-80 -119q-23 -45 -71 -45h-41q-37 0 -46.5 23.5z" />
    <glyph glyph-name="edieresis" unicode="&#xeb;" horiz-adv-x="1116" 
d="M78 518q0 242 145 393q147 150 373 150q212 0 328 -137q118 -133 118 -357q0 -30 -19.5 -49.5t-49.5 -19.5h-692q9 -164 110 -258q104 -93 248 -93q138 0 248 82q61 34 92 -22l18 -31q33 -57 -20 -90q-156 -111 -350 -111q-242 0 -396 154q-153 156 -153 389zM289 629
h555q-4 130 -73.5 203t-178.5 73q-117 0 -200 -74t-103 -202zM342 1309v71q0 68 68 68h28q68 0 68 -68v-71q0 -68 -68 -68h-28q-68 0 -68 68zM684 1309v71q0 68 68 68h28q68 0 68 -68v-71q0 -68 -68 -68h-28q-68 0 -68 68z" />
    <glyph glyph-name="igrave" unicode="&#xec;" horiz-adv-x="485" 
d="M26 1424.5q10 23.5 52 23.5h61q53 0 80 -47l80 -139q20 -29 10.5 -51.5t-43.5 -22.5h-41q-47 0 -82 41l-100 137q-27 35 -17 58.5zM152 68v901q0 67 67 67h64q67 0 67 -67v-901q0 -68 -67 -68h-64q-67 0 -67 68z" />
    <glyph glyph-name="iacute" unicode="&#xed;" horiz-adv-x="485" 
d="M143 68v901q0 67 68 67h63q68 0 68 -67v-901q0 -68 -68 -68h-63q-68 0 -68 68zM190.5 1210.5q-12.5 22.5 6.5 53.5l82 137q27 47 79 47h60q43 0 53 -23.5t-16 -58.5l-101 -137q-35 -41 -82 -41h-34q-35 0 -47.5 22.5z" />
    <glyph glyph-name="icircumflex" unicode="&#xee;" horiz-adv-x="485" 
d="M11 1211.5q-9 23.5 14 58.5l94 133q29 45 84 45h100q56 0 82 -45l96 -133q23 -35 14 -58.5t-44 -23.5h-45q-46 0 -72 45l-80 119h-4l-80 -119q-23 -45 -72 -45h-41q-37 0 -46 23.5zM152 68v901q0 67 67 67h64q67 0 67 -67v-901q0 -68 -67 -68h-64q-67 0 -67 68z" />
    <glyph glyph-name="idieresis" unicode="&#xef;" horiz-adv-x="485" 
d="M-6 1309v71q0 68 67 68h29q68 0 68 -68v-71q0 -68 -68 -68h-29q-67 0 -67 68zM143 68v901q0 67 68 67h63q68 0 68 -67v-901q0 -68 -68 -68h-63q-68 0 -68 68zM336 1309v71q0 68 67 68h29q68 0 68 -68v-71q0 -68 -68 -68h-29q-67 0 -67 68z" />
    <glyph glyph-name="eth" unicode="&#xf0;" horiz-adv-x="1183" 
d="M80 481q0 194 129 332q132 141 356 141q70 0 136.5 -21.5t95.5 -47.5l26 -25h4q-62 172 -229 281l-297 -133q-32 -13 -49 -8.5t-29 30.5l-8 21q-21 46 37 73l209 93q-72 41 -197 77q-63 18 -45 84l12 33q21 64 84 45q210 -57 361 -147l211 94q59 21 76 -21l12 -24
q21 -44 -37 -68l-147 -67q294 -245 294 -660q0 -224 -118 -397q-61 -88 -166 -139.5t-236 -51.5q-222 0 -354 150q-131 149 -131 356zM283 477q0 -136 75 -233q79 -97 213 -97q154 0 234 115q80 118 80 266q0 118 -80.5 192.5t-210.5 74.5q-149 0 -232 -95q-79 -91 -79 -223
z" />
    <glyph glyph-name="ntilde" unicode="&#xf1;" horiz-adv-x="1210" 
d="M143 68v901q0 67 68 67h57q68 0 68 -67v-92l-6 -60h4q42 92 141 166q104 78 252 78q354 0 354 -397v-596q0 -68 -67 -68h-64q-67 0 -67 68v550q0 133 -42.5 197t-152.5 64q-149 0 -248 -111q-98 -110 -98 -272v-428q0 -68 -68 -68h-63q-68 0 -68 68zM291 1255
q0 85 53 140t139 55q44 0 87.5 -21.5t71.5 -48t59.5 -48t54.5 -21.5q34 0 53.5 26t21.5 66q3 41 62 41h16q60 0 60 -58q0 -92 -52.5 -147t-140.5 -55q-36 0 -71 14.5t-61.5 35t-50 40.5t-46.5 34.5t-43 14.5q-75 0 -78 -92q-6 -41 -59 -41h-17q-59 0 -59 65z" />
    <glyph glyph-name="ograve" unicode="&#xf2;" horiz-adv-x="1267" 
d="M76 520q0 235 162 387q165 154 395 154q232 0 397 -154q162 -152 162 -387q0 -233 -164 -389q-163 -156 -395 -156q-231 0 -395 156q-162 155 -162 389zM276 520q0 -158 105 -266q104 -107 252 -107q150 0 252 105q104 107 104 268q0 160 -104 264q-102 105 -252 105
q-147 0 -252 -105t-105 -264zM405 1424.5q10 23.5 52 23.5h61q53 0 80 -47l80 -139q20 -29 10.5 -51.5t-43.5 -22.5h-41q-47 0 -82 41l-100 137q-27 35 -17 58.5z" />
    <glyph glyph-name="oacute" unicode="&#xf3;" horiz-adv-x="1267" 
d="M76 520q0 235 162 387q165 154 395 154q232 0 397 -154q162 -152 162 -387q0 -233 -164 -389q-163 -156 -395 -156q-231 0 -395 156q-162 155 -162 389zM276 520q0 -158 105 -266q104 -107 252 -107q150 0 252 105q104 107 104 268q0 160 -104 264q-102 105 -252 105
q-147 0 -252 -105t-105 -264zM579.5 1210.5q-12.5 22.5 6.5 53.5l82 137q27 47 80 47h59q43 0 53 -23.5t-16 -58.5l-101 -137q-35 -41 -81 -41h-35q-35 0 -47.5 22.5z" />
    <glyph glyph-name="ocircumflex" unicode="&#xf4;" horiz-adv-x="1267" 
d="M76 520q0 235 162 387q165 154 395 154q232 0 397 -154q162 -152 162 -387q0 -233 -164 -389q-163 -156 -395 -156q-231 0 -395 156q-162 155 -162 389zM276 520q0 -158 105 -266q104 -107 252 -107q150 0 252 105q104 107 104 268q0 160 -104 264q-102 105 -252 105
q-147 0 -252 -105t-105 -264zM389.5 1211.5q-9.5 23.5 13.5 58.5l95 133q29 45 84 45h100q56 0 82 -45l96 -133q23 -35 14 -58.5t-45 -23.5h-45q-45 0 -71 45l-80 119h-4l-80 -119q-23 -45 -72 -45h-41q-37 0 -46.5 23.5z" />
    <glyph glyph-name="otilde" unicode="&#xf5;" horiz-adv-x="1267" 
d="M76 520q0 235 162 387q165 154 395 154q232 0 397 -154q162 -152 162 -387q0 -233 -164 -389q-163 -156 -395 -156q-231 0 -395 156q-162 155 -162 389zM276 520q0 -158 105 -266q104 -107 252 -107q150 0 252 105q104 107 104 268q0 160 -104 264q-102 105 -252 105
q-147 0 -252 -105t-105 -264zM295 1255q0 85 53 140t139 55q44 0 87.5 -21.5t71.5 -48t59.5 -48t54.5 -21.5q34 0 54 26t22 66q3 41 61 41h16q60 0 60 -58q0 -92 -52.5 -147t-140.5 -55q-36 0 -71 14.5t-61.5 35t-50 40.5t-46.5 34.5t-43 14.5q-75 0 -78 -92q-6 -41 -59 -41
h-17q-59 0 -59 65z" />
    <glyph glyph-name="odieresis" unicode="&#xf6;" horiz-adv-x="1267" 
d="M76 520q0 235 162 387q165 154 395 154q232 0 397 -154q162 -152 162 -387q0 -233 -164 -389q-163 -156 -395 -156q-231 0 -395 156q-162 155 -162 389zM276 520q0 -158 105 -266q104 -107 252 -107q150 0 252 105q104 107 104 268q0 160 -104 264q-102 105 -252 105
q-147 0 -252 -105t-105 -264zM381 1309v72q0 67 68 67h28q68 0 68 -67v-72q0 -68 -68 -68h-28q-68 0 -68 68zM723 1309v72q0 67 68 67h28q68 0 68 -67v-72q0 -68 -68 -68h-28q-68 0 -68 68z" />
    <glyph glyph-name="divide" unicode="&#xf7;" 
d="M111 571v25q0 68 67 68h899q68 0 68 -68v-25q0 -67 -68 -67h-899q-67 0 -67 67zM530 158v51q0 67 68 67h57q68 0 68 -67v-51q0 -68 -68 -68h-57q-68 0 -68 68zM530 958v52q0 67 68 67h57q68 0 68 -67v-52q0 -67 -68 -67h-57q-68 0 -68 67z" />
    <glyph glyph-name="oslash" unicode="&#xf8;" horiz-adv-x="1269" 
d="M78 520q0 235 162 387q165 154 395 154q146 0 276 -68l41 58q41 53 90 20q49 -34 19 -74l-51 -71q184 -156 184 -406q0 -233 -164 -389t-395 -156q-145 0 -260 62l-43 -60q-36 -54 -88 -20q-52 37 -19 76l47 67q-194 156 -194 420zM279 520q0 -157 104 -264l422 590
q-79 43 -170 43q-147 0 -252 -105q-104 -104 -104 -264zM481 184q67 -37 154 -37q150 0 252 105q104 107 104 268q0 147 -94 248z" />
    <glyph glyph-name="ugrave" unicode="&#xf9;" horiz-adv-x="1202" 
d="M131 373v596q0 67 68 67h63q66 0 66 -67v-551q0 -130 43 -194t151 -64q154 0 246 114q92 115 92 277v418q0 67 68 67h63q68 0 68 -67v-901q0 -68 -68 -68h-57q-68 0 -68 68v92l6 59h-4q-40 -91 -143 -168q-101 -76 -242 -76q-178 0 -265 98t-87 300zM368 1424.5
q10 23.5 52 23.5h61q53 0 80 -47l80 -139q20 -29 10.5 -51.5t-43.5 -22.5h-41q-47 0 -82 41l-100 137q-27 35 -17 58.5z" />
    <glyph glyph-name="uacute" unicode="&#xfa;" horiz-adv-x="1202" 
d="M131 373v596q0 67 68 67h63q66 0 66 -67v-551q0 -130 43 -194t151 -64q154 0 246 114q92 115 92 277v418q0 67 68 67h63q68 0 68 -67v-901q0 -68 -68 -68h-57q-68 0 -68 68v92l6 59h-4q-40 -91 -143 -168q-101 -76 -242 -76q-178 0 -265 98t-87 300zM538.5 1210.5
q-12.5 22.5 6.5 53.5l82 137q27 47 80 47h59q43 0 53 -23.5t-16 -58.5l-101 -137q-35 -41 -81 -41h-35q-35 0 -47.5 22.5z" />
    <glyph glyph-name="ucircumflex" unicode="&#xfb;" horiz-adv-x="1202" 
d="M131 373v596q0 67 68 67h63q66 0 66 -67v-551q0 -130 43 -194t151 -64q154 0 246 114q92 115 92 277v418q0 67 68 67h63q68 0 68 -67v-901q0 -68 -68 -68h-57q-68 0 -68 68v92l6 59h-4q-40 -91 -143 -168q-101 -76 -242 -76q-178 0 -265 98t-87 300zM351 1211.5
q-9 23.5 14 58.5l94 133q29 45 84 45h100q56 0 82 -45l96 -133q23 -35 14 -58.5t-44 -23.5h-46q-45 0 -71 45l-80 119h-4l-80 -119q-23 -45 -72 -45h-41q-37 0 -46 23.5z" />
    <glyph glyph-name="udieresis" unicode="&#xfc;" horiz-adv-x="1202" 
d="M131 373v596q0 67 68 67h63q66 0 66 -67v-551q0 -130 43 -194t151 -64q154 0 246 114q92 115 92 277v418q0 67 68 67h63q68 0 68 -67v-901q0 -68 -68 -68h-57q-68 0 -68 68v92l6 59h-4q-40 -91 -143 -168q-101 -76 -242 -76q-178 0 -265 98t-87 300zM342 1309v71
q0 68 68 68h28q68 0 68 -68v-71q0 -68 -68 -68h-28q-68 0 -68 68zM684 1309v71q0 68 68 68h28q68 0 68 -68v-71q0 -68 -68 -68h-28q-68 0 -68 68z" />
    <glyph glyph-name="yacute" unicode="&#xfd;" horiz-adv-x="1028" 
d="M55 -309l17 35q21 49 75 34q61 -22 82 -22q58 0 105 43t74 113l51 118l-402 946q-13 35 1 56.5t51 21.5h79q58 0 76 -53l244 -625l37 -125h4q12 55 35 123l235 625q18 55 76 55h74q37 0 51.5 -21.5t1.5 -56.5l-457 -1140q-44 -117 -134 -182.5t-202 -65.5q-67 0 -143 33
q-58 24 -31 88zM491.5 1208.5q-12.5 22.5 6.5 53.5l82 137q27 47 80 47h59q42 0 53 -25t-16 -57l-100 -137q-35 -41 -82 -41h-35q-35 0 -47.5 22.5z" />
    <glyph glyph-name="thorn" unicode="&#xfe;" horiz-adv-x="1212" 
d="M147 -342v1720q0 68 68 68h64q65 0 65 -68v-403l-2 -86h4q11 11 19 22l15 18l15 18t16 16.5t25 21.5q102 76 238 76q206 0 334 -152q125 -149 125 -391q0 -241 -132 -391q-131 -152 -335 -152q-66 0 -123 17t-94.5 44.5t-59.5 49t-35 41.5l-10 18h-4q4 -50 4 -90v-397
q0 -68 -65 -68h-64q-68 0 -68 68zM340 516q0 -163 80.5 -266t214.5 -103q130 0 213.5 103t83.5 268t-82 266q-80 105 -209 105q-136 0 -218.5 -95t-82.5 -278z" />
    <glyph glyph-name="ydieresis" unicode="&#xff;" horiz-adv-x="1028" 
d="M55 -309l17 35q21 49 75 34q61 -22 82 -22q58 0 105 43t74 113l51 118l-402 946q-13 35 1 56.5t51 21.5h79q58 0 76 -53l244 -625l37 -125h4q12 55 35 123l235 625q18 55 76 55h74q37 0 51.5 -21.5t1.5 -56.5l-457 -1140q-44 -117 -134 -182.5t-202 -65.5q-67 0 -143 33
q-58 24 -31 88zM295 1307v71q0 68 67 68h29q68 0 68 -68v-71q0 -68 -68 -68h-29q-67 0 -67 68zM637 1307v71q0 68 68 68h28q68 0 68 -68v-71q0 -68 -68 -68h-28q-68 0 -68 68z" />
    <glyph glyph-name="OE" unicode="&#x152;" horiz-adv-x="1937" 
d="M90 725q0 314 215 526q216 213 535 213q43 0 135 -10q73 -8 115 -8h667q68 0 68 -68v-41q0 -67 -68 -67h-571v-453h450q68 0 68 -67v-41q0 -68 -68 -68h-450v-465h606q68 0 68 -67v-41q0 -68 -68 -68h-700q-44 0 -117 -8q-92 -10 -135 -10q-319 0 -535 213
q-215 215 -215 530zM299 725q0 -240 152 -406q148 -161 389 -161q77 0 127 12l18 4v1100q-60 14 -145 14q-240 0 -389 -162q-152 -166 -152 -401z" />
    <glyph glyph-name="oe" unicode="&#x153;" horiz-adv-x="2027" 
d="M76 516q0 240 160 391q160 154 391 154q303 0 450 -246h4q132 246 426 246q211 0 330 -137q119 -134 119 -357q0 -29 -20.5 -49t-51.5 -20h-690q12 -162 111.5 -256.5t244.5 -94.5q137 0 250 82q62 35 90 -22l19 -31q34 -58 -21 -90q-153 -111 -350 -111q-315 0 -453 252
h-4q-147 -252 -452 -252q-234 0 -393 150q-160 151 -160 391zM279 516q0 -164 102 -266q103 -103 252 -103t252 103q104 104 104 272q0 163 -104 264q-106 103 -252 103q-147 0 -252 -105q-102 -102 -102 -268zM1200 629h553q-4 127 -73 200.5t-175 73.5q-118 0 -201.5 -74
t-103.5 -200z" />
    <glyph glyph-name="Ydieresis" unicode="&#x178;" horiz-adv-x="1161" 
d="M49 1423.5q14 22.5 53 22.5h82q57 0 78 -47l244 -428l88 -183h4q47 110 88 183l242 428q24 47 78 47h81q39 0 53.5 -22.5t-5.5 -57.5l-439 -754v-544q0 -68 -67 -68h-68q-67 0 -67 68v544l-439 754q-20 35 -6 57.5zM336 1667v72q0 67 68 67h28q68 0 68 -67v-72
q0 -68 -68 -68h-28q-68 0 -68 68zM678 1667v72q0 67 68 67h28q68 0 68 -67v-72q0 -68 -68 -68h-28q-68 0 -68 68z" />
    <glyph glyph-name="circumflex" unicode="&#x2c6;" horiz-adv-x="1021" 
d="M277.5 1569.5q-9.5 23.5 13.5 58.5l94 133q29 45 84 45h100q56 0 82 -45l97 -133q23 -35 14 -58.5t-45 -23.5h-45q-46 0 -72 45l-80 119h-4l-80 -119q-23 -45 -71 -45h-41q-37 0 -46.5 23.5z" />
    <glyph glyph-name="tilde" unicode="&#x2dc;" horiz-adv-x="1021" 
d="M172 1614q0 85 53.5 139.5t139.5 54.5q36 0 71 -14.5t61.5 -35t50 -40.5t46.5 -34.5t43 -14.5q34 0 54 26t22 66q3 41 61 41h17q59 0 59 -57q0 -92 -52.5 -147.5t-140.5 -55.5q-36 0 -71 14.5t-61.5 35t-50 40.5t-46.5 34.5t-43 14.5q-75 0 -78 -92q-6 -41 -59 -41h-17
q-59 0 -59 66z" />
    <glyph glyph-name="uni2000" unicode="&#x2000;" horiz-adv-x="913" 
 />
    <glyph glyph-name="uni2001" unicode="&#x2001;" horiz-adv-x="1827" 
 />
    <glyph glyph-name="uni2002" unicode="&#x2002;" horiz-adv-x="913" 
 />
    <glyph glyph-name="uni2003" unicode="&#x2003;" horiz-adv-x="1827" 
 />
    <glyph glyph-name="uni2004" unicode="&#x2004;" horiz-adv-x="609" 
 />
    <glyph glyph-name="uni2005" unicode="&#x2005;" horiz-adv-x="456" 
 />
    <glyph glyph-name="uni2006" unicode="&#x2006;" horiz-adv-x="304" 
 />
    <glyph glyph-name="uni2007" unicode="&#x2007;" horiz-adv-x="304" 
 />
    <glyph glyph-name="uni2008" unicode="&#x2008;" horiz-adv-x="228" 
 />
    <glyph glyph-name="uni2009" unicode="&#x2009;" horiz-adv-x="365" 
 />
    <glyph glyph-name="uni200A" unicode="&#x200a;" horiz-adv-x="101" 
 />
    <glyph glyph-name="uni2010" unicode="&#x2010;" horiz-adv-x="860" 
d="M131 563v41q0 68 68 68h463q67 0 67 -68v-41q0 -67 -67 -67h-463q-68 0 -68 67z" />
    <glyph glyph-name="uni2011" unicode="&#x2011;" horiz-adv-x="860" 
d="M131 563v41q0 68 68 68h463q67 0 67 -68v-41q0 -67 -67 -67h-463q-68 0 -68 67z" />
    <glyph glyph-name="figuredash" unicode="&#x2012;" horiz-adv-x="860" 
d="M131 563v41q0 68 68 68h463q67 0 67 -68v-41q0 -67 -67 -67h-463q-68 0 -68 67z" />
    <glyph glyph-name="endash" unicode="&#x2013;" horiz-adv-x="1341" 
d="M133 571v25q0 68 66 68h944q67 0 67 -68v-25q0 -67 -67 -67h-944q-66 0 -66 67z" />
    <glyph glyph-name="emdash" unicode="&#x2014;" horiz-adv-x="1751" 
d="M133 571v25q0 68 66 68h1353q68 0 68 -68v-25q0 -67 -68 -67h-1353q-66 0 -66 67z" />
    <glyph glyph-name="quoteleft" unicode="&#x2018;" horiz-adv-x="428" 
d="M106 1100l103 315q18 53 76 53h18q70 0 55 -73l-73 -312q-12 -61 -72 -61h-51q-37 0 -52.5 21.5t-3.5 56.5z" />
    <glyph glyph-name="quoteright" unicode="&#x2019;" horiz-adv-x="423" 
d="M119 1098l71 311q12 59 74 59h49q37 0 52.5 -20t3.5 -55l-103 -316q-18 -55 -76 -55h-16q-76 0 -55 76z" />
    <glyph glyph-name="quotesinglbase" unicode="&#x201a;" horiz-adv-x="462" 
d="M92 -158l74 314q12 59 74 59h49q36 0 51.5 -21.5t3.5 -54.5l-102 -315q-18 -55 -76 -55h-16q-73 0 -58 73z" />
    <glyph glyph-name="quotedblleft" unicode="&#x201c;" horiz-adv-x="729" 
d="M106 1100l103 315q18 53 76 53h18q70 0 55 -73l-71 -312q-12 -61 -74 -61h-51q-37 0 -52.5 21.5t-3.5 56.5zM408 1100l102 315q18 53 76 53h18q70 0 55 -73l-71 -312q-15 -61 -74 -61h-51q-37 0 -52 21.5t-3 56.5z" />
    <glyph glyph-name="quotedblright" unicode="&#x201d;" horiz-adv-x="724" 
d="M119 1098l71 311q12 59 74 59h51q37 0 52.5 -20t3.5 -55l-103 -316q-18 -55 -78 -55h-16q-76 0 -55 76zM418 1098l74 311q12 59 73 59h51q77 0 56 -75l-103 -316q-21 -55 -77 -55h-17q-72 0 -57 76z" />
    <glyph glyph-name="quotedblbase" unicode="&#x201e;" horiz-adv-x="763" 
d="M94 -158l74 314q12 59 74 59h51q37 0 51.5 -20.5t3.5 -55.5l-102 -315q-21 -55 -78 -55h-16q-73 0 -58 73zM395 -158l74 314q12 59 72 59h51q38 0 52.5 -20.5t2.5 -55.5l-100 -315q-21 -55 -78 -55h-18q-71 0 -56 73z" />
    <glyph glyph-name="bullet" unicode="&#x2022;" horiz-adv-x="841" 
d="M104 596q0 130 93 223q91 94 223 94q133 0 225 -92t92 -225t-92 -225t-225 -92q-131 0 -223 92q-93 96 -93 225z" />
    <glyph glyph-name="ellipsis" unicode="&#x2026;" horiz-adv-x="1525" 
d="M127 68v79q0 68 68 68h73q68 0 68 -68v-79q0 -68 -68 -68h-73q-68 0 -68 68zM659 68v79q0 68 66 68h74q67 0 67 -68v-79q0 -68 -67 -68h-74q-66 0 -66 68zM1190 68v79q0 68 67 68h74q68 0 68 -68v-79q0 -68 -68 -68h-74q-67 0 -67 68z" />
    <glyph glyph-name="uni202F" unicode="&#x202f;" horiz-adv-x="365" 
 />
    <glyph glyph-name="guilsinglleft" unicode="&#x2039;" horiz-adv-x="657" 
d="M143 530q-41 48 0 95l265 336q32 38 84 38h40q43 0 54 -24.5t-15 -56.5l-268 -340l268 -338q27 -35 19 -58.5t-49 -23.5h-49q-51 0 -84 39z" />
    <glyph glyph-name="guilsinglright" unicode="&#x203a;" horiz-adv-x="657" 
d="M117.5 974.5q9.5 24.5 50.5 24.5h49q50 0 82 -38l266 -336q41 -47 0 -95l-266 -333q-33 -39 -82 -39h-43q-43 0 -54 23.5t15 58.5l268 338l-268 340q-27 32 -17.5 56.5z" />
    <glyph glyph-name="uni205F" unicode="&#x205f;" horiz-adv-x="456" 
 />
    <glyph glyph-name="Euro" unicode="&#x20ac;" horiz-adv-x="1226" 
d="M82 594q0 63 61 63h52q-9 65 0 148h-50q-63 0 -63 65q0 66 63 66h72q65 239 254 385q189 149 440 149q46 0 138 -10q72 -12 51 -82l-15 -55q-15 -60 -69 -51q-75 10 -109 10q-169 0 -295.5 -93.5t-177.5 -252.5h500q73 0 61 -68q-12 -63 -75 -63h-517q-9 -71 0 -148h478
q76 0 61 -67q-9 -62 -74 -62h-430q46 -162 176 -262q128 -98 299 -98q69 0 121 10q68 12 80 -49l12 -55q15 -68 -51 -80q-93 -19 -164 -19q-258 0 -448 152q-190 155 -248 401h-72q-61 0 -61 66z" />
    <glyph glyph-name="trademark" unicode="&#x2122;" horiz-adv-x="1976" 
d="M82 1372v10q0 64 68 64h643q67 0 67 -64v-10q0 -63 -67 -63h-244v-697q0 -67 -68 -67h-20q-68 0 -68 67v697h-243q-68 0 -68 63zM930 614l63 768q3 64 68 64h22q60 0 80 -51l189 -420l28 -86h4q8 34 29 86l189 420q20 51 79 51h23q65 0 68 -64l61 -768q3 -69 -66 -69h-20
q-62 0 -68 63l-37 475l3 62h-5l-174 -381q-21 -53 -77 -53h-13q-57 0 -78 53l-174 381h-4l2 -62l-39 -475q-3 -63 -67 -63h-21q-68 0 -65 69z" />
    <glyph glyph-name="uni25FC" unicode="&#x25fc;" horiz-adv-x="1034" 
d="M0 0v1034h1034v-1034h-1034z" />
    </font>
</defs>
</svg>
